LeutkirchSans-Bold.ufo
<glyph name="exclam" format="2">
  <advance width="282"/>
  <unicode hex="0021"/>
  <outline>
    <contour>
      <point x="188" y="757" type="line"/>
      <point x="94" y="757" type="line"/>
      <point x="100" y="204" type="line"/>
      <point x="182" y="204" type="line"/>
    </contour>
    <contour>
      <point x="199" y="-40" type="line"/>
      <point x="199" y="79" type="line"/>
      <point x="85" y="79" type="line"/>
      <point x="85" y="-40" type="line"/>
    </contour>
  </outline>
</glyph>
<glyph name="quotedbl" format="2">
	<unicode hex="0022"/>
	<advance width="384"/>
	<outline>
		<contour>
			<point x="304" y="777" type="line"/>
			<point x="202" y="777" type="line"/>
			<point x="216" y="542" type="line"/>
			<point x="289" y="542" type="line"/>
		</contour>
		<contour>
			<point x="171" y="777" type="line"/>
			<point x="68" y="777" type="line"/>
			<point x="84" y="542" type="line"/>
			<point x="157" y="542" type="line"/>
		</contour>
	</outline>
</glyph>
<glyph name="numbersign" format="2">
	<unicode hex="0023"/>
	<advance width="573"/>
	<outline>
		<contour>
			<point x="536" y="456" type="line"/>
			<point x="429" y="456" type="line"/>
			<point x="481" y="678" type="line"/>
			<point x="401" y="678" type="line"/>
			<point x="349" y="456" type="line"/>
			<point x="267" y="456" type="line"/>
			<point x="318" y="678" type="line"/>
			<point x="238" y="678" type="line"/>
			<point x="187" y="456" type="line"/>
			<point x="85" y="456" type="line"/>
			<point x="68" y="385" type="line"/>
			<point x="172" y="385" type="line"/>
			<point x="153" y="302" type="line"/>
			<point x="50" y="302" type="line"/>
			<point x="35" y="231" type="line"/>
			<point x="138" y="231" type="line"/>
			<point x="87" y="11" type="line"/>
			<point x="167" y="11" type="line"/>
			<point x="218" y="231" type="line"/>
			<point x="300" y="231" type="line"/>
			<point x="251" y="11" type="line"/>
			<point x="329" y="11" type="line"/>
			<point x="379" y="231" type="line"/>
			<point x="486" y="231" type="line"/>
			<point x="503" y="302" type="line"/>
			<point x="394" y="302" type="line"/>
			<point x="414" y="385" type="line"/>
			<point x="521" y="385" type="line"/>
		</contour>
		<contour>
			<point x="334" y="385" type="line"/>
			<point x="315" y="302" type="line"/>
			<point x="233" y="302" type="line"/>
			<point x="252" y="385" type="line"/>
		</contour>
	</outline>
</glyph>
<glyph name="dollar" format="2">
	<unicode hex="0024"/>
	<advance width="485"/>
	<outline>
		<contour>
			<point x="272" y="63" type="curve"/>
			<point x="272" y="307" type="line"/>
			<point x="274" y="306"/>
			<point x="276" y="305"/>
			<point x="279" y="304" type="curve" smooth="yes"/>
			<point x="297" y="293"/>
			<point x="311" y="282"/>
			<point x="322" y="270" type="curve" smooth="yes"/>
			<point x="330" y="260"/>
			<point x="338" y="247"/>
			<point x="345" y="233" type="curve" smooth="yes"/>
			<point x="351" y="218"/>
			<point x="354" y="202"/>
			<point x="354" y="184" type="curve" smooth="yes"/>
			<point x="354" y="162"/>
			<point x="350" y="144"/>
			<point x="344" y="129" type="curve" smooth="yes"/>
			<point x="336" y="113"/>
			<point x="328" y="99"/>
			<point x="318" y="89" type="curve" smooth="yes"/>
			<point x="308" y="78"/>
			<point x="296" y="71"/>
			<point x="283" y="67" type="curve" smooth="yes"/>
			<point x="279" y="65"/>
			<point x="276" y="64"/>
		</contour>
		<contour>
			<point x="205" y="335" type="curve"/>
			<point x="205" y="64" type="line"/>
			<point x="187" y="68"/>
			<point x="173" y="76"/>
			<point x="162" y="88" type="curve" smooth="yes"/>
			<point x="144" y="106"/>
			<point x="135" y="131"/>
			<point x="135" y="163" type="curve"/>
			<point x="39" y="163" type="line"/>
			<point x="43" y="111"/>
			<point x="62" y="70"/>
			<point x="94" y="40" type="curve" smooth="yes"/>
			<point x="119" y="14"/>
			<point x="156" y="0"/>
			<point x="205" y="-4" type="curve"/>
			<point x="205" y="-90" type="line"/>
			<point x="272" y="-90" type="line"/>
			<point x="272" y="-4" type="line"/>
			<point x="288" y="-2"/>
			<point x="303" y="1"/>
			<point x="318" y="7" type="curve" smooth="yes"/>
			<point x="343" y="15"/>
			<point x="365" y="27"/>
			<point x="383" y="42" type="curve" smooth="yes"/>
			<point x="399" y="57"/>
			<point x="413" y="77"/>
			<point x="425" y="102" type="curve" smooth="yes"/>
			<point x="436" y="126"/>
			<point x="442" y="155"/>
			<point x="442" y="191" type="curve" smooth="yes"/>
			<point x="442" y="227"/>
			<point x="435" y="256"/>
			<point x="421" y="280" type="curve" smooth="yes"/>
			<point x="407" y="303"/>
			<point x="390" y="322"/>
			<point x="372" y="337" type="curve" smooth="yes"/>
			<point x="353" y="351"/>
			<point x="329" y="365"/>
			<point x="301" y="378" type="curve" smooth="yes"/>
			<point x="290" y="382"/>
			<point x="280" y="386"/>
			<point x="272" y="390" type="curve"/>
			<point x="272" y="644" type="line"/>
			<point x="288" y="639"/>
			<point x="301" y="631"/>
			<point x="312" y="619" type="curve" smooth="yes"/>
			<point x="328" y="599"/>
			<point x="337" y="576"/>
			<point x="338" y="548" type="curve"/>
			<point x="431" y="548" type="line"/>
			<point x="431" y="572"/>
			<point x="426" y="594"/>
			<point x="416" y="614" type="curve" smooth="yes"/>
			<point x="405" y="633"/>
			<point x="392" y="650"/>
			<point x="377" y="665" type="curve" smooth="yes"/>
			<point x="361" y="678"/>
			<point x="343" y="690"/>
			<point x="322" y="700" type="curve" smooth="yes"/>
			<point x="308" y="706"/>
			<point x="291" y="710"/>
			<point x="272" y="712" type="curve"/>
			<point x="272" y="788" type="line"/>
			<point x="205" y="788" type="line"/>
			<point x="205" y="711" type="line"/>
			<point x="191" y="709"/>
			<point x="178" y="705"/>
			<point x="166" y="701" type="curve" smooth="yes"/>
			<point x="142" y="692"/>
			<point x="122" y="681"/>
			<point x="106" y="668" type="curve" smooth="yes"/>
			<point x="89" y="653"/>
			<point x="75" y="635"/>
			<point x="65" y="613" type="curve" smooth="yes"/>
			<point x="54" y="591"/>
			<point x="49" y="564"/>
			<point x="49" y="533" type="curve" smooth="yes"/>
			<point x="49" y="495"/>
			<point x="55" y="465"/>
			<point x="67" y="442" type="curve" smooth="yes"/>
			<point x="78" y="418"/>
			<point x="92" y="398"/>
			<point x="109" y="384" type="curve" smooth="yes"/>
			<point x="126" y="370"/>
			<point x="148" y="358"/>
			<point x="175" y="348" type="curve" smooth="yes"/>
			<point x="186" y="343"/>
			<point x="196" y="339"/>
		</contour>
		<contour>
			<point x="205" y="645" type="curve"/>
			<point x="205" y="417" type="line"/>
			<point x="201" y="419" type="line" smooth="yes"/>
			<point x="182" y="427"/>
			<point x="169" y="437"/>
			<point x="161" y="447" type="curve" smooth="yes"/>
			<point x="153" y="456"/>
			<point x="147" y="468"/>
			<point x="143" y="483" type="curve" smooth="yes"/>
			<point x="138" y="497"/>
			<point x="136" y="515"/>
			<point x="136" y="537" type="curve" smooth="yes"/>
			<point x="136" y="556"/>
			<point x="138" y="573"/>
			<point x="144" y="587" type="curve" smooth="yes"/>
			<point x="149" y="601"/>
			<point x="156" y="612"/>
			<point x="165" y="622" type="curve" smooth="yes"/>
			<point x="173" y="630"/>
			<point x="183" y="637"/>
			<point x="195" y="642" type="curve" smooth="yes"/>
			<point x="198" y="642"/>
			<point x="201" y="643"/>
		</contour>
	</outline>
</glyph>
<glyph name="percent" format="2">
  <advance width="766"/>
  <unicode hex="0025"/>
  <outline>
    <contour>
      <point x="557" y="684" type="line"/>
      <point x="474" y="684" type="line"/>
      <point x="208" y="14" type="line"/>
      <point x="291" y="14" type="line"/>
    </contour>
    <contour>
      <point x="250" y="476" type="curve" smooth="yes"/>
      <point x="250" y="433"/>
      <point x="243" y="399"/>
      <point x="230" y="375" type="curve" smooth="yes"/>
      <point x="216" y="349"/>
      <point x="198" y="337"/>
      <point x="178" y="337" type="curve" smooth="yes"/>
      <point x="158" y="337"/>
      <point x="141" y="349"/>
      <point x="128" y="375" type="curve" smooth="yes"/>
      <point x="114" y="399"/>
      <point x="108" y="433"/>
      <point x="108" y="476" type="curve" smooth="yes"/>
      <point x="108" y="519"/>
      <point x="115" y="553"/>
      <point x="129" y="579" type="curve" smooth="yes"/>
      <point x="142" y="604"/>
      <point x="158" y="617"/>
      <point x="178" y="617" type="curve" smooth="yes"/>
      <point x="198" y="617"/>
      <point x="216" y="604"/>
      <point x="230" y="579" type="curve" smooth="yes"/>
      <point x="243" y="553"/>
      <point x="250" y="519"/>
    </contour>
    <contour>
      <point x="336" y="476" type="curve" smooth="yes"/>
      <point x="336" y="504"/>
      <point x="332" y="532"/>
      <point x="325" y="559" type="curve" smooth="yes"/>
      <point x="317" y="585"/>
      <point x="306" y="608"/>
      <point x="292" y="627" type="curve" smooth="yes"/>
      <point x="278" y="645"/>
      <point x="261" y="660"/>
      <point x="241" y="670" type="curve" smooth="yes"/>
      <point x="221" y="679"/>
      <point x="200" y="684"/>
      <point x="178" y="684" type="curve" smooth="yes"/>
      <point x="156" y="684"/>
      <point x="136" y="679"/>
      <point x="116" y="670" type="curve" smooth="yes"/>
      <point x="96" y="660"/>
      <point x="79" y="645"/>
      <point x="65" y="627" type="curve" smooth="yes"/>
      <point x="51" y="608"/>
      <point x="40" y="585"/>
      <point x="33" y="559" type="curve" smooth="yes"/>
      <point x="25" y="532"/>
      <point x="22" y="504"/>
      <point x="22" y="476" type="curve" smooth="yes"/>
      <point x="22" y="448"/>
      <point x="25" y="420"/>
      <point x="33" y="394" type="curve" smooth="yes"/>
      <point x="40" y="367"/>
      <point x="51" y="344"/>
      <point x="65" y="325" type="curve" smooth="yes"/>
      <point x="79" y="306"/>
      <point x="96" y="292"/>
      <point x="116" y="284" type="curve" smooth="yes"/>
      <point x="136" y="274"/>
      <point x="156" y="270"/>
      <point x="178" y="270" type="curve" smooth="yes"/>
      <point x="200" y="270"/>
      <point x="221" y="274"/>
      <point x="241" y="284" type="curve" smooth="yes"/>
      <point x="261" y="292"/>
      <point x="278" y="306"/>
      <point x="292" y="325" type="curve" smooth="yes"/>
      <point x="306" y="344"/>
      <point x="317" y="367"/>
      <point x="325" y="394" type="curve" smooth="yes"/>
      <point x="332" y="420"/>
      <point x="336" y="448"/>
    </contour>
    <contour>
      <point x="659" y="220" type="curve" smooth="yes"/>
      <point x="659" y="177"/>
      <point x="652" y="143"/>
      <point x="639" y="119" type="curve" smooth="yes"/>
      <point x="625" y="93"/>
      <point x="607" y="81"/>
      <point x="587" y="81" type="curve" smooth="yes"/>
      <point x="567" y="81"/>
      <point x="550" y="93"/>
      <point x="537" y="119" type="curve" smooth="yes"/>
      <point x="523" y="143"/>
      <point x="517" y="177"/>
      <point x="517" y="220" type="curve" smooth="yes"/>
      <point x="517" y="263"/>
      <point x="524" y="297"/>
      <point x="538" y="323" type="curve" smooth="yes"/>
      <point x="551" y="348"/>
      <point x="567" y="361"/>
      <point x="587" y="361" type="curve" smooth="yes"/>
      <point x="607" y="361"/>
      <point x="625" y="348"/>
      <point x="639" y="323" type="curve" smooth="yes"/>
      <point x="652" y="297"/>
      <point x="659" y="263"/>
    </contour>
    <contour>
      <point x="745" y="220" type="curve" smooth="yes"/>
      <point x="745" y="248"/>
      <point x="741" y="276"/>
      <point x="734" y="303" type="curve" smooth="yes"/>
      <point x="726" y="329"/>
      <point x="715" y="352"/>
      <point x="701" y="371" type="curve" smooth="yes"/>
      <point x="687" y="389"/>
      <point x="670" y="404"/>
      <point x="650" y="414" type="curve" smooth="yes"/>
      <point x="630" y="423"/>
      <point x="609" y="428"/>
      <point x="587" y="428" type="curve" smooth="yes"/>
      <point x="565" y="428"/>
      <point x="545" y="423"/>
      <point x="525" y="414" type="curve" smooth="yes"/>
      <point x="505" y="404"/>
      <point x="488" y="389"/>
      <point x="474" y="371" type="curve" smooth="yes"/>
      <point x="460" y="352"/>
      <point x="449" y="329"/>
      <point x="442" y="303" type="curve" smooth="yes"/>
      <point x="434" y="276"/>
      <point x="431" y="248"/>
      <point x="431" y="220" type="curve" smooth="yes"/>
      <point x="431" y="192"/>
      <point x="434" y="164"/>
      <point x="442" y="138" type="curve" smooth="yes"/>
      <point x="449" y="111"/>
      <point x="460" y="88"/>
      <point x="474" y="69" type="curve" smooth="yes"/>
      <point x="488" y="50"/>
      <point x="505" y="36"/>
      <point x="525" y="28" type="curve" smooth="yes"/>
      <point x="545" y="18"/>
      <point x="565" y="14"/>
      <point x="587" y="14" type="curve" smooth="yes"/>
      <point x="609" y="14"/>
      <point x="630" y="18"/>
      <point x="650" y="28" type="curve" smooth="yes"/>
      <point x="670" y="36"/>
      <point x="687" y="50"/>
      <point x="701" y="69" type="curve" smooth="yes"/>
      <point x="715" y="88"/>
      <point x="726" y="111"/>
      <point x="734" y="138" type="curve" smooth="yes"/>
      <point x="741" y="164"/>
      <point x="745" y="192"/>
    </contour>
  </outline>
</glyph>
<glyph name="ampersand" format="2">
  <advance width="688"/>
  <unicode hex="0026"/>
  <outline>
    <contour>
      <point x="672" y="1" type="line"/>
      <point x="550" y="162" type="line"/>
      <point x="635" y="257" type="line"/>
      <point x="572" y="313" type="line"/>
      <point x="499" y="226" type="line"/>
      <point x="357" y="412" type="line"/>
      <point x="361" y="416"/>
      <point x="368" y="421"/>
      <point x="377" y="427" type="curve" smooth="yes"/>
      <point x="385" y="433"/>
      <point x="394" y="440"/>
      <point x="405" y="449" type="curve" smooth="yes"/>
      <point x="428" y="467"/>
      <point x="447" y="489"/>
      <point x="463" y="515" type="curve" smooth="yes"/>
      <point x="477" y="539"/>
      <point x="484" y="563"/>
      <point x="484" y="586" type="curve" smooth="yes"/>
      <point x="483" y="610"/>
      <point x="478" y="631"/>
      <point x="468" y="650" type="curve" smooth="yes"/>
      <point x="458" y="668"/>
      <point x="445" y="682"/>
      <point x="430" y="693" type="curve" smooth="yes"/>
      <point x="414" y="704"/>
      <point x="396" y="713"/>
      <point x="377" y="719" type="curve" smooth="yes"/>
      <point x="357" y="724"/>
      <point x="338" y="727"/>
      <point x="320" y="727" type="curve" smooth="yes"/>
      <point x="295" y="727"/>
      <point x="273" y="722"/>
      <point x="254" y="714" type="curve" smooth="yes"/>
      <point x="234" y="705"/>
      <point x="216" y="694"/>
      <point x="202" y="680" type="curve" smooth="yes"/>
      <point x="188" y="666"/>
      <point x="178" y="649"/>
      <point x="171" y="631" type="curve" smooth="yes"/>
      <point x="163" y="612"/>
      <point x="161" y="592"/>
      <point x="163" y="571" type="curve" smooth="yes"/>
      <point x="165" y="549"/>
      <point x="172" y="527"/>
      <point x="184" y="505" type="curve" smooth="yes"/>
      <point x="196" y="482"/>
      <point x="214" y="456"/>
      <point x="238" y="426" type="curve"/>
      <point x="230" y="420"/>
      <point x="215" y="409"/>
      <point x="192" y="393" type="curve" smooth="yes"/>
      <point x="168" y="376"/>
      <point x="142" y="352"/>
      <point x="114" y="322" type="curve" smooth="yes"/>
      <point x="86" y="292"/>
      <point x="69" y="257"/>
      <point x="63" y="217" type="curve" smooth="yes"/>
      <point x="56" y="176"/>
      <point x="60" y="139"/>
      <point x="76" y="105" type="curve" smooth="yes"/>
      <point x="94" y="66"/>
      <point x="121" y="37"/>
      <point x="158" y="17" type="curve" smooth="yes"/>
      <point x="194" y="-3"/>
      <point x="231" y="-12"/>
      <point x="270" y="-10" type="curve" smooth="yes"/>
      <point x="294" y="-9"/>
      <point x="317" y="-5"/>
      <point x="339" y="2" type="curve" smooth="yes"/>
      <point x="361" y="9"/>
      <point x="381" y="18"/>
      <point x="401" y="29" type="curve" smooth="yes"/>
      <point x="436" y="50"/>
      <point x="466" y="73"/>
      <point x="490" y="98" type="curve"/>
      <point x="563" y="1" type="line"/>
    </contour>
    <contour>
      <point x="395" y="592" type="curve" smooth="yes"/>
      <point x="395" y="573"/>
      <point x="389" y="556"/>
      <point x="377" y="540" type="curve" smooth="yes"/>
      <point x="364" y="523"/>
      <point x="352" y="509"/>
      <point x="341" y="499" type="curve" smooth="yes"/>
      <point x="323" y="483"/>
      <point x="311" y="474"/>
      <point x="307" y="471" type="curve"/>
      <point x="299" y="481"/>
      <point x="288" y="498"/>
      <point x="275" y="521" type="curve" smooth="yes"/>
      <point x="261" y="543"/>
      <point x="254" y="565"/>
      <point x="254" y="586" type="curve" smooth="yes"/>
      <point x="254" y="606"/>
      <point x="260" y="624"/>
      <point x="274" y="640" type="curve" smooth="yes"/>
      <point x="287" y="655"/>
      <point x="303" y="663"/>
      <point x="321" y="663" type="curve" smooth="yes"/>
      <point x="341" y="663"/>
      <point x="358" y="656"/>
      <point x="373" y="642" type="curve" smooth="yes"/>
      <point x="387" y="627"/>
      <point x="395" y="610"/>
    </contour>
    <contour>
      <point x="442" y="160" type="line"/>
      <point x="419" y="133"/>
      <point x="391" y="110"/>
      <point x="357" y="91" type="curve" smooth="yes"/>
      <point x="323" y="71"/>
      <point x="293" y="61"/>
      <point x="267" y="62" type="curve" smooth="yes"/>
      <point x="245" y="62"/>
      <point x="224" y="70"/>
      <point x="204" y="85" type="curve" smooth="yes"/>
      <point x="183" y="99"/>
      <point x="169" y="115"/>
      <point x="162" y="134" type="curve" smooth="yes"/>
      <point x="151" y="160"/>
      <point x="149" y="186"/>
      <point x="156" y="212" type="curve" smooth="yes"/>
      <point x="162" y="238"/>
      <point x="172" y="259"/>
      <point x="187" y="276" type="curve" smooth="yes"/>
      <point x="219" y="312"/>
      <point x="252" y="341"/>
      <point x="286" y="363" type="curve"/>
    </contour>
  </outline>
</glyph>
<glyph name="quotesingle" format="2">
	<unicode hex="0027"/>
	<advance width="291"/>
	<outline>
		<contour>
			<point x="169" y="777" type="line"/>
			<point x="67" y="777" type="line"/>
			<point x="82" y="542" type="line"/>
			<point x="155" y="542" type="line"/>
		</contour>
	</outline>
</glyph>
<glyph name="parenleft" format="2">
	<unicode hex="0028"/>
	<advance width="356"/>
	<outline>
		<contour>
			<point x="211" y="234" type="curve" smooth="yes"/>
			<point x="211" y="424" type="line" smooth="yes"/>
			<point x="211" y="547.292"/>
			<point x="224.752" y="704.973"/>
			<point x="304" y="749" type="curve"/>
			<point x="304" y="808" type="line"/>
			<point x="145.657" y="763.664"/>
			<point x="120" y="586.576"/>
			<point x="120" y="392" type="curve" smooth="yes"/>
			<point x="120" y="266" type="line" smooth="yes"/>
			<point x="120" y="71.2436"/>
			<point x="145.974" y="-104.753"/>
			<point x="304" y="-149" type="curve"/>
			<point x="304" y="-90" type="line"/>
			<point x="224.69" y="-45.9387"/>
			<point x="211" y="109.74"/>
		</contour>
	</outline>
</glyph>
<glyph name="parenright" format="2">
	<unicode hex="0029"/>
	<advance width="356"/>
	<outline>
		<contour>
			<point x="129" y="234" type="line" smooth="yes"/>
			<point x="129" y="110.172"/>
			<point x="114.309" y="-46.4951"/>
			<point x="36" y="-90" type="curve"/>
			<point x="36" y="-149" type="line"/>
			<point x="192.52" y="-104.28"/>
			<point x="220" y="70.8579"/>
			<point x="220" y="266" type="curve" smooth="yes"/>
			<point x="220" y="392" type="line" smooth="yes"/>
			<point x="220" y="586.888"/>
			<point x="192.792" y="763.202"/>
			<point x="36" y="808" type="curve"/>
			<point x="36" y="749" type="line"/>
			<point x="114.343" y="705.476"/>
			<point x="129" y="546.893"/>
			<point x="129" y="424" type="curve" smooth="yes"/>
		</contour>
	</outline>
</glyph>
<glyph name="asterisk" format="2">
  <advance width="360"/>
  <unicode hex="002A"/>
  <outline>
    <contour>
      <point x="235" y="593" type="line"/>
      <point x="230" y="593" type="line"/>
      <point x="232" y="597" type="line"/>
      <point x="253" y="623" type="line"/>
      <point x="290" y="683" type="line"/>
      <point x="231" y="717" type="line"/>
      <point x="195" y="656" type="line"/>
      <point x="183" y="623" type="line"/>
      <point x="181" y="619" type="line"/>
      <point x="178" y="623" type="line"/>
      <point x="166" y="656" type="line"/>
      <point x="130" y="717" type="line"/>
      <point x="71" y="683" type="line"/>
      <point x="108" y="623" type="line"/>
      <point x="129" y="597" type="line"/>
      <point x="131" y="593" type="line"/>
      <point x="125" y="593" type="line"/>
      <point x="90" y="600" type="line"/>
      <point x="23" y="600" type="line"/>
      <point x="23" y="534" type="line"/>
      <point x="90" y="534" type="line"/>
      <point x="125" y="540" type="line"/>
      <point x="133" y="540" type="line"/>
      <point x="130" y="535" type="line"/>
      <point x="106" y="510" type="line"/>
      <point x="71" y="451" type="line"/>
      <point x="128" y="416" type="line"/>
      <point x="165" y="477" type="line"/>
      <point x="178" y="509" type="line"/>
      <point x="181" y="513" type="line"/>
      <point x="183" y="509" type="line"/>
      <point x="196" y="477" type="line"/>
      <point x="233" y="416" type="line"/>
      <point x="290" y="451" type="line"/>
      <point x="255" y="510" type="line"/>
      <point x="231" y="535" type="line"/>
      <point x="228" y="540" type="line"/>
      <point x="235" y="540" type="line"/>
      <point x="269" y="534" type="line"/>
      <point x="338" y="534" type="line"/>
      <point x="338" y="600" type="line"/>
      <point x="269" y="600" type="line"/>
    </contour>
  </outline>
</glyph>
<glyph name="plus" format="2">
  <advance width="516"/>
  <unicode hex="002B"/>
  <outline>
    <contour>
      <point x="478" y="323" type="line"/>
      <point x="478" y="400" type="line"/>
      <point x="299" y="400" type="line"/>
      <point x="299" y="602" type="line"/>
      <point x="217" y="602" type="line"/>
      <point x="217" y="400" type="line"/>
      <point x="39" y="400" type="line"/>
      <point x="39" y="323" type="line"/>
      <point x="217" y="323" type="line"/>
      <point x="217" y="122" type="line"/>
      <point x="299" y="122" type="line"/>
      <point x="299" y="323" type="line"/>
    </contour>
  </outline>
</glyph>
<glyph name="comma" format="2">
	<unicode hex="002C"/>
	<advance width="232"/>
	<outline>
		<contour>
			<point x="175" y="87" type="line"/>
			<point x="66" y="87" type="line"/>
			<point x="43" y="-149" type="line"/>
			<point x="123" y="-149" type="line"/>
		</contour>
	</outline>
</glyph>
<glyph name="hyphen" format="2">
	<unicode hex="002D"/>
	<advance width="379"/>
	<outline>
		<contour>
			<point x="341" y="319" type="line"/>
			<point x="341" y="403" type="line"/>
			<point x="36" y="403" type="line"/>
			<point x="36" y="319" type="line"/>
		</contour>
	</outline>
</glyph>
<glyph name="period" format="2">
  <advance width="224"/>
  <unicode hex="002E"/>
  <outline>
    <contour>
      <point x="169" y="-40" type="line"/>
      <point x="169" y="79" type="line"/>
      <point x="55" y="79" type="line"/>
      <point x="55" y="-40" type="line"/>
    </contour>
  </outline>
</glyph>
<glyph name="slash" format="2">
	<unicode hex="002F"/>
	<advance width="360"/>
	<outline>
		<contour>
			<point x="325" y="798" type="line"/>
			<point x="239" y="798" type="line"/>
			<point x="19" y="-139" type="line"/>
			<point x="104" y="-139" type="line"/>
		</contour>
	</outline>
</glyph>
<glyph name="zero" format="2">
	<unicode hex="0030"/>
	<advance width="490"/>
	<outline>
		<contour>
			<point x="245" y="60" type="curve" smooth="yes"/>
			<point x="142.271" y="60"/>
			<point x="131" y="239.969"/>
			<point x="131" y="351" type="curve" smooth="yes"/>
			<point x="131" y="460.139"/>
			<point x="143.05" y="642"/>
			<point x="245" y="642" type="curve" smooth="yes"/>
			<point x="346.142" y="642"/>
			<point x="359" y="460.111"/>
			<point x="359" y="351" type="curve" smooth="yes"/>
			<point x="359" y="239.671"/>
			<point x="346.354" y="60"/>
		</contour>
		<contour>
			<point x="245" y="-17" type="curve" smooth="yes"/>
			<point x="409.661" y="-17"/>
			<point x="450" y="179.795"/>
			<point x="450" y="351" type="curve" smooth="yes"/>
			<point x="450" y="520.933"/>
			<point x="409.368" y="719"/>
			<point x="245" y="719" type="curve" smooth="yes"/>
			<point x="80.3198" y="719"/>
			<point x="40" y="520.819"/>
			<point x="40" y="351" type="curve" smooth="yes"/>
			<point x="40" y="179.773"/>
			<point x="79.7232" y="-17"/>
		</contour>
	</outline>
</glyph>
<glyph name="one" format="2">
	<unicode hex="0031"/>
	<advance width="490"/>
	<outline>
		<contour>
			<point x="310" y="-8" type="line"/>
			<point x="310" y="711" type="line"/>
			<point x="235" y="711" type="line"/>
			<point x="98" y="623" type="line"/>
			<point x="98" y="535" type="line"/>
			<point x="222" y="610" type="line"/>
			<point x="222" y="-8" type="line"/>
		</contour>
	</outline>
</glyph>
<glyph name="two" format="2">
	<unicode hex="0032"/>
	<advance width="490"/>
	<outline>
		<contour>
			<point x="445" y="0" type="line"/>
			<point x="445" y="82" type="line"/>
			<point x="167" y="82" type="line"/>
			<point x="217" y="134"/>
			<point x="265" y="188"/>
			<point x="310" y="244" type="curve" smooth="yes"/>
			<point x="354" y="299"/>
			<point x="388" y="354"/>
			<point x="412" y="408" type="curve" smooth="yes"/>
			<point x="423.875" y="435.708"/>
			<point x="432" y="476.499"/>
			<point x="432" y="518" type="curve" smooth="yes"/>
			<point x="432" y="635.031"/>
			<point x="363.56" y="716"/>
			<point x="248" y="716" type="curve" smooth="yes"/>
			<point x="117.588" y="716"/>
			<point x="53" y="636.408"/>
			<point x="53" y="510" type="curve"/>
			<point x="145" y="510" type="line"/>
			<point x="145" y="589.853"/>
			<point x="170.357" y="643"/>
			<point x="246" y="643" type="curve" smooth="yes"/>
			<point x="309.7" y="643"/>
			<point x="342" y="581.034"/>
			<point x="342" y="518" type="curve" smooth="yes"/>
			<point x="342" y="489"/>
			<point x="337" y="460"/>
			<point x="327" y="432" type="curve" smooth="yes"/>
			<point x="313" y="392"/>
			<point x="274" y="332"/>
			<point x="209" y="251" type="curve" smooth="yes"/>
			<point x="143" y="169"/>
			<point x="92" y="111"/>
			<point x="54" y="78" type="curve"/>
			<point x="54" y="0" type="line"/>
		</contour>
	</outline>
</glyph>
<glyph name="three" format="2">
	<unicode hex="0033"/>
	<advance width="490"/>
	<outline>
		<contour>
			<point x="447" y="198" type="curve" smooth="yes"/>
			<point x="447" y="229"/>
			<point x="442" y="255"/>
			<point x="434" y="275" type="curve" smooth="yes"/>
			<point x="425" y="294"/>
			<point x="413" y="311"/>
			<point x="399" y="326" type="curve" smooth="yes"/>
			<point x="377" y="348"/>
			<point x="355" y="362"/>
			<point x="335" y="369" type="curve"/>
			<point x="349" y="375"/>
			<point x="369" y="389"/>
			<point x="393" y="412" type="curve" smooth="yes"/>
			<point x="408" y="428"/>
			<point x="419" y="447"/>
			<point x="427" y="469" type="curve" smooth="yes"/>
			<point x="433" y="490"/>
			<point x="437" y="509"/>
			<point x="437" y="527" type="curve" smooth="yes"/>
			<point x="437" y="557"/>
			<point x="432" y="583"/>
			<point x="424" y="606" type="curve" smooth="yes"/>
			<point x="414" y="628"/>
			<point x="400" y="648"/>
			<point x="382" y="666" type="curve" smooth="yes"/>
			<point x="365" y="682"/>
			<point x="343" y="694"/>
			<point x="317" y="702" type="curve" smooth="yes"/>
			<point x="290" y="709"/>
			<point x="265" y="713"/>
			<point x="242" y="714" type="curve" smooth="yes"/>
			<point x="208" y="714"/>
			<point x="179" y="709"/>
			<point x="155" y="699" type="curve" smooth="yes"/>
			<point x="130" y="689"/>
			<point x="110" y="676"/>
			<point x="95" y="661" type="curve" smooth="yes"/>
			<point x="80" y="645"/>
			<point x="69" y="627"/>
			<point x="63" y="607" type="curve" smooth="yes"/>
			<point x="56" y="585"/>
			<point x="53" y="566"/>
			<point x="53" y="548" type="curve"/>
			<point x="143" y="548" type="line"/>
			<point x="145" y="576"/>
			<point x="155" y="598"/>
			<point x="173" y="616" type="curve" smooth="yes"/>
			<point x="191" y="633"/>
			<point x="215" y="642"/>
			<point x="247" y="642" type="curve" smooth="yes"/>
			<point x="271" y="642"/>
			<point x="293" y="632"/>
			<point x="315" y="614" type="curve" smooth="yes"/>
			<point x="336" y="594"/>
			<point x="347" y="565"/>
			<point x="347" y="527" type="curve" smooth="yes"/>
			<point x="347" y="491"/>
			<point x="335" y="462"/>
			<point x="312" y="439" type="curve" smooth="yes"/>
			<point x="288" y="415"/>
			<point x="248" y="404"/>
			<point x="194" y="404" type="curve"/>
			<point x="194" y="333" type="line"/>
			<point x="213" y="333"/>
			<point x="232" y="331"/>
			<point x="251" y="327" type="curve" smooth="yes"/>
			<point x="269" y="323"/>
			<point x="286" y="316"/>
			<point x="302" y="306" type="curve" smooth="yes"/>
			<point x="316" y="296"/>
			<point x="329" y="283"/>
			<point x="341" y="266" type="curve" smooth="yes"/>
			<point x="351" y="248"/>
			<point x="357" y="225"/>
			<point x="357" y="198" type="curve" smooth="yes"/>
			<point x="357" y="156"/>
			<point x="345" y="123"/>
			<point x="323" y="97" type="curve" smooth="yes"/>
			<point x="300" y="70"/>
			<point x="272" y="57"/>
			<point x="239" y="57" type="curve" smooth="yes"/>
			<point x="222" y="57"/>
			<point x="208" y="60"/>
			<point x="196" y="66" type="curve" smooth="yes"/>
			<point x="184" y="71"/>
			<point x="174" y="77"/>
			<point x="167" y="85" type="curve" smooth="yes"/>
			<point x="158" y="93"/>
			<point x="151" y="104"/>
			<point x="147" y="116" type="curve" smooth="yes"/>
			<point x="142" y="128"/>
			<point x="140" y="140"/>
			<point x="140" y="154" type="curve"/>
			<point x="40" y="154" type="line"/>
			<point x="42" y="128"/>
			<point x="48" y="104"/>
			<point x="57" y="84" type="curve" smooth="yes"/>
			<point x="65" y="62"/>
			<point x="77" y="45"/>
			<point x="94" y="31" type="curve" smooth="yes"/>
			<point x="109" y="17"/>
			<point x="129" y="6"/>
			<point x="155" y="-2" type="curve" smooth="yes"/>
			<point x="180" y="-10"/>
			<point x="209" y="-15"/>
			<point x="242" y="-15" type="curve" smooth="yes"/>
			<point x="276" y="-15"/>
			<point x="306" y="-9"/>
			<point x="334" y="3" type="curve" smooth="yes"/>
			<point x="361" y="14"/>
			<point x="383" y="30"/>
			<point x="400" y="52" type="curve" smooth="yes"/>
			<point x="415" y="71"/>
			<point x="427" y="94"/>
			<point x="435" y="122" type="curve" smooth="yes"/>
			<point x="443" y="149"/>
			<point x="447" y="174"/>
		</contour>
	</outline>
</glyph>
<glyph name="four" format="2">
	<unicode hex="0034"/>
	<advance width="514"/>
	<outline>
		<contour>
			<point x="469" y="185" type="line"/>
			<point x="469" y="267" type="line"/>
			<point x="369" y="267" type="line"/>
			<point x="369" y="716" type="line"/>
			<point x="288" y="716" type="line"/>
			<point x="22" y="256" type="line"/>
			<point x="22" y="185" type="line"/>
			<point x="283" y="185" type="line"/>
			<point x="283" y="-3" type="line"/>
			<point x="369" y="-3" type="line"/>
			<point x="369" y="185" type="line"/>
		</contour>
		<contour>
			<point x="283" y="267" type="line"/>
			<point x="116" y="267" type="line"/>
			<point x="283" y="555" type="line"/>
		</contour>
	</outline>
</glyph>
<glyph name="five" format="2">
	<unicode hex="0035"/>
	<advance width="490"/>
	<outline>
		<contour>
			<point x="448" y="211" type="curve" smooth="yes"/>
			<point x="448" y="276"/>
			<point x="431" y="329"/>
			<point x="399" y="371" type="curve" smooth="yes"/>
			<point x="366" y="411"/>
			<point x="317" y="432"/>
			<point x="251" y="432" type="curve" smooth="yes"/>
			<point x="209" y="432"/>
			<point x="176" y="422"/>
			<point x="151" y="402" type="curve"/>
			<point x="164" y="623" type="line"/>
			<point x="411" y="623" type="line"/>
			<point x="411" y="705" type="line"/>
			<point x="82" y="705" type="line"/>
			<point x="63" y="300" type="line"/>
			<point x="149" y="300" type="line"/>
			<point x="157" y="318"/>
			<point x="170" y="333"/>
			<point x="187" y="344" type="curve" smooth="yes"/>
			<point x="203" y="354"/>
			<point x="221" y="359"/>
			<point x="241" y="359" type="curve" smooth="yes"/>
			<point x="273" y="359"/>
			<point x="301" y="346"/>
			<point x="324" y="321" type="curve" smooth="yes"/>
			<point x="346" y="295"/>
			<point x="357" y="259"/>
			<point x="357" y="211" type="curve" smooth="yes"/>
			<point x="355" y="163"/>
			<point x="342" y="125"/>
			<point x="318" y="99" type="curve" smooth="yes"/>
			<point x="294" y="71"/>
			<point x="265" y="58"/>
			<point x="233" y="58" type="curve" smooth="yes"/>
			<point x="215" y="58"/>
			<point x="201" y="61"/>
			<point x="190" y="67" type="curve" smooth="yes"/>
			<point x="178" y="72"/>
			<point x="168" y="78"/>
			<point x="162" y="86" type="curve" smooth="yes"/>
			<point x="155" y="93"/>
			<point x="150" y="102"/>
			<point x="148" y="114" type="curve" smooth="yes"/>
			<point x="144" y="125"/>
			<point x="142" y="136"/>
			<point x="142" y="148" type="curve"/>
			<point x="46" y="148" type="line"/>
			<point x="46" y="126"/>
			<point x="49" y="107"/>
			<point x="56" y="89" type="curve" smooth="yes"/>
			<point x="62" y="70"/>
			<point x="71" y="53"/>
			<point x="85" y="38" type="curve" smooth="yes"/>
			<point x="100" y="22"/>
			<point x="120" y="9"/>
			<point x="145" y="-1" type="curve" smooth="yes"/>
			<point x="169" y="-10"/>
			<point x="198" y="-15"/>
			<point x="233" y="-15" type="curve" smooth="yes"/>
			<point x="266" y="-15"/>
			<point x="297" y="-9"/>
			<point x="325" y="3" type="curve" smooth="yes"/>
			<point x="353" y="15"/>
			<point x="375" y="31"/>
			<point x="393" y="52" type="curve" smooth="yes"/>
			<point x="410" y="72"/>
			<point x="424" y="97"/>
			<point x="434" y="125" type="curve" smooth="yes"/>
			<point x="443" y="152"/>
			<point x="448" y="181"/>
		</contour>
	</outline>
</glyph>
<glyph name="six" format="2">
	<unicode hex="0036"/>
	<advance width="490"/>
	<outline>
		<contour>
			<point x="65" y="122" type="curve" smooth="yes"/>
			<point x="75" y="92"/>
			<point x="88" y="67"/>
			<point x="104" y="47" type="curve" smooth="yes"/>
			<point x="122" y="25"/>
			<point x="144" y="10"/>
			<point x="172" y="0" type="curve" smooth="yes"/>
			<point x="198" y="-10"/>
			<point x="224" y="-15"/>
			<point x="250" y="-15" type="curve" smooth="yes"/>
			<point x="276" y="-15"/>
			<point x="302" y="-10"/>
			<point x="329" y="-1" type="curve" smooth="yes"/>
			<point x="355" y="9"/>
			<point x="378" y="24"/>
			<point x="397" y="46" type="curve" smooth="yes"/>
			<point x="413" y="66"/>
			<point x="426" y="91"/>
			<point x="436" y="121" type="curve" smooth="yes"/>
			<point x="444" y="150"/>
			<point x="449" y="180"/>
			<point x="449" y="212" type="curve" smooth="yes"/>
			<point x="449" y="244"/>
			<point x="444" y="275"/>
			<point x="436" y="305" type="curve" smooth="yes"/>
			<point x="427" y="335"/>
			<point x="414" y="360"/>
			<point x="398" y="380" type="curve" smooth="yes"/>
			<point x="380" y="400"/>
			<point x="359" y="416"/>
			<point x="336" y="426" type="curve" smooth="yes"/>
			<point x="312" y="436"/>
			<point x="284" y="441"/>
			<point x="250" y="441" type="curve" smooth="yes"/>
			<point x="222" y="441"/>
			<point x="195" y="433"/>
			<point x="169" y="418" type="curve" smooth="yes"/>
			<point x="153" y="408"/>
			<point x="140" y="397"/>
			<point x="131" y="384" type="curve"/>
			<point x="131" y="415" type="line" smooth="yes"/>
			<point x="131" y="432"/>
			<point x="133" y="454"/>
			<point x="137" y="482" type="curve" smooth="yes"/>
			<point x="141" y="509"/>
			<point x="147" y="535"/>
			<point x="157" y="560" type="curve" smooth="yes"/>
			<point x="165" y="584"/>
			<point x="178" y="604"/>
			<point x="195" y="620" type="curve" smooth="yes"/>
			<point x="211" y="635"/>
			<point x="229" y="643"/>
			<point x="250" y="643" type="curve" smooth="yes"/>
			<point x="265" y="643"/>
			<point x="279" y="640"/>
			<point x="291" y="635" type="curve" smooth="yes"/>
			<point x="302" y="629"/>
			<point x="311" y="621"/>
			<point x="318" y="613" type="curve" smooth="yes"/>
			<point x="324" y="604"/>
			<point x="329" y="593"/>
			<point x="333" y="581" type="curve" smooth="yes"/>
			<point x="335" y="567"/>
			<point x="337" y="555"/>
			<point x="337" y="545" type="curve"/>
			<point x="437" y="545" type="line"/>
			<point x="437" y="566"/>
			<point x="433" y="587"/>
			<point x="426" y="609" type="curve" smooth="yes"/>
			<point x="418" y="629"/>
			<point x="406" y="647"/>
			<point x="391" y="663" type="curve" smooth="yes"/>
			<point x="375" y="678"/>
			<point x="356" y="691"/>
			<point x="333" y="701" type="curve" smooth="yes"/>
			<point x="309" y="710"/>
			<point x="282" y="715"/>
			<point x="252" y="715" type="curve" smooth="yes"/>
			<point x="208" y="715"/>
			<point x="172" y="704"/>
			<point x="144" y="683" type="curve" smooth="yes"/>
			<point x="116" y="661"/>
			<point x="94" y="632"/>
			<point x="79" y="597" type="curve" smooth="yes"/>
			<point x="65" y="563"/>
			<point x="55" y="526"/>
			<point x="50" y="487" type="curve" smooth="yes"/>
			<point x="44" y="447"/>
			<point x="42" y="406"/>
			<point x="42" y="364" type="curve" smooth="yes"/>
			<point x="42" y="304"/>
			<point x="44" y="255"/>
			<point x="49" y="215" type="curve" smooth="yes"/>
			<point x="53" y="174"/>
			<point x="58" y="143"/>
		</contour>
		<contour>
			<point x="360" y="213" type="curve" smooth="yes"/>
			<point x="360" y="191"/>
			<point x="357" y="171"/>
			<point x="352" y="152" type="curve" smooth="yes"/>
			<point x="346" y="132"/>
			<point x="339" y="115"/>
			<point x="330" y="101" type="curve" smooth="yes"/>
			<point x="320" y="87"/>
			<point x="308" y="76"/>
			<point x="294" y="69" type="curve" smooth="yes"/>
			<point x="280" y="61"/>
			<point x="265" y="58"/>
			<point x="251" y="58" type="curve" smooth="yes"/>
			<point x="236" y="58"/>
			<point x="222" y="61"/>
			<point x="208" y="69" type="curve" smooth="yes"/>
			<point x="194" y="76"/>
			<point x="182" y="87"/>
			<point x="172" y="101" type="curve" smooth="yes"/>
			<point x="162" y="115"/>
			<point x="155" y="132"/>
			<point x="150" y="152" type="curve" smooth="yes"/>
			<point x="144" y="171"/>
			<point x="142" y="191"/>
			<point x="142" y="213" type="curve" smooth="yes"/>
			<point x="142" y="234"/>
			<point x="144" y="255"/>
			<point x="150" y="275" type="curve" smooth="yes"/>
			<point x="155" y="294"/>
			<point x="162" y="311"/>
			<point x="172" y="325" type="curve" smooth="yes"/>
			<point x="182" y="339"/>
			<point x="194" y="349"/>
			<point x="208" y="357" type="curve" smooth="yes"/>
			<point x="222" y="364"/>
			<point x="236" y="368"/>
			<point x="251" y="368" type="curve" smooth="yes"/>
			<point x="265" y="368"/>
			<point x="280" y="364"/>
			<point x="294" y="357" type="curve" smooth="yes"/>
			<point x="308" y="349"/>
			<point x="320" y="339"/>
			<point x="330" y="325" type="curve" smooth="yes"/>
			<point x="339" y="311"/>
			<point x="346" y="294"/>
			<point x="352" y="275" type="curve" smooth="yes"/>
			<point x="357" y="255"/>
			<point x="360" y="234"/>
		</contour>
	</outline>
</glyph>
<glyph name="seven" format="2">
	<unicode hex="0037"/>
	<advance width="509"/>
	<outline>
		<contour>
			<point x="443" y="626" type="line"/>
			<point x="443" y="701" type="line"/>
			<point x="45" y="701" type="line"/>
			<point x="45" y="617" type="line"/>
			<point x="347" y="617" type="line"/>
			<point x="115" y="-8" type="line"/>
			<point x="208" y="-8" type="line"/>
		</contour>
	</outline>
</glyph>
<glyph name="eight" format="2">
	<unicode hex="0038"/>
	<advance width="490"/>
	<outline>
		<contour>
			<point x="350" y="523" type="curve" smooth="yes"/>
			<point x="350" y="455.738"/>
			<point x="308.059" y="403"/>
			<point x="244" y="403" type="curve" smooth="yes"/>
			<point x="180.49" y="403"/>
			<point x="140" y="456.917"/>
			<point x="140" y="523" type="curve" smooth="yes"/>
			<point x="140" y="588.437"/>
			<point x="180.941" y="644"/>
			<point x="244" y="644" type="curve" smooth="yes"/>
			<point x="307.143" y="644"/>
			<point x="350" y="589.59"/>
		</contour>
		<contour>
			<point x="439" y="523" type="curve" smooth="yes"/>
			<point x="439" y="637.054"/>
			<point x="357.68" y="715"/>
			<point x="244" y="715" type="curve" smooth="yes"/>
			<point x="129.605" y="715"/>
			<point x="51" y="636.175"/>
			<point x="51" y="523" type="curve" smooth="yes"/>
			<point x="51" y="448.298"/>
			<point x="84.1756" y="390.912"/>
			<point x="136" y="365" type="curve"/>
			<point x="77.3135" y="339.849"/>
			<point x="39" y="272.485"/>
			<point x="39" y="192" type="curve" smooth="yes"/>
			<point x="39" y="64.4021"/>
			<point x="115.913" y="-16"/>
			<point x="244" y="-16" type="curve" smooth="yes"/>
			<point x="371.435" y="-16"/>
			<point x="449" y="63.6061"/>
			<point x="449" y="192" type="curve" smooth="yes"/>
			<point x="449" y="272.327"/>
			<point x="410.307" y="340.011"/>
			<point x="352" y="365" type="curve"/>
			<point x="403.497" y="390.748"/>
			<point x="439" y="447.316"/>
		</contour>
		<contour>
			<point x="244" y="59" type="curve" smooth="yes"/>
			<point x="174.024" y="59"/>
			<point x="129" y="118.523"/>
			<point x="129" y="192" type="curve" smooth="yes"/>
			<point x="129" y="264.219"/>
			<point x="173.515" y="328"/>
			<point x="244" y="328" type="curve" smooth="yes"/>
			<point x="314.543" y="328"/>
			<point x="359" y="265.309"/>
			<point x="359" y="192" type="curve" smooth="yes"/>
			<point x="359" y="118.488"/>
			<point x="313.522" y="59"/>
		</contour>
	</outline>
</glyph>
<glyph name="nine" format="2">
	<unicode hex="0039"/>
	<advance width="490"/>
	<outline>
		<contour>
			<point x="425" y="578" type="curve" smooth="yes"/>
			<point x="415" y="607"/>
			<point x="402" y="632"/>
			<point x="386" y="653" type="curve" smooth="yes"/>
			<point x="368" y="674"/>
			<point x="345" y="690"/>
			<point x="319" y="700" type="curve" smooth="yes"/>
			<point x="291" y="710"/>
			<point x="265" y="715"/>
			<point x="240" y="715" type="curve" smooth="yes"/>
			<point x="214" y="715"/>
			<point x="187" y="710"/>
			<point x="161" y="701" type="curve" smooth="yes"/>
			<point x="134" y="691"/>
			<point x="111" y="675"/>
			<point x="93" y="654" type="curve" smooth="yes"/>
			<point x="76" y="634"/>
			<point x="63" y="609"/>
			<point x="55" y="580" type="curve" smooth="yes"/>
			<point x="45" y="550"/>
			<point x="41" y="519"/>
			<point x="41" y="488" type="curve" smooth="yes"/>
			<point x="41" y="456"/>
			<point x="45" y="425"/>
			<point x="54" y="395" type="curve" smooth="yes"/>
			<point x="62" y="365"/>
			<point x="75" y="340"/>
			<point x="92" y="320" type="curve" smooth="yes"/>
			<point x="110" y="299"/>
			<point x="130" y="284"/>
			<point x="154" y="274" type="curve" smooth="yes"/>
			<point x="177" y="264"/>
			<point x="206" y="259"/>
			<point x="240" y="259" type="curve" smooth="yes"/>
			<point x="268" y="259"/>
			<point x="295" y="266"/>
			<point x="321" y="282" type="curve" smooth="yes"/>
			<point x="337" y="291"/>
			<point x="349" y="302"/>
			<point x="359" y="316" type="curve"/>
			<point x="359" y="285" type="line" smooth="yes"/>
			<point x="359" y="267"/>
			<point x="357" y="245"/>
			<point x="353" y="218" type="curve" smooth="yes"/>
			<point x="349" y="190"/>
			<point x="342" y="164"/>
			<point x="333" y="140" type="curve" smooth="yes"/>
			<point x="324" y="115"/>
			<point x="312" y="95"/>
			<point x="296" y="80" type="curve" smooth="yes"/>
			<point x="279" y="64"/>
			<point x="260" y="57"/>
			<point x="240" y="57" type="curve" smooth="yes"/>
			<point x="224" y="57"/>
			<point x="211" y="60"/>
			<point x="200" y="66" type="curve" smooth="yes"/>
			<point x="188" y="71"/>
			<point x="178" y="78"/>
			<point x="172" y="87" type="curve" smooth="yes"/>
			<point x="165" y="95"/>
			<point x="160" y="106"/>
			<point x="158" y="120" type="curve" smooth="yes"/>
			<point x="154" y="132"/>
			<point x="153" y="144"/>
			<point x="153" y="155" type="curve"/>
			<point x="53" y="155" type="line"/>
			<point x="53" y="133"/>
			<point x="57" y="112"/>
			<point x="65" y="92" type="curve" smooth="yes"/>
			<point x="72" y="70"/>
			<point x="83" y="52"/>
			<point x="99" y="37" type="curve" smooth="yes"/>
			<point x="114" y="21"/>
			<point x="134" y="9"/>
			<point x="158" y="-1" type="curve" smooth="yes"/>
			<point x="181" y="-10"/>
			<point x="208" y="-15"/>
			<point x="238" y="-15" type="curve" smooth="yes"/>
			<point x="282" y="-15"/>
			<point x="318" y="-4"/>
			<point x="346" y="18" type="curve" smooth="yes"/>
			<point x="374" y="39"/>
			<point x="395" y="67"/>
			<point x="411" y="103" type="curve" smooth="yes"/>
			<point x="425" y="137"/>
			<point x="434" y="174"/>
			<point x="440" y="214" type="curve" smooth="yes"/>
			<point x="445" y="253"/>
			<point x="448" y="294"/>
			<point x="448" y="336" type="curve" smooth="yes"/>
			<point x="448" y="395"/>
			<point x="446" y="445"/>
			<point x="442" y="486" type="curve" smooth="yes"/>
			<point x="437" y="526"/>
			<point x="431" y="556"/>
		</contour>
		<contour>
			<point x="130" y="487" type="curve" smooth="yes"/>
			<point x="130" y="508"/>
			<point x="132" y="529"/>
			<point x="138" y="549" type="curve" smooth="yes"/>
			<point x="143" y="568"/>
			<point x="150" y="585"/>
			<point x="160" y="599" type="curve" smooth="yes"/>
			<point x="170" y="613"/>
			<point x="182" y="623"/>
			<point x="196" y="631" type="curve" smooth="yes"/>
			<point x="210" y="638"/>
			<point x="224" y="642"/>
			<point x="239" y="642" type="curve" smooth="yes"/>
			<point x="253" y="642"/>
			<point x="268" y="638"/>
			<point x="282" y="631" type="curve" smooth="yes"/>
			<point x="296" y="623"/>
			<point x="308" y="613"/>
			<point x="318" y="599" type="curve" smooth="yes"/>
			<point x="327" y="585"/>
			<point x="334" y="568"/>
			<point x="340" y="549" type="curve" smooth="yes"/>
			<point x="345" y="529"/>
			<point x="348" y="508"/>
			<point x="348" y="487" type="curve" smooth="yes"/>
			<point x="348" y="465"/>
			<point x="345" y="445"/>
			<point x="340" y="426" type="curve" smooth="yes"/>
			<point x="334" y="406"/>
			<point x="327" y="389"/>
			<point x="318" y="375" type="curve" smooth="yes"/>
			<point x="308" y="361"/>
			<point x="296" y="350"/>
			<point x="282" y="343" type="curve" smooth="yes"/>
			<point x="268" y="335"/>
			<point x="253" y="332"/>
			<point x="239" y="332" type="curve" smooth="yes"/>
			<point x="224" y="332"/>
			<point x="210" y="335"/>
			<point x="196" y="343" type="curve" smooth="yes"/>
			<point x="182" y="350"/>
			<point x="170" y="361"/>
			<point x="160" y="375" type="curve" smooth="yes"/>
			<point x="150" y="389"/>
			<point x="143" y="406"/>
			<point x="138" y="426" type="curve" smooth="yes"/>
			<point x="132" y="445"/>
			<point x="130" y="465"/>
		</contour>
	</outline>
</glyph>
<glyph name="colon" format="2">
  <advance width="362"/>
  <unicode hex="003A"/>
  <outline>
    <contour>
      <point x="238" y="66" type="line"/>
      <point x="238" y="185" type="line"/>
      <point x="124" y="185" type="line"/>
      <point x="124" y="66" type="line"/>
    </contour>
    <contour>
      <point x="238" y="461" type="line"/>
      <point x="238" y="580" type="line"/>
      <point x="124" y="580" type="line"/>
      <point x="124" y="461" type="line"/>
    </contour>
  </outline>
</glyph>
<glyph name="semicolon" format="2">
	<unicode hex="003B"/>
	<advance width="376"/>
	<outline>
		<contour>
			<point x="240" y="185" type="line"/>
			<point x="131" y="185" type="line"/>
			<point x="108" y="-51" type="line"/>
			<point x="188" y="-51" type="line"/>
		</contour>
		<contour>
			<point x="238" y="461" type="line"/>
			<point x="238" y="580" type="line"/>
			<point x="124" y="580" type="line"/>
			<point x="124" y="461" type="line"/>
		</contour>
	</outline>
</glyph>
<glyph name="less" format="2">
	<unicode hex="003C"/>
	<advance width="549"/>
	<outline>
		<contour>
			<point x="82" y="328" type="line"/>
			<point x="475" y="-28" type="line"/>
			<point x="475" y="68" type="line"/>
			<point x="152" y="362" type="line"/>
			<point x="475" y="657" type="line"/>
			<point x="475" y="753" type="line"/>
			<point x="82" y="397" type="line"/>
		</contour>
	</outline>
</glyph>
<glyph name="equal" format="2">
	<unicode hex="003D"/>
	<advance width="524"/>
	<outline>
		<contour>
			<point x="477" y="430" type="line"/>
			<point x="477" y="507" type="line"/>
			<point x="46" y="507" type="line"/>
			<point x="46" y="430" type="line"/>
		</contour>
		<contour>
			<point x="477" y="218" type="line"/>
			<point x="477" y="295" type="line"/>
			<point x="46" y="295" type="line"/>
			<point x="46" y="218" type="line"/>
		</contour>
	</outline>
</glyph>
<glyph name="greater" format="2">
  <advance width="524"/>
  <unicode hex="003E"/>
  <outline>
    <contour>
      <point x="442" y="328" type="line"/>
      <point x="442" y="397" type="line"/>
      <point x="49" y="753" type="line"/>
      <point x="49" y="657" type="line"/>
      <point x="372" y="362" type="line"/>
      <point x="49" y="68" type="line"/>
      <point x="49" y="-28" type="line"/>
    </contour>
  </outline>
</glyph>
<glyph name="question" format="2">
  <advance width="415"/>
  <unicode hex="003F"/>
  <outline>
    <contour>
      <point x="389" y="570" type="curve" smooth="yes"/>
      <point x="389" y="600"/>
      <point x="383" y="627"/>
      <point x="371" y="651" type="curve" smooth="yes"/>
      <point x="358" y="673"/>
      <point x="342" y="692"/>
      <point x="323" y="706" type="curve" smooth="yes"/>
      <point x="303" y="720"/>
      <point x="281" y="731"/>
      <point x="257" y="738" type="curve" smooth="yes"/>
      <point x="232" y="744"/>
      <point x="209" y="748"/>
      <point x="187" y="748" type="curve" smooth="yes"/>
      <point x="171" y="748"/>
      <point x="156" y="747"/>
      <point x="142" y="745" type="curve" smooth="yes"/>
      <point x="127" y="742"/>
      <point x="114" y="739"/>
      <point x="103" y="737" type="curve" smooth="yes"/>
      <point x="91" y="734"/>
      <point x="78" y="731"/>
      <point x="66" y="728" type="curve" smooth="yes"/>
      <point x="52" y="724"/>
      <point x="40" y="720"/>
      <point x="30" y="716" type="curve"/>
      <point x="30" y="623" type="line"/>
      <point x="44" y="631"/>
      <point x="58" y="637"/>
      <point x="71" y="642" type="curve" smooth="yes"/>
      <point x="83" y="646"/>
      <point x="96" y="651"/>
      <point x="109" y="655" type="curve" smooth="yes"/>
      <point x="122" y="659"/>
      <point x="135" y="662"/>
      <point x="148" y="665" type="curve" smooth="yes"/>
      <point x="160" y="667"/>
      <point x="172" y="668"/>
      <point x="185" y="668" type="curve" smooth="yes"/>
      <point x="199" y="668"/>
      <point x="213" y="665"/>
      <point x="227" y="661" type="curve" smooth="yes"/>
      <point x="240" y="655"/>
      <point x="252" y="648"/>
      <point x="263" y="640" type="curve" smooth="yes"/>
      <point x="273" y="631"/>
      <point x="281" y="620"/>
      <point x="288" y="608" type="curve" smooth="yes"/>
      <point x="294" y="594"/>
      <point x="297" y="581"/>
      <point x="297" y="567" type="curve" smooth="yes"/>
      <point x="297" y="552"/>
      <point x="293" y="537"/>
      <point x="286" y="521" type="curve" smooth="yes"/>
      <point x="278" y="504"/>
      <point x="268" y="489"/>
      <point x="258" y="475" type="curve" smooth="yes"/>
      <point x="246" y="459"/>
      <point x="235" y="445"/>
      <point x="223" y="433" type="curve" smooth="yes"/>
      <point x="210" y="419"/>
      <point x="199" y="408"/>
      <point x="189" y="398" type="curve" smooth="yes"/>
      <point x="169" y="375"/>
      <point x="154" y="353"/>
      <point x="144" y="333" type="curve" smooth="yes"/>
      <point x="132" y="312"/>
      <point x="127" y="280"/>
      <point x="127" y="238" type="curve" smooth="yes"/>
      <point x="127" y="172" type="line"/>
      <point x="212" y="172" type="line"/>
      <point x="212" y="216" type="line" smooth="yes"/>
      <point x="212" y="239"/>
      <point x="213" y="256"/>
      <point x="216" y="268" type="curve" smooth="yes"/>
      <point x="218" y="278"/>
      <point x="221" y="289"/>
      <point x="226" y="300" type="curve" smooth="yes"/>
      <point x="230" y="309"/>
      <point x="236" y="318"/>
      <point x="243" y="327" type="curve" smooth="yes"/>
      <point x="249" y="335"/>
      <point x="257" y="344"/>
      <point x="265" y="355" type="curve" smooth="yes"/>
      <point x="271" y="362"/>
      <point x="281" y="373"/>
      <point x="295" y="388" type="curve" smooth="yes"/>
      <point x="308" y="402"/>
      <point x="322" y="418"/>
      <point x="336" y="437" type="curve" smooth="yes"/>
      <point x="349" y="454"/>
      <point x="361" y="474"/>
      <point x="373" y="498" type="curve" smooth="yes"/>
      <point x="383" y="521"/>
      <point x="389" y="545"/>
    </contour>
    <contour>
      <point x="228" y="-40" type="line"/>
      <point x="228" y="79" type="line"/>
      <point x="114" y="79" type="line"/>
      <point x="114" y="-40" type="line"/>
    </contour>
  </outline>
</glyph>
<glyph name="at" format="2">
	<unicode hex="0040"/>
	<advance width="890"/>
	<outline>
		<contour>
			<point x="824" y="332" type="curve" smooth="yes"/>
			<point x="828" y="416"/>
			<point x="810" y="490"/>
			<point x="772" y="556" type="curve" smooth="yes"/>
			<point x="733" y="621"/>
			<point x="682" y="665"/>
			<point x="620" y="689" type="curve" smooth="yes"/>
			<point x="579" y="705"/>
			<point x="538" y="714"/>
			<point x="497" y="716" type="curve" smooth="yes"/>
			<point x="455" y="717"/>
			<point x="416" y="712"/>
			<point x="378" y="700" type="curve" smooth="yes"/>
			<point x="341" y="687"/>
			<point x="307" y="669"/>
			<point x="275" y="647" type="curve" smooth="yes"/>
			<point x="243" y="623"/>
			<point x="213" y="594"/>
			<point x="185" y="558" type="curve" smooth="yes"/>
			<point x="155" y="520"/>
			<point x="132" y="479"/>
			<point x="115" y="435" type="curve" smooth="yes"/>
			<point x="97" y="391"/>
			<point x="85" y="348"/>
			<point x="77" y="308" type="curve" smooth="yes"/>
			<point x="69" y="266"/>
			<point x="67" y="223"/>
			<point x="70" y="179" type="curve" smooth="yes"/>
			<point x="72" y="134"/>
			<point x="81" y="94"/>
			<point x="95" y="59" type="curve" smooth="yes"/>
			<point x="124" y="-13"/>
			<point x="170" y="-67"/>
			<point x="233" y="-105" type="curve" smooth="yes"/>
			<point x="295" y="-142"/>
			<point x="367" y="-161"/>
			<point x="449" y="-161" type="curve" smooth="yes"/>
			<point x="497" y="-161"/>
			<point x="539" y="-155"/>
			<point x="576" y="-144" type="curve" smooth="yes"/>
			<point x="612" y="-132"/>
			<point x="642" y="-118"/>
			<point x="666" y="-103" type="curve" smooth="yes"/>
			<point x="690" y="-87"/>
			<point x="709" y="-73"/>
			<point x="723" y="-61" type="curve" smooth="yes"/>
			<point x="737" y="-47"/>
			<point x="746" y="-36"/>
			<point x="752" y="-28" type="curve"/>
			<point x="716" y="19" type="line"/>
			<point x="704" y="7"/>
			<point x="691" y="-4"/>
			<point x="676" y="-16" type="curve" smooth="yes"/>
			<point x="660" y="-27"/>
			<point x="644" y="-38"/>
			<point x="626" y="-49" type="curve" smooth="yes"/>
			<point x="604" y="-62"/>
			<point x="578" y="-73"/>
			<point x="549" y="-81" type="curve" smooth="yes"/>
			<point x="519" y="-88"/>
			<point x="486" y="-92"/>
			<point x="452" y="-92" type="curve" smooth="yes"/>
			<point x="380" y="-92"/>
			<point x="321" y="-75"/>
			<point x="275" y="-43" type="curve" smooth="yes"/>
			<point x="228" y="-10"/>
			<point x="194" y="31"/>
			<point x="174" y="83" type="curve" smooth="yes"/>
			<point x="162" y="111"/>
			<point x="155" y="144"/>
			<point x="154" y="181" type="curve" smooth="yes"/>
			<point x="152" y="217"/>
			<point x="154" y="253"/>
			<point x="161" y="287" type="curve" smooth="yes"/>
			<point x="167" y="319"/>
			<point x="176" y="353"/>
			<point x="189" y="391" type="curve" smooth="yes"/>
			<point x="201" y="427"/>
			<point x="220" y="464"/>
			<point x="246" y="502" type="curve" smooth="yes"/>
			<point x="265" y="529"/>
			<point x="288" y="554"/>
			<point x="316" y="577" type="curve" smooth="yes"/>
			<point x="343" y="599"/>
			<point x="372" y="615"/>
			<point x="404" y="627" type="curve" smooth="yes"/>
			<point x="433" y="638"/>
			<point x="464" y="644"/>
			<point x="496" y="644" type="curve" smooth="yes"/>
			<point x="528" y="644"/>
			<point x="560" y="637"/>
			<point x="594" y="624" type="curve" smooth="yes"/>
			<point x="643" y="603"/>
			<point x="682" y="565"/>
			<point x="712" y="509" type="curve" smooth="yes"/>
			<point x="740" y="452"/>
			<point x="753" y="393"/>
			<point x="751" y="333" type="curve" smooth="yes"/>
			<point x="750" y="312"/>
			<point x="746" y="286"/>
			<point x="738" y="254" type="curve" smooth="yes"/>
			<point x="729" y="221"/>
			<point x="719" y="194"/>
			<point x="709" y="174" type="curve" smooth="yes"/>
			<point x="699" y="157"/>
			<point x="688" y="141"/>
			<point x="674" y="126" type="curve" smooth="yes"/>
			<point x="659" y="110"/>
			<point x="645" y="97"/>
			<point x="632" y="89" type="curve" smooth="yes"/>
			<point x="604" y="71"/>
			<point x="583" y="64"/>
			<point x="571" y="70" type="curve" smooth="yes"/>
			<point x="557" y="74"/>
			<point x="555" y="92"/>
			<point x="565" y="123" type="curve" smooth="yes"/>
			<point x="581" y="171"/>
			<point x="602" y="233"/>
			<point x="630" y="311" type="curve" smooth="yes"/>
			<point x="657" y="388"/>
			<point x="676" y="443"/>
			<point x="688" y="477" type="curve"/>
			<point x="603" y="477" type="line"/>
			<point x="588" y="434" type="line"/>
			<point x="583" y="449"/>
			<point x="573" y="464"/>
			<point x="557" y="478" type="curve" smooth="yes"/>
			<point x="541" y="491"/>
			<point x="517" y="498"/>
			<point x="486" y="498" type="curve" smooth="yes"/>
			<point x="452" y="498"/>
			<point x="420" y="486"/>
			<point x="390" y="462" type="curve" smooth="yes"/>
			<point x="359" y="437"/>
			<point x="333" y="408"/>
			<point x="312" y="375" type="curve" smooth="yes"/>
			<point x="286" y="336"/>
			<point x="269" y="299"/>
			<point x="260" y="263" type="curve" smooth="yes"/>
			<point x="250" y="227"/>
			<point x="244" y="196"/>
			<point x="243" y="172" type="curve" smooth="yes"/>
			<point x="241" y="143"/>
			<point x="244" y="118"/>
			<point x="251" y="97" type="curve" smooth="yes"/>
			<point x="257" y="75"/>
			<point x="267" y="57"/>
			<point x="279" y="42" type="curve" smooth="yes"/>
			<point x="290" y="28"/>
			<point x="304" y="19"/>
			<point x="322" y="13" type="curve" smooth="yes"/>
			<point x="338" y="6"/>
			<point x="355" y="3"/>
			<point x="373" y="3" type="curve" smooth="yes"/>
			<point x="390" y="3"/>
			<point x="405" y="5"/>
			<point x="419" y="11" type="curve" smooth="yes"/>
			<point x="432" y="15"/>
			<point x="442" y="20"/>
			<point x="450" y="26" type="curve" smooth="yes"/>
			<point x="458" y="32"/>
			<point x="465" y="38"/>
			<point x="471" y="44" type="curve" smooth="yes"/>
			<point x="476" y="50"/>
			<point x="480" y="54"/>
			<point x="482" y="57" type="curve"/>
			<point x="482" y="37"/>
			<point x="489" y="21"/>
			<point x="503" y="9" type="curve" smooth="yes"/>
			<point x="515" y="-4"/>
			<point x="535" y="-10"/>
			<point x="563" y="-8" type="curve" smooth="yes"/>
			<point x="592" y="-6"/>
			<point x="622" y="4"/>
			<point x="653" y="23" type="curve" smooth="yes"/>
			<point x="704" y="53"/>
			<point x="745" y="95"/>
			<point x="775" y="149" type="curve" smooth="yes"/>
			<point x="804" y="203"/>
			<point x="820" y="264"/>
		</contour>
		<contour>
			<point x="546" y="363" type="curve" smooth="yes"/>
			<point x="546" y="351"/>
			<point x="543" y="331"/>
			<point x="537" y="303" type="curve" smooth="yes"/>
			<point x="531" y="274"/>
			<point x="520" y="240"/>
			<point x="504" y="201" type="curve" smooth="yes"/>
			<point x="488" y="159"/>
			<point x="469" y="127"/>
			<point x="448" y="106" type="curve" smooth="yes"/>
			<point x="426" y="84"/>
			<point x="404" y="74"/>
			<point x="382" y="74" type="curve" smooth="yes"/>
			<point x="374" y="74"/>
			<point x="369" y="75"/>
			<point x="365" y="77" type="curve" smooth="yes"/>
			<point x="360" y="78"/>
			<point x="355" y="81"/>
			<point x="350" y="86" type="curve" smooth="yes"/>
			<point x="342" y="92"/>
			<point x="336" y="102"/>
			<point x="332" y="115" type="curve" smooth="yes"/>
			<point x="328" y="127"/>
			<point x="327" y="145"/>
			<point x="330" y="167" type="curve" smooth="yes"/>
			<point x="332" y="191"/>
			<point x="338" y="215"/>
			<point x="346" y="239" type="curve" smooth="yes"/>
			<point x="353" y="263"/>
			<point x="363" y="287"/>
			<point x="376" y="311" type="curve" smooth="yes"/>
			<point x="396" y="347"/>
			<point x="417" y="377"/>
			<point x="441" y="399" type="curve" smooth="yes"/>
			<point x="464" y="420"/>
			<point x="483" y="431"/>
			<point x="499" y="431" type="curve" smooth="yes"/>
			<point x="513" y="431"/>
			<point x="525" y="424"/>
			<point x="534" y="410" type="curve" smooth="yes"/>
			<point x="542" y="395"/>
			<point x="546" y="379"/>
		</contour>
	</outline>
</glyph>
<glyph name="A" format="2">
	<unicode hex="0041"/>
	<advance width="597"/>
	<outline>
		<contour>
			<point x="558" y="0" type="line"/>
			<point x="331" y="713" type="line"/>
			<point x="238" y="713" type="line"/>
			<point x="11" y="0" type="line"/>
			<point x="105" y="0" type="line"/>
			<point x="171" y="219" type="line"/>
			<point x="397" y="219" type="line"/>
			<point x="464" y="0" type="line"/>
		</contour>
		<contour>
			<point x="373" y="300" type="line"/>
			<point x="196" y="300" type="line"/>
			<point x="285" y="593" type="line"/>
		</contour>
	</outline>
</glyph>
<glyph name="B" format="2">
	<unicode hex="0042"/>
	<advance width="555"/>
	<outline>
		<contour>
			<point x="492" y="205" type="curve" smooth="yes"/>
			<point x="492" y="300.993"/>
			<point x="436.924" y="355.359"/>
			<point x="369" y="378" type="curve"/>
			<point x="420.833" y="397.936"/>
			<point x="466" y="448.866"/>
			<point x="466" y="523" type="curve" smooth="yes"/>
			<point x="466" y="648.832"/>
			<point x="377.767" y="713"/>
			<point x="250" y="713" type="curve" smooth="yes"/>
			<point x="62" y="713" type="line"/>
			<point x="62" y="0" type="line"/>
			<point x="261" y="0" type="line" smooth="yes"/>
			<point x="399.688" y="0"/>
			<point x="492" y="65.3872"/>
		</contour>
		<contour>
			<point x="151" y="79" type="line"/>
			<point x="151" y="334" type="line"/>
			<point x="248" y="334" type="line" smooth="yes"/>
			<point x="338.907" y="334"/>
			<point x="402" y="291.897"/>
			<point x="402" y="205" type="curve" smooth="yes"/>
			<point x="402" y="116.169"/>
			<point x="340.651" y="79"/>
			<point x="248" y="79" type="curve" smooth="yes"/>
		</contour>
		<contour>
			<point x="376" y="523" type="curve" smooth="yes"/>
			<point x="376" y="450.429"/>
			<point x="322.57" y="413"/>
			<point x="251" y="413" type="curve" smooth="yes"/>
			<point x="151" y="413" type="line"/>
			<point x="151" y="634" type="line"/>
			<point x="228" y="634" type="line" smooth="yes"/>
			<point x="315.19" y="634"/>
			<point x="376" y="609.577"/>
		</contour>
	</outline>
</glyph>
<glyph name="C" format="2">
	<unicode hex="0043"/>
	<advance width="595"/>
	<outline>
		<contour>
			<point x="544" y="509" type="line"/>
			<point x="544" y="640.669"/>
			<point x="451.168" y="726"/>
			<point x="321" y="726" type="curve" smooth="yes"/>
			<point x="124.07" y="726"/>
			<point x="31" y="563.414"/>
			<point x="31" y="368" type="curve" smooth="yes"/>
			<point x="31" y="164.524"/>
			<point x="121.236" y="-12"/>
			<point x="324" y="-12" type="curve" smooth="yes"/>
			<point x="402.345" y="-12"/>
			<point x="472.84" y="3.89987"/>
			<point x="521" y="34" type="curve"/>
			<point x="521" y="132" type="line"/>
			<point x="473.19" y="96.1428"/>
			<point x="417.69" y="67"/>
			<point x="343" y="67" type="curve" smooth="yes"/>
			<point x="185.301" y="67"/>
			<point x="123" y="214.771"/>
			<point x="123" y="368" type="curve" smooth="yes"/>
			<point x="123" y="508.834"/>
			<point x="182.46" y="647"/>
			<point x="321" y="647" type="curve"/>
			<point x="401.022" y="641.665"/>
			<point x="449" y="596.826"/>
			<point x="449" y="509" type="curve"/>
		</contour>
	</outline>
</glyph>
<glyph name="D" format="2">
	<unicode hex="0044"/>
	<advance width="607"/>
	<outline>
		<contour>
			<point x="151" y="632" type="line"/>
			<point x="216" y="632" type="line" smooth="yes"/>
			<point x="384.691" y="632"/>
			<point x="451" y="526.056"/>
			<point x="451" y="356" type="curve" smooth="yes"/>
			<point x="451" y="185.71"/>
			<point x="383.686" y="81"/>
			<point x="216" y="81" type="curve" smooth="yes"/>
			<point x="151" y="81" type="line"/>
		</contour>
		<contour>
			<point x="62" y="713" type="line"/>
			<point x="62" y="0" type="line"/>
			<point x="214" y="0" type="line" smooth="yes"/>
			<point x="436.714" y="0"/>
			<point x="541" y="131.951"/>
			<point x="541" y="356" type="curve" smooth="yes"/>
			<point x="541" y="579.951"/>
			<point x="437.571" y="713"/>
			<point x="214" y="713" type="curve" smooth="yes"/>
		</contour>
	</outline>
</glyph>
<glyph name="E" format="2">
	<unicode hex="0045"/>
	<advance width="499"/>
	<outline>
		<contour>
			<point x="438" y="0" type="line"/>
			<point x="438" y="81" type="line"/>
			<point x="152" y="81" type="line"/>
			<point x="152" y="332" type="line"/>
			<point x="418" y="332" type="line"/>
			<point x="418" y="413" type="line"/>
			<point x="152" y="413" type="line"/>
			<point x="152" y="632" type="line"/>
			<point x="430" y="632" type="line"/>
			<point x="430" y="713" type="line"/>
			<point x="62" y="713" type="line"/>
			<point x="62" y="0" type="line"/>
		</contour>
	</outline>
</glyph>
<glyph name="G" format="2">
	<unicode hex="0047"/>
	<advance width="599"/>
	<outline>
		<contour>
			<point x="544" y="509" type="line"/>
			<point x="544" y="640.669"/>
			<point x="451.168" y="726"/>
			<point x="321" y="726" type="curve" smooth="yes"/>
			<point x="124.48" y="726"/>
			<point x="31" y="564.099"/>
			<point x="31" y="369" type="curve" smooth="yes"/>
			<point x="31" y="166.55"/>
			<point x="120.994" y="-11"/>
			<point x="324" y="-11" type="curve" smooth="yes"/>
			<point x="418.182" y="-11"/>
			<point x="473.723" y="6.08026"/>
			<point x="538" y="42" type="curve"/>
			<point x="538" y="386" type="line"/>
			<point x="295" y="386" type="line"/>
			<point x="295" y="304" type="line"/>
			<point x="448" y="304" type="line"/>
			<point x="448" y="88" type="line"/>
			<point x="436.442" y="76.4419"/>
			<point x="369.512" y="68"/>
			<point x="343" y="68" type="curve" smooth="yes"/>
			<point x="184.395" y="68"/>
			<point x="123" y="216.001"/>
			<point x="123" y="369" type="curve" smooth="yes"/>
			<point x="123" y="509.59"/>
			<point x="182.614" y="647"/>
			<point x="321" y="647" type="curve"/>
			<point x="401.022" y="641.665"/>
			<point x="449" y="596.826"/>
			<point x="449" y="509" type="curve"/>
		</contour>
	</outline>
</glyph>
<glyph name="H" format="2">
	<unicode hex="0048"/>
	<advance width="608"/>
	<outline>
		<contour>
			<point x="517" y="0" type="line"/>
			<point x="517" y="713" type="line"/>
			<point x="427" y="713" type="line"/>
			<point x="427" y="411" type="line"/>
			<point x="152" y="411" type="line"/>
			<point x="152" y="713" type="line"/>
			<point x="62" y="713" type="line"/>
			<point x="62" y="0" type="line"/>
			<point x="152" y="0" type="line"/>
			<point x="152" y="330" type="line"/>
			<point x="427" y="330" type="line"/>
			<point x="427" y="0" type="line"/>
		</contour>
	</outline>
</glyph>
<glyph name="I" format="2">
	<unicode hex="0049"/>
	<advance width="230"/>
	<outline>
		<contour>
			<point x="156" y="0" type="line"/>
			<point x="156" y="713" type="line"/>
			<point x="66" y="713" type="line"/>
			<point x="66" y="0" type="line"/>
		</contour>
	</outline>
</glyph>
<glyph name="J" format="2">
	<unicode hex="004A"/>
	<advance width="359"/>
	<outline>
		<contour>
			<point x="281" y="161" type="curve" smooth="yes"/>
			<point x="281" y="713" type="line"/>
			<point x="191" y="713" type="line"/>
			<point x="191" y="172" type="line" smooth="yes"/>
			<point x="191" y="112.641"/>
			<point x="162.848" y="69"/>
			<point x="109" y="69" type="curve" smooth="yes"/>
			<point x="105" y="69"/>
			<point x="101" y="69"/>
			<point x="98" y="69" type="curve" smooth="yes"/>
			<point x="64.1706" y="69"/>
			<point x="31.0807" y="78.4374"/>
			<point x="3" y="90" type="curve"/>
			<point x="3" y="3" type="line"/>
			<point x="32.4053" y="-6.80177"/>
			<point x="53.4245" y="-11"/>
			<point x="92" y="-11" type="curve" smooth="yes"/>
			<point x="209.863" y="-11"/>
			<point x="281" y="45.6978"/>
		</contour>
	</outline>
</glyph>
<glyph name="K" format="2">
	<unicode hex="004B"/>
	<advance width="540"/>
	<outline>
		<contour>
			<point x="523" y="0" type="line"/>
			<point x="221" y="378" type="line"/>
			<point x="500" y="713" type="line"/>
			<point x="392" y="713" type="line"/>
			<point x="150" y="421" type="line"/>
			<point x="150" y="713" type="line"/>
			<point x="62" y="713" type="line"/>
			<point x="62" y="0" type="line"/>
			<point x="150" y="0" type="line"/>
			<point x="150" y="321" type="line"/>
			<point x="410" y="0" type="line"/>
		</contour>
	</outline>
</glyph>
<glyph name="L" format="2">
	<unicode hex="004C"/>
	<advance width="450"/>
	<outline>
		<contour>
			<point x="439" y="0" type="line"/>
			<point x="439" y="81" type="line"/>
			<point x="152" y="81" type="line"/>
			<point x="152" y="713" type="line"/>
			<point x="62" y="713" type="line"/>
			<point x="62" y="0" type="line"/>
		</contour>
	</outline>
</glyph>
<glyph name="M" format="2">
	<unicode hex="004D"/>
	<advance width="731"/>
	<outline>
		<contour>
			<point x="669" y="0" type="line"/>
			<point x="669" y="713" type="line"/>
			<point x="552" y="713" type="line"/>
			<point x="366" y="132" type="line"/>
			<point x="178" y="713" type="line"/>
			<point x="62" y="713" type="line"/>
			<point x="62" y="0" type="line"/>
			<point x="146" y="0" type="line"/>
			<point x="146" y="569" type="line"/>
			<point x="329" y="0" type="line"/>
			<point x="401" y="0" type="line"/>
			<point x="585" y="569" type="line"/>
			<point x="585" y="0" type="line"/>
		</contour>
	</outline>
</glyph>
<glyph name="O" format="2">
	<unicode hex="004F"/>
	<advance width="652"/>
	<outline>
		<contour>
			<point x="525" y="357" type="curve" smooth="yes"/>
			<point x="525" y="211.991"/>
			<point x="465.672" y="66"/>
			<point x="325" y="66" type="curve" smooth="yes"/>
			<point x="183.754" y="66"/>
			<point x="125" y="211.997"/>
			<point x="125" y="357" type="curve" smooth="yes"/>
			<point x="125" y="501.409"/>
			<point x="183.296" y="649"/>
			<point x="325" y="649" type="curve" smooth="yes"/>
			<point x="466.111" y="649"/>
			<point x="525" y="501.403"/>
		</contour>
		<contour>
			<point x="616" y="357" type="curve" smooth="yes"/>
			<point x="616" y="555.07"/>
			<point x="520.275" y="726"/>
			<point x="325" y="726" type="curve" smooth="yes"/>
			<point x="129.336" y="726"/>
			<point x="34" y="554.155"/>
			<point x="34" y="357" type="curve" smooth="yes"/>
			<point x="34" y="158.982"/>
			<point x="129.825" y="-11"/>
			<point x="325" y="-11" type="curve" smooth="yes"/>
			<point x="519.762" y="-11"/>
			<point x="616" y="158.075"/>
		</contour>
	</outline>
</glyph>
<glyph name="P" format="2">
	<unicode hex="0050"/>
	<advance width="532"/>
	<outline>
		<contour>
			<point x="485" y="501" type="curve" smooth="yes"/>
			<point x="485" y="644.197"/>
			<point x="384.853" y="713"/>
			<point x="244" y="713" type="curve" smooth="yes"/>
			<point x="62" y="713" type="line"/>
			<point x="62" y="0" type="line"/>
			<point x="152" y="0" type="line"/>
			<point x="152" y="289" type="line"/>
			<point x="182.333" y="289"/>
			<point x="212.667" y="289"/>
			<point x="243" y="289" type="curve" smooth="yes"/>
			<point x="384.007" y="289"/>
			<point x="485" y="357.616"/>
		</contour>
		<contour>
			<point x="152" y="373" type="curve"/>
			<point x="152" y="633" type="line"/>
			<point x="244" y="633" type="line" smooth="yes"/>
			<point x="330.233" y="633"/>
			<point x="395" y="589.341"/>
			<point x="395" y="501" type="curve" smooth="yes"/>
			<point x="395" y="411.984"/>
			<point x="330.305" y="373"/>
			<point x="241" y="373" type="curve" smooth="yes"/>
			<point x="211.333" y="373"/>
			<point x="181.667" y="373"/>
		</contour>
	</outline>
</glyph>
<glyph name="Q" format="2">
	<unicode hex="0051"/>
	<advance width="670"/>
	<outline>
		<contour>
			<point x="512" y="65" type="line"/>
			<point x="520" y="73"/>
			<point x="528" y="82"/>
			<point x="536" y="92" type="curve" smooth="yes"/>
			<point x="562" y="125"/>
			<point x="582" y="165"/>
			<point x="596" y="212" type="curve" smooth="yes"/>
			<point x="609" y="258"/>
			<point x="616" y="306"/>
			<point x="616" y="357" type="curve" smooth="yes"/>
			<point x="616" y="407"/>
			<point x="609" y="456"/>
			<point x="596" y="503" type="curve" smooth="yes"/>
			<point x="582" y="549"/>
			<point x="562" y="589"/>
			<point x="536" y="623" type="curve" smooth="yes"/>
			<point x="510" y="656"/>
			<point x="478" y="682"/>
			<point x="441" y="700" type="curve" smooth="yes"/>
			<point x="403" y="717"/>
			<point x="365" y="726"/>
			<point x="325" y="726" type="curve" smooth="yes"/>
			<point x="285" y="726"/>
			<point x="246" y="717"/>
			<point x="209" y="700" type="curve" smooth="yes"/>
			<point x="171" y="682"/>
			<point x="140" y="656"/>
			<point x="114" y="623" type="curve" smooth="yes"/>
			<point x="88" y="589"/>
			<point x="68" y="549"/>
			<point x="55" y="503" type="curve" smooth="yes"/>
			<point x="41" y="456"/>
			<point x="34" y="407"/>
			<point x="34" y="357" type="curve" smooth="yes"/>
			<point x="34" y="306"/>
			<point x="41" y="258"/>
			<point x="55" y="212" type="curve" smooth="yes"/>
			<point x="68" y="165"/>
			<point x="88" y="125"/>
			<point x="114" y="92" type="curve" smooth="yes"/>
			<point x="140" y="58"/>
			<point x="171" y="32"/>
			<point x="209" y="15" type="curve" smooth="yes"/>
			<point x="246" y="-2"/>
			<point x="285" y="-11"/>
			<point x="325" y="-11" type="curve" smooth="yes"/>
			<point x="351" y="-11"/>
			<point x="376" y="-7"/>
			<point x="401" y="0" type="curve"/>
			<point x="660" y="0" type="line"/>
			<point x="660" y="75" type="line"/>
			<point x="624" y="68"/>
			<point x="583" y="65"/>
			<point x="538" y="65" type="curve" smooth="yes"/>
		</contour>
		<contour>
			<point x="525" y="357" type="curve" smooth="yes"/>
			<point x="525" y="317"/>
			<point x="520" y="278"/>
			<point x="510" y="241" type="curve" smooth="yes"/>
			<point x="500" y="203"/>
			<point x="486" y="171"/>
			<point x="468" y="145" type="curve" smooth="yes"/>
			<point x="450" y="119"/>
			<point x="428" y="99"/>
			<point x="403" y="86" type="curve" smooth="yes"/>
			<point x="377" y="72"/>
			<point x="351" y="66"/>
			<point x="325" y="66" type="curve" smooth="yes"/>
			<point x="298" y="66"/>
			<point x="272" y="72"/>
			<point x="247" y="86" type="curve" smooth="yes"/>
			<point x="221" y="99"/>
			<point x="200" y="119"/>
			<point x="182" y="145" type="curve" smooth="yes"/>
			<point x="164" y="171"/>
			<point x="150" y="203"/>
			<point x="140" y="241" type="curve" smooth="yes"/>
			<point x="130" y="278"/>
			<point x="125" y="317"/>
			<point x="125" y="357" type="curve" smooth="yes"/>
			<point x="125" y="397"/>
			<point x="130" y="436"/>
			<point x="140" y="474" type="curve" smooth="yes"/>
			<point x="150" y="511"/>
			<point x="164" y="543"/>
			<point x="182" y="570" type="curve" smooth="yes"/>
			<point x="200" y="596"/>
			<point x="221" y="615"/>
			<point x="247" y="629" type="curve" smooth="yes"/>
			<point x="272" y="642"/>
			<point x="298" y="649"/>
			<point x="325" y="649" type="curve" smooth="yes"/>
			<point x="351" y="649"/>
			<point x="377" y="642"/>
			<point x="403" y="629" type="curve" smooth="yes"/>
			<point x="428" y="615"/>
			<point x="450" y="596"/>
			<point x="468" y="570" type="curve" smooth="yes"/>
			<point x="486" y="543"/>
			<point x="500" y="511"/>
			<point x="510" y="474" type="curve" smooth="yes"/>
			<point x="520" y="436"/>
			<point x="525" y="397"/>
		</contour>
	</outline>
</glyph>
<glyph name="R" format="2">
	<unicode hex="0052"/>
	<advance width="522"/>
	<outline>
		<contour>
			<point x="485" y="507" type="curve" smooth="yes"/>
			<point x="485" y="546"/>
			<point x="478" y="579"/>
			<point x="464" y="605" type="curve" smooth="yes"/>
			<point x="449" y="630"/>
			<point x="430" y="651"/>
			<point x="406" y="668" type="curve" smooth="yes"/>
			<point x="384" y="682"/>
			<point x="359" y="694"/>
			<point x="331" y="702" type="curve" smooth="yes"/>
			<point x="303" y="709"/>
			<point x="274" y="713"/>
			<point x="244" y="713" type="curve" smooth="yes"/>
			<point x="62" y="713" type="line"/>
			<point x="62" y="0" type="line"/>
			<point x="152" y="0" type="line"/>
			<point x="152" y="299" type="line"/>
			<point x="182" y="299" type="line"/>
			<point x="240" y="299" type="line" smooth="yes"/>
			<point x="278" y="299"/>
			<point x="312" y="277"/>
			<point x="342" y="234" type="curve" smooth="yes"/>
			<point x="368" y="195"/>
			<point x="390" y="117"/>
			<point x="408" y="0" type="curve"/>
			<point x="502" y="0" type="line"/>
			<point x="487" y="84"/>
			<point x="469" y="159"/>
			<point x="447" y="223" type="curve" smooth="yes"/>
			<point x="427" y="275"/>
			<point x="399" y="312"/>
			<point x="363" y="332" type="curve"/>
			<point x="373" y="335"/>
			<point x="388" y="343"/>
			<point x="408" y="356" type="curve" smooth="yes"/>
			<point x="430" y="370"/>
			<point x="448" y="391"/>
			<point x="463" y="418" type="curve" smooth="yes"/>
			<point x="477" y="444"/>
			<point x="485" y="474"/>
		</contour>
		<contour>
			<point x="152" y="383" type="line"/>
			<point x="152" y="633" type="line"/>
			<point x="244" y="633" type="line" smooth="yes"/>
			<point x="261" y="633"/>
			<point x="279" y="630"/>
			<point x="297" y="626" type="curve" smooth="yes"/>
			<point x="314" y="621"/>
			<point x="330" y="614"/>
			<point x="345" y="605" type="curve" smooth="yes"/>
			<point x="359" y="595"/>
			<point x="371" y="583"/>
			<point x="381" y="567" type="curve" smooth="yes"/>
			<point x="390" y="550"/>
			<point x="395" y="530"/>
			<point x="395" y="507" type="curve" smooth="yes"/>
			<point x="395" y="485"/>
			<point x="390" y="466"/>
			<point x="381" y="450" type="curve" smooth="yes"/>
			<point x="371" y="432"/>
			<point x="359" y="419"/>
			<point x="346" y="410" type="curve" smooth="yes"/>
			<point x="332" y="400"/>
			<point x="316" y="393"/>
			<point x="299" y="389" type="curve" smooth="yes"/>
			<point x="281" y="385"/>
			<point x="261" y="383"/>
			<point x="241" y="383" type="curve" smooth="yes"/>
			<point x="182" y="383" type="line"/>
		</contour>
	</outline>
</glyph>
<glyph name="S" format="2">
	<unicode hex="0053"/>
	<advance width="467"/>
	<outline>
		<contour>
			<point x="441" y="195" type="curve" smooth="yes"/>
			<point x="441" y="404"/>
			<point x="121" y="415"/>
			<point x="121" y="546" type="curve" smooth="yes"/>
			<point x="121" y="609.382"/>
			<point x="169.289" y="649"/>
			<point x="233" y="649" type="curve" smooth="yes"/>
			<point x="289.607" y="649"/>
			<point x="364.705" y="623.608"/>
			<point x="400" y="604" type="curve"/>
			<point x="400" y="693" type="line"/>
			<point x="352.79" y="708.021"/>
			<point x="301.005" y="726"/>
			<point x="240" y="726" type="curve" smooth="yes"/>
			<point x="114.409" y="726"/>
			<point x="31" y="665.312"/>
			<point x="31" y="539" type="curve" smooth="yes"/>
			<point x="31" y="337"/>
			<point x="349" y="349"/>
			<point x="349" y="183" type="curve" smooth="yes"/>
			<point x="349" y="103.301"/>
			<point x="284.38" y="69"/>
			<point x="207" y="69" type="curve" smooth="yes"/>
			<point x="141.906" y="69"/>
			<point x="81.7461" y="91.593"/>
			<point x="37" y="116" type="curve"/>
			<point x="37" y="20" type="line"/>
			<point x="78.1564" y="5.03403"/>
			<point x="143.127" y="-11"/>
			<point x="199" y="-11" type="curve" smooth="yes"/>
			<point x="342.554" y="-11"/>
			<point x="441" y="51.6022"/>
		</contour>
	</outline>
</glyph>
<glyph name="T" format="2">
	<unicode hex="0054"/>
	<advance width="551"/>
	<outline>
		<contour>
			<point x="510" y="632" type="line"/>
			<point x="510" y="713" type="line"/>
			<point x="20" y="713" type="line"/>
			<point x="20" y="632" type="line"/>
			<point x="220" y="632" type="line"/>
			<point x="220" y="0" type="line"/>
			<point x="310" y="0" type="line"/>
			<point x="310" y="632" type="line"/>
		</contour>
	</outline>
</glyph>
<glyph name="U" format="2">
	<unicode hex="0055"/>
	<advance width="591"/>
	<outline>
		<contour>
			<point x="295" y="70" type="curve" smooth="yes"/>
			<point x="268" y="70"/>
			<point x="245" y="75"/>
			<point x="227" y="87" type="curve" smooth="yes"/>
			<point x="207" y="97"/>
			<point x="192" y="112"/>
			<point x="182" y="130" type="curve" smooth="yes"/>
			<point x="171" y="150"/>
			<point x="163" y="173"/>
			<point x="159" y="197" type="curve" smooth="yes"/>
			<point x="154" y="220"/>
			<point x="152" y="245"/>
			<point x="152" y="272" type="curve" smooth="yes"/>
			<point x="152" y="713" type="line"/>
			<point x="62" y="713" type="line"/>
			<point x="62" y="268" type="line" smooth="yes"/>
			<point x="62" y="238"/>
			<point x="64" y="207"/>
			<point x="70" y="175" type="curve" smooth="yes"/>
			<point x="75" y="141"/>
			<point x="86" y="111"/>
			<point x="104" y="84" type="curve" smooth="yes"/>
			<point x="121" y="56"/>
			<point x="145" y="34"/>
			<point x="177" y="16" type="curve" smooth="yes"/>
			<point x="207" y="-2"/>
			<point x="247" y="-11"/>
			<point x="295" y="-11" type="curve" smooth="yes"/>
			<point x="343" y="-11"/>
			<point x="382" y="-2"/>
			<point x="414" y="16" type="curve" smooth="yes"/>
			<point x="444" y="34"/>
			<point x="468" y="56"/>
			<point x="486" y="84" type="curve" smooth="yes"/>
			<point x="503" y="111"/>
			<point x="515" y="141"/>
			<point x="521" y="174" type="curve" smooth="yes"/>
			<point x="526" y="206"/>
			<point x="529" y="238"/>
			<point x="529" y="268" type="curve" smooth="yes"/>
			<point x="529" y="713" type="line"/>
			<point x="439" y="713" type="line"/>
			<point x="439" y="272" type="line" smooth="yes"/>
			<point x="439" y="245"/>
			<point x="436" y="220"/>
			<point x="432" y="197" type="curve" smooth="yes"/>
			<point x="426" y="173"/>
			<point x="418" y="150"/>
			<point x="408" y="130" type="curve" smooth="yes"/>
			<point x="397" y="112"/>
			<point x="382" y="97"/>
			<point x="363" y="86" type="curve" smooth="yes"/>
			<point x="343" y="74"/>
			<point x="321" y="68"/>
		</contour>
	</outline>
</glyph>
<glyph name="V" format="2">
	<unicode hex="0056"/>
	<advance width="587"/>
	<outline>
		<contour>
			<point x="552" y="713" type="line"/>
			<point x="460" y="713" type="line"/>
			<point x="283" y="124" type="line"/>
			<point x="103" y="713" type="line"/>
			<point x="13" y="713" type="line"/>
			<point x="235" y="0" type="line"/>
			<point x="329" y="0" type="line"/>
		</contour>
	</outline>
</glyph>
<glyph name="W" format="2">
	<unicode hex="0057"/>
	<advance width="767"/>
	<outline>
		<contour>
			<point x="748" y="713" type="line"/>
			<point x="663" y="713" type="line"/>
			<point x="567" y="141" type="line"/>
			<point x="428" y="713" type="line"/>
			<point x="339" y="713" type="line"/>
			<point x="200" y="141" type="line"/>
			<point x="104" y="713" type="line"/>
			<point x="19" y="713" type="line"/>
			<point x="146" y="0" type="line"/>
			<point x="245" y="0" type="line"/>
			<point x="384" y="574" type="line"/>
			<point x="522" y="0" type="line"/>
			<point x="621" y="0" type="line"/>
		</contour>
	</outline>
</glyph>
<glyph name="X" format="2">
	<unicode hex="0058"/>
	<advance width="566"/>
	<outline>
		<contour>
			<point x="528" y="0" type="line"/>
			<point x="319" y="373" type="line"/>
			<point x="508" y="713" type="line"/>
			<point x="410" y="713" type="line"/>
			<point x="270" y="461" type="line"/>
			<point x="129" y="713" type="line"/>
			<point x="31" y="713" type="line"/>
			<point x="221" y="373" type="line"/>
			<point x="14" y="0" type="line"/>
			<point x="109" y="0" type="line"/>
			<point x="269" y="286" type="line"/>
			<point x="430" y="0" type="line"/>
		</contour>
	</outline>
</glyph>
<glyph name="Y" format="2">
  <advance width="540"/>
  <unicode hex="0059"/>
  <outline>
    <contour>
      <point x="269" y="415" type="line"/>
      <point x="113" y="713" type="line"/>
      <point x="15" y="713" type="line"/>
      <point x="225" y="325" type="line"/>
      <point x="225" y="0" type="line"/>
      <point x="315" y="0" type="line"/>
      <point x="315" y="325" type="line"/>
      <point x="525" y="713" type="line"/>
      <point x="426" y="713" type="line"/>
    </contour>
  </outline>
</glyph>
<glyph name="Z" format="2">
	<unicode hex="005A"/>
	<advance width="525"/>
	<outline>
		<contour>
			<point x="484" y="0" type="line"/>
			<point x="484" y="81" type="line"/>
			<point x="129" y="81" type="line"/>
			<point x="463" y="634" type="line"/>
			<point x="463" y="713" type="line"/>
			<point x="42" y="713" type="line"/>
			<point x="42" y="632" type="line"/>
			<point x="360" y="632" type="line"/>
			<point x="27" y="77" type="line"/>
			<point x="27" y="0" type="line"/>
		</contour>
	</outline>
</glyph>
<glyph name="bracketleft" format="2">
	<unicode hex="005B"/>
	<advance width="330"/>
	<outline>
		<contour>
			<point x="288" y="-139" type="line"/>
			<point x="288" y="-67" type="line"/>
			<point x="191" y="-67" type="line"/>
			<point x="191" y="726" type="line"/>
			<point x="288" y="726" type="line"/>
			<point x="288" y="798" type="line"/>
			<point x="104" y="798" type="line"/>
			<point x="104" y="-139" type="line"/>
		</contour>
	</outline>
</glyph>
<glyph name="bracketright" format="2">
	<unicode hex="005D"/>
	<advance width="318"/>
	<outline>
		<contour>
			<point x="215" y="-139" type="line"/>
			<point x="215" y="798" type="line"/>
			<point x="30" y="798" type="line"/>
			<point x="30" y="726" type="line"/>
			<point x="127" y="726" type="line"/>
			<point x="127" y="-67" type="line"/>
			<point x="30" y="-67" type="line"/>
			<point x="30" y="-139" type="line"/>
		</contour>
	</outline>
</glyph>
<glyph name="asciicircum" format="2">
	<unicode hex="005E"/>
	<advance width="443"/>
	<outline>
		<contour>
			<point x="173" y="734" type="line"/>
			<point x="35" y="492" type="line"/>
			<point x="122" y="492" type="line"/>
			<point x="213" y="654" type="line"/>
			<point x="301" y="492" type="line"/>
			<point x="389" y="492" type="line"/>
			<point x="252" y="734" type="line"/>
		</contour>
	</outline>
</glyph>
<glyph name="underscore" format="2">
  <advance width="450"/>
  <unicode hex="005F"/>
  <outline>
    <contour>
      <point x="449" y="-115" type="line"/>
      <point x="449" y="-51" type="line"/>
      <point x="2" y="-51" type="line"/>
      <point x="2" y="-115" type="line"/>
    </contour>
  </outline>
</glyph>
<glyph name="grave" format="2">
	<unicode hex="0060"/>
	<advance width="286"/>
	<outline>
		<contour>
			<point x="204" y="537" type="line"/>
			<point x="144" y="719" type="line"/>
			<point x="43" y="719" type="line"/>
			<point x="127" y="537" type="line"/>
		</contour>
	</outline>
</glyph>
<glyph name="a" format="2">
	<unicode hex="0061"/>
	<advance width="472"/>
	<outline>
		<contour>
			<point x="416" y="0" type="line"/>
			<point x="416" y="345" type="line" smooth="yes"/>
			<point x="416" y="392"/>
			<point x="400" y="432"/>
			<point x="369" y="466" type="curve" smooth="yes"/>
			<point x="337" y="499"/>
			<point x="291" y="516"/>
			<point x="231" y="516" type="curve" smooth="yes"/>
			<point x="201" y="516"/>
			<point x="174" y="511"/>
			<point x="150" y="503" type="curve" smooth="yes"/>
			<point x="124" y="493"/>
			<point x="104" y="482"/>
			<point x="89" y="468" type="curve" smooth="yes"/>
			<point x="73" y="454"/>
			<point x="62" y="438"/>
			<point x="55" y="422" type="curve" smooth="yes"/>
			<point x="47" y="404"/>
			<point x="44" y="385"/>
			<point x="44" y="363" type="curve"/>
			<point x="142" y="363" type="line"/>
			<point x="142" y="389"/>
			<point x="151" y="409"/>
			<point x="169" y="423" type="curve" smooth="yes"/>
			<point x="186" y="436"/>
			<point x="207" y="443"/>
			<point x="231" y="443" type="curve" smooth="yes"/>
			<point x="250" y="443"/>
			<point x="267" y="439"/>
			<point x="281" y="432" type="curve" smooth="yes"/>
			<point x="294" y="424"/>
			<point x="304" y="415"/>
			<point x="311" y="405" type="curve" smooth="yes"/>
			<point x="317" y="394"/>
			<point x="322" y="382"/>
			<point x="325" y="370" type="curve" smooth="yes"/>
			<point x="327" y="357"/>
			<point x="328" y="347"/>
			<point x="328" y="341" type="curve" smooth="yes"/>
			<point x="328" y="300" type="line"/>
			<point x="255" y="300" type="line" smooth="yes"/>
			<point x="239" y="300"/>
			<point x="220" y="298"/>
			<point x="199" y="295" type="curve" smooth="yes"/>
			<point x="177" y="291"/>
			<point x="156" y="286"/>
			<point x="137" y="279" type="curve" smooth="yes"/>
			<point x="107" y="269"/>
			<point x="83" y="250"/>
			<point x="63" y="223" type="curve" smooth="yes"/>
			<point x="42" y="195"/>
			<point x="32" y="162"/>
			<point x="32" y="124" type="curve" smooth="yes"/>
			<point x="32" y="103"/>
			<point x="35" y="84"/>
			<point x="43" y="68" type="curve" smooth="yes"/>
			<point x="49" y="51"/>
			<point x="59" y="37"/>
			<point x="72" y="25" type="curve" smooth="yes"/>
			<point x="84" y="13"/>
			<point x="98" y="4"/>
			<point x="116" y="-2" type="curve" smooth="yes"/>
			<point x="132" y="-8"/>
			<point x="147" y="-11"/>
			<point x="160" y="-11" type="curve" smooth="yes"/>
			<point x="186" y="-11"/>
			<point x="210" y="-8"/>
			<point x="230" y="-4" type="curve" smooth="yes"/>
			<point x="250" y="1"/>
			<point x="268" y="8"/>
			<point x="284" y="18" type="curve" smooth="yes"/>
			<point x="306" y="32"/>
			<point x="321" y="43"/>
			<point x="328" y="52" type="curve"/>
			<point x="328" y="0" type="line"/>
		</contour>
		<contour>
			<point x="328" y="189" type="line" smooth="yes"/>
			<point x="328" y="169"/>
			<point x="325" y="153"/>
			<point x="319" y="141" type="curve" smooth="yes"/>
			<point x="306" y="118"/>
			<point x="288" y="99"/>
			<point x="265" y="84" type="curve" smooth="yes"/>
			<point x="253" y="76"/>
			<point x="241" y="71"/>
			<point x="227" y="68" type="curve" smooth="yes"/>
			<point x="212" y="64"/>
			<point x="201" y="62"/>
			<point x="193" y="62" type="curve" smooth="yes"/>
			<point x="173" y="62"/>
			<point x="156" y="67"/>
			<point x="143" y="79" type="curve" smooth="yes"/>
			<point x="129" y="89"/>
			<point x="122" y="108"/>
			<point x="122" y="134" type="curve" smooth="yes"/>
			<point x="122" y="158"/>
			<point x="132" y="179"/>
			<point x="154" y="197" type="curve" smooth="yes"/>
			<point x="172" y="211"/>
			<point x="193" y="220"/>
			<point x="217" y="224" type="curve" smooth="yes"/>
			<point x="244" y="228"/>
			<point x="267" y="231"/>
			<point x="286" y="232" type="curve" smooth="yes"/>
			<point x="304" y="232"/>
			<point x="318" y="232"/>
			<point x="328" y="232" type="curve"/>
		</contour>
	</outline>
</glyph>
<glyph name="b" format="2">
	<unicode hex="0062"/>
	<advance width="500"/>
	<outline>
		<contour>
			<point x="378" y="252" type="curve" smooth="yes"/>
			<point x="378" y="160.777"/>
			<point x="348.025" y="62"/>
			<point x="261" y="62" type="curve" smooth="yes"/>
			<point x="174.52" y="62"/>
			<point x="145" y="162.907"/>
			<point x="145" y="252" type="curve" smooth="yes"/>
			<point x="145" y="335.388"/>
			<point x="179.796" y="442"/>
			<point x="261" y="442" type="curve" smooth="yes"/>
			<point x="347.01" y="442"/>
			<point x="378" y="341.357"/>
		</contour>
		<contour>
			<point x="262" y="-11" type="curve" smooth="yes"/>
			<point x="412.325" y="-11"/>
			<point x="468" y="103.699"/>
			<point x="468" y="257" type="curve" smooth="yes"/>
			<point x="468" y="398.158"/>
			<point x="407.039" y="516"/>
			<point x="267" y="516" type="curve" smooth="yes"/>
			<point x="215" y="516"/>
			<point x="174" y="494"/>
			<point x="144" y="450" type="curve"/>
			<point x="144" y="713" type="line"/>
			<point x="57" y="713" type="line"/>
			<point x="57" y="257" type="line" smooth="yes"/>
			<point x="57" y="104.373"/>
			<point x="111.031" y="-11"/>
		</contour>
	</outline>
</glyph>
<glyph name="c" format="2">
	<unicode hex="0063"/>
	<advance width="472"/>
	<outline>
		<contour>
			<point x="436" y="338" type="line"/>
			<point x="436" y="448.514"/>
			<point x="361.091" y="516"/>
			<point x="252" y="516" type="curve" smooth="yes"/>
			<point x="105.378" y="516"/>
			<point x="32" y="408.469"/>
			<point x="32" y="263" type="curve" smooth="yes"/>
			<point x="32" y="100.827"/>
			<point x="114.965" y="-11.6875"/>
			<point x="276.119" y="-11.6875" type="curve" smooth="yes"/>
			<point x="337.4" y="-11.6875"/>
			<point x="378.885" y="0.238661"/>
			<point x="422" y="27" type="curve"/>
			<point x="422" y="102" type="line"/>
			<point x="376.684" y="75.6876"/>
			<point x="342.419" y="63"/>
			<point x="291" y="63" type="curve" smooth="yes"/>
			<point x="174.562" y="63"/>
			<point x="124" y="149.34"/>
			<point x="124" y="262" type="curve" smooth="yes"/>
			<point x="124" y="355.893"/>
			<point x="164.446" y="443"/>
			<point x="250" y="443" type="curve" smooth="yes"/>
			<point x="309.615" y="443"/>
			<point x="343" y="396.409"/>
			<point x="343" y="338" type="curve"/>
		</contour>
	</outline>
</glyph>
<glyph name="d" format="2">
  <advance width="500"/>
  <unicode hex="0064"/>
  <outline>
    <contour>
      <point x="32" y="257" type="curve" smooth="yes"/>
      <point x="32" y="214"/>
      <point x="37" y="176"/>
      <point x="48" y="143" type="curve" smooth="yes"/>
      <point x="58" y="109"/>
      <point x="71" y="81"/>
      <point x="87" y="60" type="curve" smooth="yes"/>
      <point x="103" y="36"/>
      <point x="124" y="19"/>
      <point x="150" y="7" type="curve" smooth="yes"/>
      <point x="175" y="-5"/>
      <point x="201" y="-11"/>
      <point x="229" y="-11" type="curve" smooth="yes"/>
      <point x="262" y="-11"/>
      <point x="290" y="-3"/>
      <point x="313" y="12" type="curve" smooth="yes"/>
      <point x="335" y="26"/>
      <point x="349" y="39"/>
      <point x="356" y="50" type="curve"/>
      <point x="356" y="0" type="line"/>
      <point x="443" y="0" type="line"/>
      <point x="443" y="713" type="line"/>
      <point x="356" y="713" type="line"/>
      <point x="356" y="450" type="line"/>
      <point x="326" y="494"/>
      <point x="285" y="516"/>
      <point x="233" y="516" type="curve" smooth="yes"/>
      <point x="201" y="516"/>
      <point x="172" y="508"/>
      <point x="146" y="494" type="curve" smooth="yes"/>
      <point x="119" y="478"/>
      <point x="97" y="459"/>
      <point x="81" y="435" type="curve" smooth="yes"/>
      <point x="65" y="411"/>
      <point x="53" y="383"/>
      <point x="45" y="353" type="curve" smooth="yes"/>
      <point x="36" y="322"/>
      <point x="32" y="290"/>
    </contour>
    <contour>
      <point x="122" y="252" type="curve" smooth="yes"/>
      <point x="122" y="278"/>
      <point x="125" y="303"/>
      <point x="132" y="327" type="curve" smooth="yes"/>
      <point x="138" y="351"/>
      <point x="146" y="371"/>
      <point x="157" y="389" type="curve" smooth="yes"/>
      <point x="167" y="405"/>
      <point x="180" y="418"/>
      <point x="195" y="428" type="curve" smooth="yes"/>
      <point x="209" y="437"/>
      <point x="224" y="442"/>
      <point x="239" y="442" type="curve" smooth="yes"/>
      <point x="253" y="442"/>
      <point x="268" y="437"/>
      <point x="283" y="427" type="curve" smooth="yes"/>
      <point x="297" y="417"/>
      <point x="310" y="404"/>
      <point x="320" y="388" type="curve" smooth="yes"/>
      <point x="330" y="370"/>
      <point x="339" y="350"/>
      <point x="346" y="327" type="curve" smooth="yes"/>
      <point x="352" y="303"/>
      <point x="355" y="278"/>
      <point x="355" y="252" type="curve" smooth="yes"/>
      <point x="355" y="226"/>
      <point x="352" y="201"/>
      <point x="346" y="178" type="curve" smooth="yes"/>
      <point x="339" y="154"/>
      <point x="330" y="133"/>
      <point x="320" y="116" type="curve" smooth="yes"/>
      <point x="310" y="98"/>
      <point x="297" y="85"/>
      <point x="283" y="76" type="curve" smooth="yes"/>
      <point x="268" y="66"/>
      <point x="253" y="62"/>
      <point x="239" y="62" type="curve" smooth="yes"/>
      <point x="224" y="62"/>
      <point x="209" y="66"/>
      <point x="195" y="76" type="curve" smooth="yes"/>
      <point x="179" y="84"/>
      <point x="167" y="97"/>
      <point x="157" y="115" type="curve" smooth="yes"/>
      <point x="146" y="132"/>
      <point x="138" y="153"/>
      <point x="132" y="177" type="curve" smooth="yes"/>
      <point x="125" y="201"/>
      <point x="122" y="226"/>
    </contour>
  </outline>
</glyph>
<glyph name="e" format="2">
	<unicode hex="0065"/>
	<advance width="472"/>
	<outline>
		<contour>
			<point x="436" y="338" type="line" smooth="yes"/>
			<point x="436" y="369"/>
			<point x="431" y="395"/>
			<point x="421" y="417" type="curve" smooth="yes"/>
			<point x="410" y="437"/>
			<point x="397" y="455"/>
			<point x="381" y="470" type="curve" smooth="yes"/>
			<point x="364" y="484"/>
			<point x="345" y="496"/>
			<point x="324" y="504" type="curve" smooth="yes"/>
			<point x="302" y="512"/>
			<point x="278" y="516"/>
			<point x="252" y="516" type="curve" smooth="yes"/>
			<point x="216" y="516"/>
			<point x="184" y="509"/>
			<point x="157" y="497" type="curve" smooth="yes"/>
			<point x="129" y="483"/>
			<point x="106" y="465"/>
			<point x="88" y="443" type="curve" smooth="yes"/>
			<point x="70" y="421"/>
			<point x="56" y="394"/>
			<point x="47" y="364" type="curve" smooth="yes"/>
			<point x="37" y="333"/>
			<point x="32" y="299"/>
			<point x="32" y="263" type="curve" smooth="yes"/>
			<point x="32" y="217"/>
			<point x="38" y="178"/>
			<point x="52" y="144" type="curve" smooth="yes"/>
			<point x="64" y="110"/>
			<point x="80" y="81"/>
			<point x="100" y="59" type="curve" smooth="yes"/>
			<point x="116" y="41"/>
			<point x="137" y="25"/>
			<point x="163" y="13" type="curve" smooth="yes"/>
			<point x="189" y="0"/>
			<point x="215" y="-7"/>
			<point x="242" y="-10" type="curve" smooth="yes"/>
			<point x="272" y="-13"/>
			<point x="303" y="-12"/>
			<point x="334" y="-7" type="curve" smooth="yes"/>
			<point x="364" y="-1"/>
			<point x="393" y="9"/>
			<point x="422" y="27" type="curve"/>
			<point x="422" y="102" type="line"/>
			<point x="391" y="84"/>
			<point x="365" y="74"/>
			<point x="344" y="70" type="curve" smooth="yes"/>
			<point x="322" y="65"/>
			<point x="305" y="63"/>
			<point x="291" y="63" type="curve" smooth="yes"/>
			<point x="272" y="63"/>
			<point x="256" y="65"/>
			<point x="242" y="69" type="curve" smooth="yes"/>
			<point x="228" y="72"/>
			<point x="217" y="76"/>
			<point x="211" y="81" type="curve" smooth="yes"/>
			<point x="191" y="93"/>
			<point x="175" y="107"/>
			<point x="164" y="123" type="curve" smooth="yes"/>
			<point x="152" y="139"/>
			<point x="143" y="156"/>
			<point x="138" y="174" type="curve" smooth="yes"/>
			<point x="132" y="188"/>
			<point x="129" y="203"/>
			<point x="127" y="219" type="curve" smooth="yes"/>
			<point x="125" y="233"/>
			<point x="124" y="248"/>
			<point x="124" y="262" type="curve" smooth="yes"/>
			<point x="124" y="263"/>
			<point x="124" y="264"/>
			<point x="124" y="265" type="curve" smooth="yes"/>
			<point x="436" y="265" type="line"/>
		</contour>
		<contour>
			<point x="133" y="338" type="line"/>
			<point x="139" y="361"/>
			<point x="148" y="380"/>
			<point x="161" y="396" type="curve" smooth="yes"/>
			<point x="185" y="427"/>
			<point x="214" y="443"/>
			<point x="250" y="443" type="curve" smooth="yes"/>
			<point x="280" y="443"/>
			<point x="304" y="432"/>
			<point x="320" y="412" type="curve" smooth="yes"/>
			<point x="335" y="391"/>
			<point x="343" y="366"/>
			<point x="343" y="338" type="curve"/>
		</contour>
	</outline>
</glyph>
<glyph name="f" format="2">
	<unicode hex="0066"/>
	<advance width="364"/>
	<outline>
		<contour>
			<point x="353" y="636" type="curve"/>
			<point x="353" y="714" type="line"/>
			<point x="321.966" y="718.138"/>
			<point x="294.814" y="726"/>
			<point x="259" y="726" type="curve" smooth="yes"/>
			<point x="134.141" y="722.714"/>
			<point x="99" y="653.007"/>
			<point x="99" y="530" type="curve" smooth="yes"/>
			<point x="99" y="504" type="line"/>
			<point x="19" y="504" type="line"/>
			<point x="19" y="431" type="line"/>
			<point x="99" y="431" type="line"/>
			<point x="99" y="0" type="line"/>
			<point x="189" y="0" type="line"/>
			<point x="189" y="431" type="line"/>
			<point x="320" y="431" type="line"/>
			<point x="320" y="504" type="line"/>
			<point x="189" y="504" type="line"/>
			<point x="189" y="549" type="line" smooth="yes"/>
			<point x="189" y="609.354"/>
			<point x="202.152" y="653"/>
			<point x="263" y="653" type="curve" smooth="yes"/>
			<point x="299.241" y="653"/>
			<point x="320.625" y="646.224"/>
		</contour>
	</outline>
</glyph>
<glyph name="g" format="2">
	<unicode hex="0067"/>
	<advance width="500"/>
	<outline>
		<contour>
			<point x="121" y="262" type="curve" smooth="yes"/>
			<point x="121" y="288"/>
			<point x="124" y="311"/>
			<point x="130" y="332" type="curve" smooth="yes"/>
			<point x="136" y="352"/>
			<point x="144" y="371"/>
			<point x="156" y="389" type="curve" smooth="yes"/>
			<point x="166" y="405"/>
			<point x="179" y="418"/>
			<point x="194" y="428" type="curve" smooth="yes"/>
			<point x="208" y="437"/>
			<point x="223" y="442"/>
			<point x="238" y="442" type="curve" smooth="yes"/>
			<point x="252" y="442"/>
			<point x="267" y="437"/>
			<point x="282" y="427" type="curve" smooth="yes"/>
			<point x="296" y="417"/>
			<point x="309" y="404"/>
			<point x="320" y="388" type="curve" smooth="yes"/>
			<point x="331" y="370"/>
			<point x="340" y="352"/>
			<point x="346" y="332" type="curve" smooth="yes"/>
			<point x="352" y="311"/>
			<point x="355" y="288"/>
			<point x="355" y="262" type="curve" smooth="yes"/>
			<point x="355" y="236"/>
			<point x="352" y="212"/>
			<point x="346" y="192" type="curve" smooth="yes"/>
			<point x="339" y="170"/>
			<point x="330" y="152"/>
			<point x="320" y="136" type="curve" smooth="yes"/>
			<point x="309" y="119"/>
			<point x="296" y="106"/>
			<point x="282" y="97" type="curve" smooth="yes"/>
			<point x="267" y="87"/>
			<point x="252" y="82"/>
			<point x="238" y="82" type="curve" smooth="yes"/>
			<point x="223" y="82"/>
			<point x="208" y="86"/>
			<point x="194" y="96" type="curve" smooth="yes"/>
			<point x="179" y="104"/>
			<point x="166" y="117"/>
			<point x="156" y="135" type="curve" smooth="yes"/>
			<point x="145" y="152"/>
			<point x="137" y="171"/>
			<point x="131" y="192" type="curve" smooth="yes"/>
			<point x="124" y="212"/>
			<point x="121" y="236"/>
		</contour>
		<contour>
			<point x="443" y="54" type="curve" smooth="yes"/>
			<point x="443" y="504" type="line"/>
			<point x="356" y="504" type="line"/>
			<point x="356" y="450" type="line"/>
			<point x="328" y="494"/>
			<point x="287" y="516"/>
			<point x="233" y="516" type="curve" smooth="yes"/>
			<point x="201" y="516"/>
			<point x="171" y="508"/>
			<point x="145" y="494" type="curve" smooth="yes"/>
			<point x="117" y="478"/>
			<point x="96" y="459"/>
			<point x="80" y="435" type="curve" smooth="yes"/>
			<point x="64" y="411"/>
			<point x="52" y="385"/>
			<point x="44" y="358" type="curve" smooth="yes"/>
			<point x="35" y="330"/>
			<point x="31" y="300"/>
			<point x="31" y="267" type="curve" smooth="yes"/>
			<point x="31" y="224"/>
			<point x="36" y="188"/>
			<point x="47" y="158" type="curve" smooth="yes"/>
			<point x="57" y="127"/>
			<point x="70" y="101"/>
			<point x="86" y="80" type="curve" smooth="yes"/>
			<point x="102" y="56"/>
			<point x="123" y="39"/>
			<point x="149" y="27" type="curve" smooth="yes"/>
			<point x="174" y="15"/>
			<point x="200" y="9"/>
			<point x="228" y="9" type="curve" smooth="yes"/>
			<point x="261" y="9"/>
			<point x="289" y="16"/>
			<point x="313" y="32" type="curve" smooth="yes"/>
			<point x="335" y="47"/>
			<point x="350" y="60"/>
			<point x="356" y="72" type="curve"/>
			<point x="356" y="65" type="line" smooth="yes"/>
			<point x="356" y="47"/>
			<point x="355" y="31"/>
			<point x="354" y="15" type="curve" smooth="yes"/>
			<point x="351" y="-17"/>
			<point x="339" y="-42"/>
			<point x="317" y="-60" type="curve" smooth="yes"/>
			<point x="294" y="-78"/>
			<point x="262" y="-87"/>
			<point x="222" y="-87" type="curve" smooth="yes"/>
			<point x="198" y="-87"/>
			<point x="172" y="-84"/>
			<point x="146" y="-79" type="curve" smooth="yes"/>
			<point x="118" y="-73"/>
			<point x="92" y="-62"/>
			<point x="66" y="-47" type="curve"/>
			<point x="66" y="-140" type="line"/>
			<point x="84" y="-148"/>
			<point x="107" y="-155"/>
			<point x="137" y="-160" type="curve" smooth="yes"/>
			<point x="165" y="-164"/>
			<point x="191" y="-166"/>
			<point x="214" y="-166" type="curve" smooth="yes"/>
			<point x="286" y="-166"/>
			<point x="342" y="-148"/>
			<point x="383" y="-113" type="curve" smooth="yes"/>
			<point x="421" y="-79"/>
			<point x="441" y="-23"/>
		</contour>
	</outline>
</glyph>
<glyph name="h" format="2">
	<unicode hex="0068"/>
	<advance width="500"/>
	<outline>
		<contour>
			<point x="443" y="0" type="line"/>
			<point x="443" y="337" type="line" smooth="yes"/>
			<point x="443" y="449.238"/>
			<point x="384.978" y="516"/>
			<point x="274" y="516" type="curve" smooth="yes"/>
			<point x="221.956" y="516"/>
			<point x="166.523" y="477.539"/>
			<point x="144" y="440" type="curve"/>
			<point x="144" y="713" type="line"/>
			<point x="57" y="713" type="line"/>
			<point x="57" y="0" type="line"/>
			<point x="144" y="0" type="line"/>
			<point x="144" y="221" type="line" smooth="yes"/>
			<point x="144" y="318.692"/>
			<point x="179.853" y="438"/>
			<point x="268" y="438" type="curve" smooth="yes"/>
			<point x="332.76" y="438"/>
			<point x="355" y="384.464"/>
			<point x="355" y="323" type="curve" smooth="yes"/>
			<point x="355" y="0" type="line"/>
		</contour>
	</outline>
</glyph>
<glyph name="i" format="2">
	<unicode hex="0069"/>
	<advance width="220"/>
	<outline>
		<contour>
			<point x="157" y="603" type="line"/>
			<point x="157" y="713" type="line"/>
			<point x="53" y="713" type="line"/>
			<point x="53" y="603" type="line"/>
		</contour>
		<contour>
			<point x="151" y="0" type="line"/>
			<point x="151" y="504" type="line"/>
			<point x="61" y="504" type="line"/>
			<point x="61" y="0" type="line"/>
		</contour>
	</outline>
</glyph>
<glyph name="j" format="2">
  <advance width="238"/>
  <unicode hex="006A"/>
  <outline>
    <contour>
      <point x="189" y="603" type="line"/>
      <point x="189" y="713" type="line"/>
      <point x="85" y="713" type="line"/>
      <point x="85" y="603" type="line"/>
    </contour>
    <contour>
      <point x="181" y="16" type="curve" smooth="yes"/>
      <point x="181" y="504" type="line"/>
      <point x="93" y="504" type="line"/>
      <point x="93" y="7" type="line" smooth="yes"/>
      <point x="93" y="-38"/>
      <point x="76" y="-68"/>
      <point x="42" y="-82" type="curve" smooth="yes"/>
      <point x="30" y="-86"/>
      <point x="6" y="-87"/>
      <point x="-28" y="-86" type="curve"/>
      <point x="-28" y="-166" type="line"/>
      <point x="2" y="-166"/>
      <point x="30" y="-164"/>
      <point x="57" y="-160" type="curve" smooth="yes"/>
      <point x="83" y="-155"/>
      <point x="106" y="-146"/>
      <point x="126" y="-132" type="curve" smooth="yes"/>
      <point x="144" y="-116"/>
      <point x="158" y="-96"/>
      <point x="168" y="-72" type="curve" smooth="yes"/>
      <point x="176" y="-50"/>
      <point x="180" y="-21"/>
    </contour>
  </outline>
</glyph>
<glyph name="l" format="2">
	<unicode hex="006C"/>
	<advance width="212"/>
	<outline>
		<contour>
			<point x="151" y="0" type="line"/>
			<point x="151" y="713" type="line"/>
			<point x="61" y="713" type="line"/>
			<point x="61" y="0" type="line"/>
		</contour>
	</outline>
</glyph>
<glyph name="m" format="2">
  <advance width="716"/>
  <unicode hex="006D"/>
  <outline>
    <contour>
      <point x="659" y="0" type="line"/>
      <point x="659" y="332" type="line" smooth="yes"/>
      <point x="659" y="395"/>
      <point x="645" y="442"/>
      <point x="618" y="472" type="curve" smooth="yes"/>
      <point x="590" y="501"/>
      <point x="555" y="516"/>
      <point x="513" y="516" type="curve" smooth="yes"/>
      <point x="469" y="516"/>
      <point x="434" y="500"/>
      <point x="409" y="470" type="curve" smooth="yes"/>
      <point x="399" y="458"/>
      <point x="390" y="445"/>
      <point x="383" y="433" type="curve"/>
      <point x="379" y="445"/>
      <point x="368" y="462"/>
      <point x="351" y="482" type="curve" smooth="yes"/>
      <point x="326" y="504"/>
      <point x="293" y="516"/>
      <point x="253" y="516" type="curve" smooth="yes"/>
      <point x="217" y="516"/>
      <point x="187" y="502"/>
      <point x="163" y="475" type="curve" smooth="yes"/>
      <point x="157" y="469"/>
      <point x="150" y="460"/>
      <point x="142" y="448" type="curve"/>
      <point x="142" y="504" type="line"/>
      <point x="57" y="504" type="line"/>
      <point x="57" y="0" type="line"/>
      <point x="142" y="0" type="line"/>
      <point x="142" y="218" type="line" smooth="yes"/>
      <point x="142" y="245"/>
      <point x="145" y="271"/>
      <point x="149" y="295" type="curve" smooth="yes"/>
      <point x="152" y="318"/>
      <point x="158" y="341"/>
      <point x="167" y="363" type="curve" smooth="yes"/>
      <point x="175" y="386"/>
      <point x="186" y="403"/>
      <point x="200" y="415" type="curve" smooth="yes"/>
      <point x="212" y="426"/>
      <point x="227" y="432"/>
      <point x="244" y="432" type="curve" smooth="yes"/>
      <point x="259" y="432"/>
      <point x="272" y="429"/>
      <point x="282" y="423" type="curve" smooth="yes"/>
      <point x="291" y="416"/>
      <point x="298" y="406"/>
      <point x="304" y="392" type="curve" smooth="yes"/>
      <point x="309" y="378"/>
      <point x="313" y="362"/>
      <point x="315" y="343" type="curve" smooth="yes"/>
      <point x="316" y="323"/>
      <point x="317" y="305"/>
      <point x="317" y="287" type="curve" smooth="yes"/>
      <point x="317" y="0" type="line"/>
      <point x="399" y="0" type="line"/>
      <point x="399" y="217" type="line" smooth="yes"/>
      <point x="399" y="229"/>
      <point x="399" y="240"/>
      <point x="400" y="252" type="curve" smooth="yes"/>
      <point x="400" y="263"/>
      <point x="402" y="276"/>
      <point x="404" y="290" type="curve" smooth="yes"/>
      <point x="410" y="334"/>
      <point x="422" y="369"/>
      <point x="441" y="395" type="curve" smooth="yes"/>
      <point x="459" y="419"/>
      <point x="480" y="432"/>
      <point x="504" y="432" type="curve" smooth="yes"/>
      <point x="517" y="432"/>
      <point x="529" y="429"/>
      <point x="539" y="423" type="curve" smooth="yes"/>
      <point x="549" y="416"/>
      <point x="556" y="406"/>
      <point x="562" y="392" type="curve" smooth="yes"/>
      <point x="566" y="380"/>
      <point x="570" y="365"/>
      <point x="572" y="345" type="curve" smooth="yes"/>
      <point x="573" y="324"/>
      <point x="574" y="305"/>
      <point x="574" y="287" type="curve" smooth="yes"/>
      <point x="574" y="0" type="line"/>
    </contour>
  </outline>
</glyph>
<glyph name="n" format="2">
	<unicode hex="006E"/>
	<advance width="500"/>
	<outline>
		<contour>
			<point x="443" y="0" type="line"/>
			<point x="443" y="337" type="line" smooth="yes"/>
			<point x="443" y="449.238"/>
			<point x="384.978" y="516"/>
			<point x="274" y="516" type="curve" smooth="yes"/>
			<point x="221.956" y="516"/>
			<point x="166.523" y="477.539"/>
			<point x="144" y="440" type="curve"/>
			<point x="144" y="504" type="line"/>
			<point x="57" y="504" type="line"/>
			<point x="57" y="0" type="line"/>
			<point x="144" y="0" type="line"/>
			<point x="144" y="221" type="line" smooth="yes"/>
			<point x="144" y="318.692"/>
			<point x="179.853" y="438"/>
			<point x="268" y="438" type="curve" smooth="yes"/>
			<point x="332.76" y="438"/>
			<point x="355" y="384.464"/>
			<point x="355" y="323" type="curve" smooth="yes"/>
			<point x="355" y="0" type="line"/>
		</contour>
	</outline>
</glyph>
<glyph name="o" format="2">
	<unicode hex="006F"/>
	<advance width="520"/>
	<outline>
		<contour>
			<point x="376" y="252" type="curve" smooth="yes"/>
			<point x="376" y="156.784"/>
			<point x="341.375" y="61"/>
			<point x="250" y="61" type="curve" smooth="yes"/>
			<point x="157.854" y="61"/>
			<point x="124" y="156.906"/>
			<point x="124" y="252" type="curve" smooth="yes"/>
			<point x="124" y="346.219"/>
			<point x="156.812" y="444"/>
			<point x="250" y="444" type="curve" smooth="yes"/>
			<point x="342.396" y="444"/>
			<point x="376" y="346.336"/>
		</contour>
		<contour>
			<point x="468" y="252" type="curve" smooth="yes"/>
			<point x="468" y="396.512"/>
			<point x="392.643" y="516"/>
			<point x="250" y="516" type="curve" smooth="yes"/>
			<point x="107.232" y="516"/>
			<point x="32" y="395.638"/>
			<point x="32" y="252" type="curve" smooth="yes"/>
			<point x="32" y="107.205"/>
			<point x="107.19" y="-11"/>
			<point x="250" y="-11" type="curve" smooth="yes"/>
			<point x="392.669" y="-11"/>
			<point x="468" y="106.332"/>
		</contour>
	</outline>
</glyph>
<glyph name="p" format="2">
	<unicode hex="0070"/>
	<advance width="500"/>
	<outline>
		<contour>
			<point x="468" y="259" type="curve" smooth="yes"/>
			<point x="468" y="292"/>
			<point x="464" y="324"/>
			<point x="456" y="354" type="curve" smooth="yes"/>
			<point x="447" y="384"/>
			<point x="435" y="411"/>
			<point x="419" y="435" type="curve" smooth="yes"/>
			<point x="402" y="459"/>
			<point x="381" y="478"/>
			<point x="355" y="494" type="curve" smooth="yes"/>
			<point x="328" y="508"/>
			<point x="299" y="516"/>
			<point x="267" y="516" type="curve" smooth="yes"/>
			<point x="216" y="516"/>
			<point x="175" y="494"/>
			<point x="144" y="450" type="curve"/>
			<point x="144" y="504" type="line"/>
			<point x="57" y="504" type="line"/>
			<point x="57" y="-166" type="line"/>
			<point x="144" y="-166" type="line"/>
			<point x="144" y="53" type="line"/>
			<point x="150" y="43"/>
			<point x="165" y="31"/>
			<point x="188" y="16" type="curve" smooth="yes"/>
			<point x="210" y="0"/>
			<point x="237" y="-7"/>
			<point x="271" y="-7" type="curve" smooth="yes"/>
			<point x="298" y="-7"/>
			<point x="324" y="-1"/>
			<point x="350" y="11" type="curve" smooth="yes"/>
			<point x="375" y="23"/>
			<point x="396" y="40"/>
			<point x="413" y="64" type="curve" smooth="yes"/>
			<point x="429" y="85"/>
			<point x="442" y="112"/>
			<point x="453" y="146" type="curve" smooth="yes"/>
			<point x="463" y="178"/>
			<point x="468" y="216"/>
		</contour>
		<contour>
			<point x="378" y="254" type="curve" smooth="yes"/>
			<point x="378" y="228"/>
			<point x="375" y="203"/>
			<point x="369" y="180" type="curve" smooth="yes"/>
			<point x="362" y="156"/>
			<point x="353" y="136"/>
			<point x="343" y="119" type="curve" smooth="yes"/>
			<point x="333" y="101"/>
			<point x="320" y="88"/>
			<point x="306" y="80" type="curve" smooth="yes"/>
			<point x="290" y="70"/>
			<point x="275" y="66"/>
			<point x="261" y="66" type="curve" smooth="yes"/>
			<point x="246" y="66"/>
			<point x="231" y="70"/>
			<point x="217" y="80" type="curve" smooth="yes"/>
			<point x="202" y="89"/>
			<point x="190" y="102"/>
			<point x="180" y="120" type="curve" smooth="yes"/>
			<point x="169" y="137"/>
			<point x="161" y="157"/>
			<point x="155" y="181" type="curve" smooth="yes"/>
			<point x="148" y="203"/>
			<point x="145" y="228"/>
			<point x="145" y="254" type="curve" smooth="yes"/>
			<point x="145" y="280"/>
			<point x="148" y="304"/>
			<point x="155" y="328" type="curve" smooth="yes"/>
			<point x="161" y="350"/>
			<point x="169" y="370"/>
			<point x="180" y="388" type="curve" smooth="yes"/>
			<point x="190" y="404"/>
			<point x="202" y="417"/>
			<point x="217" y="427" type="curve" smooth="yes"/>
			<point x="231" y="437"/>
			<point x="246" y="442"/>
			<point x="261" y="442" type="curve" smooth="yes"/>
			<point x="275" y="442"/>
			<point x="290" y="437"/>
			<point x="305" y="428" type="curve" smooth="yes"/>
			<point x="319" y="418"/>
			<point x="332" y="405"/>
			<point x="343" y="389" type="curve" smooth="yes"/>
			<point x="353" y="371"/>
			<point x="362" y="351"/>
			<point x="369" y="328" type="curve" smooth="yes"/>
			<point x="375" y="304"/>
			<point x="378" y="280"/>
		</contour>
	</outline>
</glyph>
<glyph name="q" format="2">
	<unicode hex="0071"/>
	<advance width="525"/>
	<outline>
		<contour>
			<point x="32" y="259" type="curve" smooth="yes"/>
			<point x="32" y="116.447"/>
			<point x="90.6284" y="-7"/>
			<point x="229" y="-7" type="curve" smooth="yes"/>
			<point x="283.011" y="-7"/>
			<point x="335.842" y="24.2023"/>
			<point x="356" y="53" type="curve"/>
			<point x="356" y="-166" type="line"/>
			<point x="443" y="-166" type="line"/>
			<point x="443" y="504" type="line"/>
			<point x="356" y="504" type="line"/>
			<point x="356" y="450" type="line"/>
			<point x="324" y="494"/>
			<point x="283" y="516"/>
			<point x="233" y="516" type="curve" smooth="yes"/>
			<point x="97.1159" y="516"/>
			<point x="32" y="394.354"/>
		</contour>
		<contour>
			<point x="122" y="254" type="curve" smooth="yes"/>
			<point x="122" y="337.869"/>
			<point x="156.937" y="442"/>
			<point x="239" y="442" type="curve" smooth="yes"/>
			<point x="318.8" y="442"/>
			<point x="355" y="337.404"/>
			<point x="355" y="254" type="curve" smooth="yes"/>
			<point x="355" y="168.636"/>
			<point x="319.239" y="66"/>
			<point x="239" y="66" type="curve" smooth="yes"/>
			<point x="156.626" y="66"/>
			<point x="122" y="168.578"/>
		</contour>
	</outline>
</glyph>
<glyph name="r" format="2">
	<unicode hex="0072"/>
	<advance width="350"/>
	<outline>
		<contour>
			<point x="338" y="428" type="curve"/>
			<point x="338" y="516" type="line"/>
			<point x="243.191" y="514.244"/>
			<point x="172.284" y="474.906"/>
			<point x="143" y="419" type="curve"/>
			<point x="143" y="504" type="line"/>
			<point x="57" y="504" type="line"/>
			<point x="57" y="0" type="line"/>
			<point x="143" y="0" type="line"/>
			<point x="143" y="209" type="line" smooth="yes"/>
			<point x="143" y="350.595"/>
			<point x="196.767" y="428"/>
		</contour>
	</outline>
</glyph>
<glyph name="s" format="2">
	<unicode hex="0073"/>
	<advance width="394"/>
	<outline>
		<contour>
			<point x="368" y="135" type="curve" smooth="yes"/>
			<point x="368" y="309"/>
			<point x="118" y="276"/>
			<point x="118" y="384" type="curve" smooth="yes"/>
			<point x="118" y="422.744"/>
			<point x="158.46" y="444"/>
			<point x="199" y="444" type="curve" smooth="yes"/>
			<point x="253.775" y="444"/>
			<point x="303.639" y="423.137"/>
			<point x="340" y="404" type="curve"/>
			<point x="340" y="492" type="line"/>
			<point x="292" y="508"/>
			<point x="247" y="516"/>
			<point x="205" y="516" type="curve" smooth="yes"/>
			<point x="108.24" y="516"/>
			<point x="32" y="468.13"/>
			<point x="32" y="375" type="curve" smooth="yes"/>
			<point x="32" y="204"/>
			<point x="280" y="245"/>
			<point x="280" y="130" type="curve" smooth="yes"/>
			<point x="280" y="80.6548"/>
			<point x="231.965" y="63"/>
			<point x="171" y="63" type="curve" smooth="yes"/>
			<point x="124.682" y="63"/>
			<point x="60.0728" y="88.4239"/>
			<point x="30" y="109" type="curve"/>
			<point x="30" y="16" type="line"/>
			<point x="86" y="-2"/>
			<point x="133" y="-11"/>
			<point x="171" y="-11" type="curve" smooth="yes"/>
			<point x="282.379" y="-11"/>
			<point x="368" y="24.4921"/>
		</contour>
	</outline>
</glyph>
<glyph name="t" format="2">
	<unicode hex="0074"/>
	<advance width="330"/>
	<outline>
		<contour>
			<point x="307" y="431" type="line"/>
			<point x="307" y="504" type="line"/>
			<point x="181" y="504" type="line"/>
			<point x="181" y="661" type="line"/>
			<point x="93" y="615" type="line"/>
			<point x="93" y="504" type="line"/>
			<point x="17" y="504" type="line"/>
			<point x="17" y="431" type="line"/>
			<point x="93" y="431" type="line"/>
			<point x="93" y="116" type="line" smooth="yes"/>
			<point x="93" y="74"/>
			<point x="104" y="43"/>
			<point x="127" y="22" type="curve" smooth="yes"/>
			<point x="149" y="0"/>
			<point x="183" y="-11"/>
			<point x="229" y="-11" type="curve" smooth="yes"/>
			<point x="257" y="-11"/>
			<point x="282" y="-9"/>
			<point x="305" y="-6" type="curve"/>
			<point x="305" y="70" type="line"/>
			<point x="279" y="65"/>
			<point x="259" y="63"/>
			<point x="244" y="63" type="curve" smooth="yes"/>
			<point x="229" y="63"/>
			<point x="217" y="65"/>
			<point x="209" y="70" type="curve" smooth="yes"/>
			<point x="199" y="74"/>
			<point x="193" y="80"/>
			<point x="189" y="90" type="curve" smooth="yes"/>
			<point x="183" y="102"/>
			<point x="181" y="114"/>
			<point x="181" y="127" type="curve" smooth="yes"/>
			<point x="181" y="139"/>
			<point x="181" y="153"/>
			<point x="181" y="169" type="curve" smooth="yes"/>
			<point x="181" y="431" type="line"/>
		</contour>
	</outline>
</glyph>
<glyph name="u" format="2">
	<unicode hex="0075"/>
	<advance width="500"/>
	<outline>
		<contour>
			<point x="57" y="504" type="line"/>
			<point x="57" y="167" type="line" smooth="yes"/>
			<point x="57" y="107"/>
			<point x="72" y="61"/>
			<point x="104" y="31" type="curve" smooth="yes"/>
			<point x="132" y="2"/>
			<point x="173" y="-12"/>
			<point x="226" y="-12" type="curve" smooth="yes"/>
			<point x="260" y="-12"/>
			<point x="293" y="0"/>
			<point x="324" y="26" type="curve" smooth="yes"/>
			<point x="339" y="41"/>
			<point x="350" y="54"/>
			<point x="356" y="64" type="curve"/>
			<point x="356" y="0" type="line"/>
			<point x="443" y="0" type="line"/>
			<point x="443" y="504" type="line"/>
			<point x="356" y="504" type="line"/>
			<point x="356" y="283" type="line" smooth="yes"/>
			<point x="356" y="270"/>
			<point x="355" y="258"/>
			<point x="355" y="247" type="curve" smooth="yes"/>
			<point x="353" y="235"/>
			<point x="351" y="223"/>
			<point x="349" y="211" type="curve" smooth="yes"/>
			<point x="339" y="163"/>
			<point x="323" y="127"/>
			<point x="303" y="103" type="curve" smooth="yes"/>
			<point x="281" y="78"/>
			<point x="258" y="66"/>
			<point x="232" y="66" type="curve" smooth="yes"/>
			<point x="202" y="66"/>
			<point x="181" y="75"/>
			<point x="169" y="93" type="curve" smooth="yes"/>
			<point x="153" y="117"/>
			<point x="145" y="146"/>
			<point x="145" y="181" type="curve" smooth="yes"/>
			<point x="145" y="504" type="line"/>
		</contour>
	</outline>
</glyph>
<glyph name="v" format="2">
	<unicode hex="0076"/>
	<advance width="488"/>
	<outline>
		<contour>
			<point x="456" y="504" type="line"/>
			<point x="371" y="504" type="line"/>
			<point x="243" y="122" type="line"/>
			<point x="105" y="504" type="line"/>
			<point x="15" y="504" type="line"/>
			<point x="205" y="0" type="line"/>
			<point x="282" y="0" type="line"/>
		</contour>
	</outline>
</glyph>
<glyph name="w" format="2">
	<unicode hex="0077"/>
	<advance width="640"/>
	<outline>
		<contour>
			<point x="623" y="504" type="line"/>
			<point x="540" y="504" type="line"/>
			<point x="460" y="144" type="line"/>
			<point x="354" y="504" type="line"/>
			<point x="286" y="504" type="line"/>
			<point x="181" y="145" type="line"/>
			<point x="102" y="504" type="line"/>
			<point x="17" y="504" type="line"/>
			<point x="137" y="0" type="line"/>
			<point x="215" y="0" type="line"/>
			<point x="320" y="355" type="line"/>
			<point x="427" y="0" type="line"/>
			<point x="507" y="0" type="line"/>
		</contour>
	</outline>
</glyph>
<glyph name="x" format="2">
	<unicode hex="0078"/>
	<advance width="487"/>
	<outline>
		<contour>
			<point x="450" y="0" type="line"/>
			<point x="280" y="266" type="line"/>
			<point x="434" y="504" type="line"/>
			<point x="338" y="504" type="line"/>
			<point x="233" y="340" type="line"/>
			<point x="129" y="504" type="line"/>
			<point x="33" y="504" type="line"/>
			<point x="186" y="266" type="line"/>
			<point x="14" y="0" type="line"/>
			<point x="111" y="0" type="line"/>
			<point x="233" y="190" type="line"/>
			<point x="353" y="0" type="line"/>
		</contour>
	</outline>
</glyph>
<glyph name="y" format="2">
	<unicode hex="0079"/>
	<advance width="477"/>
	<outline>
		<contour>
			<point x="350" y="504" type="line"/>
			<point x="232" y="155" type="line"/>
			<point x="105" y="504" type="line"/>
			<point x="13" y="504" type="line"/>
			<point x="192" y="35" type="line"/>
			<point x="124" y="-166" type="line"/>
			<point x="212" y="-166" type="line"/>
			<point x="440" y="504" type="line"/>
		</contour>
	</outline>
</glyph>
<glyph name="z" format="2">
	<unicode hex="007A"/>
	<advance width="420"/>
	<outline>
		<contour>
			<point x="393" y="0" type="line"/>
			<point x="393" y="73" type="line"/>
			<point x="128" y="73" type="line"/>
			<point x="381" y="430" type="line"/>
			<point x="381" y="504" type="line"/>
			<point x="44" y="504" type="line"/>
			<point x="44" y="431" type="line"/>
			<point x="283" y="431" type="line"/>
			<point x="27" y="68" type="line"/>
			<point x="27" y="0" type="line"/>
		</contour>
	</outline>
</glyph>
<glyph name="braceleft" format="2">
  <advance width="406"/>
  <unicode hex="007B"/>
  <outline>
    <contour>
      <point x="105" y="305" type="line"/>
      <point x="135" y="294"/>
      <point x="159" y="280"/>
      <point x="176" y="264" type="curve" smooth="yes"/>
      <point x="192" y="247"/>
      <point x="201" y="225"/>
      <point x="201" y="198" type="curve" smooth="yes"/>
      <point x="201" y="181"/>
      <point x="198" y="163"/>
      <point x="194" y="145" type="curve" smooth="yes"/>
      <point x="188" y="125"/>
      <point x="184" y="106"/>
      <point x="182" y="87" type="curve" smooth="yes"/>
      <point x="179" y="67"/>
      <point x="178" y="46"/>
      <point x="178" y="26" type="curve" smooth="yes"/>
      <point x="178" y="4"/>
      <point x="182" y="-16"/>
      <point x="192" y="-38" type="curve" smooth="yes"/>
      <point x="201" y="-58"/>
      <point x="212" y="-75"/>
      <point x="226" y="-89" type="curve" smooth="yes"/>
      <point x="239" y="-102"/>
      <point x="253" y="-113"/>
      <point x="269" y="-121" type="curve" smooth="yes"/>
      <point x="284" y="-130"/>
      <point x="300" y="-137"/>
      <point x="316" y="-141" type="curve" smooth="yes"/>
      <point x="332" y="-145"/>
      <point x="350" y="-146"/>
      <point x="370" y="-144" type="curve"/>
      <point x="370" y="-99" type="line"/>
      <point x="339" y="-90"/>
      <point x="317" y="-77"/>
      <point x="305" y="-61" type="curve" smooth="yes"/>
      <point x="291" y="-43"/>
      <point x="283" y="-26"/>
      <point x="279" y="-9" type="curve" smooth="yes"/>
      <point x="273" y="13"/>
      <point x="271" y="35"/>
      <point x="274" y="57" type="curve" smooth="yes"/>
      <point x="276" y="77"/>
      <point x="278" y="98"/>
      <point x="282" y="118" type="curve" smooth="yes"/>
      <point x="285" y="138"/>
      <point x="286" y="159"/>
      <point x="285" y="180" type="curve" smooth="yes"/>
      <point x="283" y="200"/>
      <point x="279" y="220"/>
      <point x="271" y="239" type="curve" smooth="yes"/>
      <point x="257" y="269"/>
      <point x="242" y="291"/>
      <point x="225" y="305" type="curve" smooth="yes"/>
      <point x="207" y="319"/>
      <point x="195" y="327"/>
      <point x="190" y="330" type="curve"/>
      <point x="196" y="332"/>
      <point x="208" y="341"/>
      <point x="226" y="356" type="curve" smooth="yes"/>
      <point x="242" y="370"/>
      <point x="257" y="392"/>
      <point x="271" y="422" type="curve" smooth="yes"/>
      <point x="279" y="440"/>
      <point x="283" y="460"/>
      <point x="285" y="481" type="curve" smooth="yes"/>
      <point x="286" y="501"/>
      <point x="285" y="522"/>
      <point x="282" y="542" type="curve" smooth="yes"/>
      <point x="278" y="562"/>
      <point x="276" y="583"/>
      <point x="274" y="605" type="curve" smooth="yes"/>
      <point x="271" y="625"/>
      <point x="273" y="647"/>
      <point x="279" y="670" type="curve" smooth="yes"/>
      <point x="283" y="687"/>
      <point x="291" y="704"/>
      <point x="305" y="722" type="curve" smooth="yes"/>
      <point x="317" y="738"/>
      <point x="339" y="751"/>
      <point x="370" y="760" type="curve"/>
      <point x="370" y="805" type="line"/>
      <point x="350" y="807"/>
      <point x="332" y="806"/>
      <point x="316" y="802" type="curve" smooth="yes"/>
      <point x="300" y="797"/>
      <point x="284" y="790"/>
      <point x="269" y="782" type="curve" smooth="yes"/>
      <point x="253" y="774"/>
      <point x="239" y="763"/>
      <point x="226" y="750" type="curve" smooth="yes"/>
      <point x="212" y="736"/>
      <point x="201" y="719"/>
      <point x="192" y="699" type="curve" smooth="yes"/>
      <point x="182" y="677"/>
      <point x="178" y="656"/>
      <point x="178" y="636" type="curve" smooth="yes"/>
      <point x="178" y="614"/>
      <point x="179" y="594"/>
      <point x="182" y="574" type="curve" smooth="yes"/>
      <point x="184" y="554"/>
      <point x="188" y="535"/>
      <point x="194" y="517" type="curve" smooth="yes"/>
      <point x="198" y="497"/>
      <point x="201" y="479"/>
      <point x="201" y="462" type="curve" smooth="yes"/>
      <point x="201" y="435"/>
      <point x="192" y="413"/>
      <point x="176" y="397" type="curve" smooth="yes"/>
      <point x="159" y="380"/>
      <point x="135" y="366"/>
      <point x="105" y="356" type="curve"/>
    </contour>
  </outline>
</glyph>
<glyph name="bar" format="2">
	<unicode hex="007C"/>
	<advance width="303"/>
	<outline>
		<contour>
			<point x="191" y="-126" type="line"/>
			<point x="191" y="785" type="line"/>
			<point x="112" y="785" type="line"/>
			<point x="112" y="-126" type="line"/>
		</contour>
	</outline>
</glyph>
<glyph name="braceright" format="2">
	<unicode hex="007D"/>
	<advance width="406"/>
	<outline>
		<contour>
			<point x="301" y="305" type="curve"/>
			<point x="301" y="356" type="line"/>
			<point x="270" y="366"/>
			<point x="246" y="380"/>
			<point x="230" y="397" type="curve" smooth="yes"/>
			<point x="213" y="413"/>
			<point x="205" y="435"/>
			<point x="205" y="462" type="curve" smooth="yes"/>
			<point x="205" y="479"/>
			<point x="207" y="497"/>
			<point x="213" y="517" type="curve" smooth="yes"/>
			<point x="217" y="535"/>
			<point x="221" y="554"/>
			<point x="224" y="574" type="curve" smooth="yes"/>
			<point x="226" y="594"/>
			<point x="228" y="614"/>
			<point x="228" y="636" type="curve" smooth="yes"/>
			<point x="228" y="656"/>
			<point x="223" y="677"/>
			<point x="214" y="699" type="curve" smooth="yes"/>
			<point x="204" y="719"/>
			<point x="193" y="736"/>
			<point x="180" y="750" type="curve" smooth="yes"/>
			<point x="166" y="763"/>
			<point x="152" y="774"/>
			<point x="137" y="782" type="curve" smooth="yes"/>
			<point x="121" y="790"/>
			<point x="106" y="797"/>
			<point x="90" y="802" type="curve" smooth="yes"/>
			<point x="74" y="806"/>
			<point x="56" y="807"/>
			<point x="36" y="805" type="curve"/>
			<point x="36" y="760" type="line"/>
			<point x="66" y="751"/>
			<point x="88" y="738"/>
			<point x="102" y="722" type="curve" smooth="yes"/>
			<point x="114" y="704"/>
			<point x="123" y="687"/>
			<point x="127" y="670" type="curve" smooth="yes"/>
			<point x="133" y="647"/>
			<point x="135" y="625"/>
			<point x="133" y="605" type="curve" smooth="yes"/>
			<point x="130" y="583"/>
			<point x="127" y="562"/>
			<point x="124" y="542" type="curve" smooth="yes"/>
			<point x="120" y="522"/>
			<point x="119" y="501"/>
			<point x="121" y="481" type="curve" smooth="yes"/>
			<point x="122" y="460"/>
			<point x="127" y="440"/>
			<point x="135" y="422" type="curve" smooth="yes"/>
			<point x="148" y="392"/>
			<point x="163" y="370"/>
			<point x="181" y="356" type="curve" smooth="yes"/>
			<point x="197" y="341"/>
			<point x="209" y="332"/>
			<point x="216" y="330" type="curve"/>
			<point x="210" y="327"/>
			<point x="199" y="319"/>
			<point x="182" y="305" type="curve" smooth="yes"/>
			<point x="164" y="291"/>
			<point x="148" y="269"/>
			<point x="135" y="239" type="curve" smooth="yes"/>
			<point x="127" y="220"/>
			<point x="122" y="200"/>
			<point x="121" y="180" type="curve" smooth="yes"/>
			<point x="119" y="159"/>
			<point x="120" y="138"/>
			<point x="124" y="118" type="curve" smooth="yes"/>
			<point x="127" y="98"/>
			<point x="130" y="77"/>
			<point x="133" y="57" type="curve" smooth="yes"/>
			<point x="135" y="35"/>
			<point x="133" y="13"/>
			<point x="127" y="-9" type="curve" smooth="yes"/>
			<point x="123" y="-26"/>
			<point x="114" y="-43"/>
			<point x="102" y="-61" type="curve" smooth="yes"/>
			<point x="88" y="-77"/>
			<point x="66" y="-90"/>
			<point x="36" y="-99" type="curve"/>
			<point x="36" y="-144" type="line"/>
			<point x="56" y="-146"/>
			<point x="74" y="-145"/>
			<point x="90" y="-141" type="curve" smooth="yes"/>
			<point x="106" y="-137"/>
			<point x="121" y="-130"/>
			<point x="137" y="-121" type="curve" smooth="yes"/>
			<point x="152" y="-113"/>
			<point x="166" y="-102"/>
			<point x="180" y="-89" type="curve" smooth="yes"/>
			<point x="193" y="-75"/>
			<point x="204" y="-58"/>
			<point x="214" y="-38" type="curve" smooth="yes"/>
			<point x="223" y="-16"/>
			<point x="228" y="4"/>
			<point x="228" y="26" type="curve" smooth="yes"/>
			<point x="228" y="46"/>
			<point x="226" y="67"/>
			<point x="224" y="87" type="curve" smooth="yes"/>
			<point x="221" y="106"/>
			<point x="217" y="125"/>
			<point x="213" y="145" type="curve" smooth="yes"/>
			<point x="207" y="163"/>
			<point x="205" y="181"/>
			<point x="205" y="198" type="curve" smooth="yes"/>
			<point x="205" y="225"/>
			<point x="213" y="247"/>
			<point x="230" y="264" type="curve" smooth="yes"/>
			<point x="246" y="280"/>
			<point x="270" y="294"/>
		</contour>
	</outline>
</glyph>
<glyph name="asciitilde" format="2">
	<unicode hex="007E"/>
	<advance width="524"/>
	<outline>
		<contour>
			<point x="490" y="434" type="curve"/>
			<point x="413" y="434" type="line"/>
			<point x="413" y="373.598"/>
			<point x="403.49" y="325"/>
			<point x="355" y="325" type="curve" smooth="yes"/>
			<point x="300" y="325"/>
			<point x="269" y="448"/>
			<point x="165" y="448" type="curve" smooth="yes"/>
			<point x="74.5088" y="448"/>
			<point x="35" y="360.935"/>
			<point x="35" y="261" type="curve"/>
			<point x="111" y="261" type="line"/>
			<point x="111" y="319.648"/>
			<point x="120" y="372"/>
			<point x="167" y="372" type="curve" smooth="yes"/>
			<point x="224" y="372"/>
			<point x="248" y="249"/>
			<point x="358" y="249" type="curve" smooth="yes"/>
			<point x="452.547" y="249"/>
			<point x="490" y="331.577"/>
		</contour>
	</outline>
</glyph>
<glyph name="uni0082" format="2">
	<unicode hex="0082"/>
	<advance width="428"/>
	<outline>
		<contour>
			<point x="361" y="379" type="line"/>
			<point x="47" y="379" type="line"/>
			<point x="47" y="305" type="line"/>
			<point x="361" y="305" type="line"/>
		</contour>
	</outline>
</glyph>
<glyph name="uni0085" format="2">
	<unicode hex="0085"/>
	<advance width="858"/>
	<outline>
		<contour>
			<point x="765" y="392" type="line"/>
			<point x="665" y="392" type="line"/>
			<point x="665" y="292" type="line"/>
			<point x="765" y="292" type="line"/>
		</contour>
		<contour>
			<point x="479" y="392" type="line"/>
			<point x="379" y="392" type="line"/>
			<point x="379" y="292" type="line"/>
			<point x="479" y="292" type="line"/>
		</contour>
		<contour>
			<point x="193" y="392" type="line"/>
			<point x="93" y="392" type="line"/>
			<point x="93" y="292" type="line"/>
			<point x="193" y="292" type="line"/>
		</contour>
	</outline>
</glyph>
<glyph name="exclamdown" format="2">
  <advance width="838"/>
  <unicode hex="00A1"/>
  <outline>
    <contour>
      <point x="467" y="-76" type="line"/>
      <point x="460" y="495" type="line"/>
      <point x="377" y="495" type="line"/>
      <point x="370" y="-76" type="line"/>
    </contour>
    <contour>
      <point x="474" y="739" type="line"/>
      <point x="364" y="739" type="line"/>
      <point x="364" y="627" type="line"/>
      <point x="474" y="627" type="line"/>
    </contour>
  </outline>
</glyph>
<glyph name="sterling" format="2">
	<unicode hex="00A3"/>
	<advance width="940"/>
	<outline>
		<contour>
			<point x="683" y="200" type="line"/>
			<point x="683" y="114.652"/>
			<point x="650.697" y="98"/>
			<point x="567" y="98" type="curve" smooth="yes"/>
			<point x="324" y="98" type="line"/>
			<point x="342.322" y="134.643"/>
			<point x="354" y="221.432"/>
			<point x="354" y="278" type="curve" smooth="yes"/>
			<point x="354" y="299"/>
			<point x="352" y="322"/>
			<point x="350" y="347" type="curve"/>
			<point x="604" y="347" type="line"/>
			<point x="604" y="407" type="line"/>
			<point x="342" y="407" type="line"/>
			<point x="336.37" y="434.025"/>
			<point x="332.5" y="468.996"/>
			<point x="332.5" y="504.824" type="curve" smooth="yes"/>
			<point x="332.5" y="600.025"/>
			<point x="395.3" y="680"/>
			<point x="491" y="680" type="curve" smooth="yes"/>
			<point x="567.161" y="680"/>
			<point x="617.812" y="616.127"/>
			<point x="629" y="549" type="curve"/>
			<point x="701" y="549" type="line"/>
			<point x="688.615" y="656.341"/>
			<point x="611.083" y="748"/>
			<point x="492" y="748" type="curve" smooth="yes"/>
			<point x="358.245" y="748"/>
			<point x="259.892" y="650.199"/>
			<point x="259.892" y="513.892" type="curve" smooth="yes"/>
			<point x="259.892" y="477.031"/>
			<point x="261.65" y="442.312"/>
			<point x="267" y="407" type="curve"/>
			<point x="209" y="407" type="line"/>
			<point x="209" y="347" type="line"/>
			<point x="274" y="347" type="line"/>
			<point x="278" y="324"/>
			<point x="280" y="302"/>
			<point x="280" y="280" type="curve" smooth="yes"/>
			<point x="280" y="220.175"/>
			<point x="265.837" y="136.673"/>
			<point x="247" y="99" type="curve"/>
			<point x="175" y="99" type="line"/>
			<point x="175" y="32" type="line"/>
			<point x="572" y="32" type="line" smooth="yes"/>
			<point x="699.359" y="32"/>
			<point x="754" y="73.635"/>
			<point x="754" y="200" type="curve"/>
		</contour>
	</outline>
</glyph>
<glyph name="currency" format="2">
	<unicode hex="00A4"/>
	<advance width="678"/>
	<outline>
		<contour>
			<point x="111" y="332" type="curve" smooth="yes"/>
			<point x="111" y="274"/>
			<point x="127" y="224"/>
			<point x="161" y="183" type="curve"/>
			<point x="84" y="101" type="line"/>
			<point x="131" y="57" type="line"/>
			<point x="207" y="138" type="line"/>
			<point x="247" y="106"/>
			<point x="292" y="91"/>
			<point x="343" y="91" type="curve" smooth="yes"/>
			<point x="393" y="91"/>
			<point x="439" y="106"/>
			<point x="479" y="138" type="curve"/>
			<point x="555" y="57" type="line"/>
			<point x="602" y="101" type="line"/>
			<point x="526" y="183" type="line"/>
			<point x="558" y="225"/>
			<point x="575" y="274"/>
			<point x="575" y="332" type="curve" smooth="yes"/>
			<point x="575" y="389"/>
			<point x="558" y="439"/>
			<point x="526" y="481" type="curve"/>
			<point x="602" y="562" type="line"/>
			<point x="556" y="606" type="line"/>
			<point x="481" y="525" type="line"/>
			<point x="439" y="557"/>
			<point x="393" y="573"/>
			<point x="343" y="573" type="curve" smooth="yes"/>
			<point x="292" y="573"/>
			<point x="246" y="557"/>
			<point x="205" y="525" type="curve"/>
			<point x="130" y="606" type="line"/>
			<point x="84" y="562" type="line"/>
			<point x="160" y="480" type="line"/>
			<point x="127" y="438"/>
			<point x="111" y="389"/>
		</contour>
		<contour>
			<point x="177" y="332" type="curve" smooth="yes"/>
			<point x="177" y="384"/>
			<point x="193" y="427"/>
			<point x="227" y="461" type="curve" smooth="yes"/>
			<point x="260" y="494"/>
			<point x="299" y="511"/>
			<point x="343" y="511" type="curve" smooth="yes"/>
			<point x="387" y="511"/>
			<point x="425" y="494"/>
			<point x="459" y="461" type="curve" smooth="yes"/>
			<point x="492" y="427"/>
			<point x="509" y="384"/>
			<point x="509" y="332" type="curve" smooth="yes"/>
			<point x="509" y="279"/>
			<point x="492" y="236"/>
			<point x="459" y="203" type="curve" smooth="yes"/>
			<point x="425" y="169"/>
			<point x="387" y="153"/>
			<point x="343" y="153" type="curve" smooth="yes"/>
			<point x="299" y="153"/>
			<point x="260" y="169"/>
			<point x="227" y="203" type="curve" smooth="yes"/>
			<point x="193" y="236"/>
			<point x="177" y="279"/>
		</contour>
	</outline>
</glyph>
<glyph name="section" format="2">
	<unicode hex="00A7"/>
	<advance width="347"/>
	<outline>
		<contour>
			<point x="307" y="268" type="curve" smooth="yes"/>
			<point x="313" y="293"/>
			<point x="312" y="319"/>
			<point x="303" y="345" type="curve" smooth="yes"/>
			<point x="293" y="371"/>
			<point x="281" y="393"/>
			<point x="269" y="413" type="curve" smooth="yes"/>
			<point x="255" y="432"/>
			<point x="240" y="450"/>
			<point x="224" y="467" type="curve" smooth="yes"/>
			<point x="207" y="483"/>
			<point x="192" y="499"/>
			<point x="178" y="515" type="curve" smooth="yes"/>
			<point x="163" y="531"/>
			<point x="151" y="548"/>
			<point x="142" y="566" type="curve" smooth="yes"/>
			<point x="132" y="583"/>
			<point x="128" y="603"/>
			<point x="128" y="625" type="curve" smooth="yes"/>
			<point x="128" y="647"/>
			<point x="132" y="662"/>
			<point x="142" y="672" type="curve" smooth="yes"/>
			<point x="150" y="681"/>
			<point x="159" y="686"/>
			<point x="169" y="688" type="curve" smooth="yes"/>
			<point x="178" y="689"/>
			<point x="186" y="688"/>
			<point x="194" y="684" type="curve" smooth="yes"/>
			<point x="201" y="680"/>
			<point x="204" y="676"/>
			<point x="204" y="672" type="curve" smooth="yes"/>
			<point x="201" y="662"/>
			<point x="201" y="651"/>
			<point x="204" y="640" type="curve" smooth="yes"/>
			<point x="206" y="628"/>
			<point x="211" y="619"/>
			<point x="219" y="611" type="curve" smooth="yes"/>
			<point x="225" y="603"/>
			<point x="234" y="598"/>
			<point x="245" y="596" type="curve" smooth="yes"/>
			<point x="255" y="593"/>
			<point x="265" y="597"/>
			<point x="276" y="609" type="curve" smooth="yes"/>
			<point x="285" y="618"/>
			<point x="289" y="630"/>
			<point x="288" y="645" type="curve" smooth="yes"/>
			<point x="286" y="659"/>
			<point x="280" y="674"/>
			<point x="270" y="688" type="curve" smooth="yes"/>
			<point x="260" y="701"/>
			<point x="246" y="713"/>
			<point x="230" y="723" type="curve" smooth="yes"/>
			<point x="212" y="733"/>
			<point x="192" y="738"/>
			<point x="170" y="738" type="curve" smooth="yes"/>
			<point x="138" y="737"/>
			<point x="111" y="725"/>
			<point x="90" y="702" type="curve" smooth="yes"/>
			<point x="68" y="678"/>
			<point x="57" y="643"/>
			<point x="59" y="598" type="curve" smooth="yes"/>
			<point x="59" y="579"/>
			<point x="61" y="562"/>
			<point x="66" y="547" type="curve" smooth="yes"/>
			<point x="70" y="531"/>
			<point x="75" y="518"/>
			<point x="81" y="507" type="curve" smooth="yes"/>
			<point x="87" y="494"/>
			<point x="92" y="485"/>
			<point x="97" y="480" type="curve" smooth="yes"/>
			<point x="101" y="474"/>
			<point x="103" y="472"/>
			<point x="103" y="472" type="curve"/>
			<point x="91" y="468"/>
			<point x="81" y="464"/>
			<point x="75" y="459" type="curve" smooth="yes"/>
			<point x="67" y="453"/>
			<point x="59" y="442"/>
			<point x="50" y="426" type="curve" smooth="yes"/>
			<point x="42" y="408"/>
			<point x="40" y="390"/>
			<point x="42" y="374" type="curve" smooth="yes"/>
			<point x="43" y="356"/>
			<point x="47" y="339"/>
			<point x="54" y="323" type="curve" smooth="yes"/>
			<point x="62" y="306"/>
			<point x="71" y="290"/>
			<point x="82" y="276" type="curve" smooth="yes"/>
			<point x="92" y="260"/>
			<point x="104" y="246"/>
			<point x="116" y="232" type="curve" smooth="yes"/>
			<point x="128" y="216"/>
			<point x="140" y="201"/>
			<point x="154" y="187" type="curve" smooth="yes"/>
			<point x="166" y="171"/>
			<point x="178" y="156"/>
			<point x="188" y="141" type="curve" smooth="yes"/>
			<point x="196" y="126"/>
			<point x="203" y="111"/>
			<point x="208" y="95" type="curve" smooth="yes"/>
			<point x="212" y="79"/>
			<point x="213" y="61"/>
			<point x="210" y="43" type="curve" smooth="yes"/>
			<point x="207" y="27"/>
			<point x="201" y="16"/>
			<point x="193" y="11" type="curve" smooth="yes"/>
			<point x="184" y="5"/>
			<point x="175" y="1"/>
			<point x="167" y="1" type="curve" smooth="yes"/>
			<point x="159" y="0"/>
			<point x="153" y="1"/>
			<point x="148" y="5" type="curve" smooth="yes"/>
			<point x="142" y="8"/>
			<point x="140" y="11"/>
			<point x="141" y="14" type="curve" smooth="yes"/>
			<point x="142" y="19"/>
			<point x="142" y="26"/>
			<point x="141" y="36" type="curve" smooth="yes"/>
			<point x="139" y="44"/>
			<point x="136" y="53"/>
			<point x="132" y="61" type="curve" smooth="yes"/>
			<point x="128" y="69"/>
			<point x="122" y="75"/>
			<point x="114" y="81" type="curve" smooth="yes"/>
			<point x="106" y="86"/>
			<point x="96" y="87"/>
			<point x="85" y="84" type="curve" smooth="yes"/>
			<point x="73" y="81"/>
			<point x="65" y="74"/>
			<point x="63" y="63" type="curve" smooth="yes"/>
			<point x="59" y="51"/>
			<point x="59" y="38"/>
			<point x="62" y="26" type="curve" smooth="yes"/>
			<point x="65" y="12"/>
			<point x="72" y="0"/>
			<point x="82" y="-14" type="curve" smooth="yes"/>
			<point x="92" y="-26"/>
			<point x="105" y="-36"/>
			<point x="123" y="-43" type="curve" smooth="yes"/>
			<point x="138" y="-49"/>
			<point x="154" y="-52"/>
			<point x="172" y="-52" type="curve" smooth="yes"/>
			<point x="189" y="-51"/>
			<point x="205" y="-47"/>
			<point x="221" y="-39" type="curve" smooth="yes"/>
			<point x="235" y="-31"/>
			<point x="247" y="-19"/>
			<point x="259" y="-5" type="curve" smooth="yes"/>
			<point x="270" y="9"/>
			<point x="278" y="27"/>
			<point x="283" y="49" type="curve" smooth="yes"/>
			<point x="288" y="72"/>
			<point x="290" y="94"/>
			<point x="288" y="114" type="curve" smooth="yes"/>
			<point x="286" y="133"/>
			<point x="282" y="150"/>
			<point x="277" y="165" type="curve" smooth="yes"/>
			<point x="272" y="179"/>
			<point x="268" y="190"/>
			<point x="265" y="196" type="curve" smooth="yes"/>
			<point x="261" y="202"/>
			<point x="257" y="207"/>
			<point x="255" y="211" type="curve"/>
			<point x="257" y="211"/>
			<point x="265" y="216"/>
			<point x="279" y="225" type="curve" smooth="yes"/>
			<point x="292" y="233"/>
			<point x="301" y="248"/>
		</contour>
		<contour>
			<point x="217" y="353" type="curve" smooth="yes"/>
			<point x="223" y="343"/>
			<point x="229" y="333"/>
			<point x="234" y="323" type="curve" smooth="yes"/>
			<point x="238" y="311"/>
			<point x="241" y="301"/>
			<point x="242" y="291" type="curve" smooth="yes"/>
			<point x="242" y="281"/>
			<point x="240" y="274"/>
			<point x="236" y="268" type="curve" smooth="yes"/>
			<point x="232" y="262"/>
			<point x="224" y="259"/>
			<point x="214" y="259" type="curve" smooth="yes"/>
			<point x="206" y="259"/>
			<point x="196" y="264"/>
			<point x="182" y="275" type="curve" smooth="yes"/>
			<point x="167" y="285"/>
			<point x="151" y="302"/>
			<point x="135" y="326" type="curve" smooth="yes"/>
			<point x="127" y="336"/>
			<point x="120" y="348"/>
			<point x="116" y="361" type="curve" smooth="yes"/>
			<point x="111" y="373"/>
			<point x="109" y="383"/>
			<point x="109" y="393" type="curve" smooth="yes"/>
			<point x="109" y="403"/>
			<point x="111" y="410"/>
			<point x="116" y="416" type="curve" smooth="yes"/>
			<point x="120" y="420"/>
			<point x="127" y="422"/>
			<point x="138" y="421" type="curve" smooth="yes"/>
			<point x="147" y="419"/>
			<point x="159" y="412"/>
			<point x="173" y="402" type="curve" smooth="yes"/>
			<point x="186" y="390"/>
			<point x="201" y="374"/>
		</contour>
	</outline>
</glyph>
<glyph name="copyright" format="2">
	<unicode hex="00A9"/>
	<advance width="838"/>
	<outline>
		<contour>
			<point x="591" y="447" type="line"/>
			<point x="591" y="550.844"/>
			<point x="521.866" y="617"/>
			<point x="420" y="617" type="curve" smooth="yes"/>
			<point x="271.802" y="617"/>
			<point x="200" y="492.906"/>
			<point x="200" y="345" type="curve" smooth="yes"/>
			<point x="200" y="193.039"/>
			<point x="270.945" y="57"/>
			<point x="421" y="57" type="curve" smooth="yes"/>
			<point x="485.162" y="57"/>
			<point x="532.241" y="71.1205"/>
			<point x="574" y="92" type="curve"/>
			<point x="574" y="176" type="line"/>
			<point x="533.58" y="145.281"/>
			<point x="496.201" y="123"/>
			<point x="437" y="123" type="curve" smooth="yes"/>
			<point x="324.014" y="123"/>
			<point x="276" y="233.921"/>
			<point x="276" y="345" type="curve" smooth="yes"/>
			<point x="276" y="446.844"/>
			<point x="320.249" y="551"/>
			<point x="420" y="551" type="curve"/>
			<point x="479.557" y="545.586"/>
			<point x="513" y="514.803"/>
			<point x="513" y="447" type="curve"/>
		</contour>
		<contour>
			<point x="823" y="331" type="curve" smooth="yes"/>
			<point x="823" y="567.436"/>
			<point x="653.624" y="745"/>
			<point x="419" y="745" type="curve" smooth="yes"/>
			<point x="183.566" y="745"/>
			<point x="15" y="566.7"/>
			<point x="15" y="331" type="curve" smooth="yes"/>
			<point x="15" y="94.666"/>
			<point x="183.993" y="-81"/>
			<point x="419" y="-81" type="curve" smooth="yes"/>
			<point x="653.735" y="-81"/>
			<point x="823" y="94.9868"/>
		</contour>
		<contour>
			<point x="759" y="331" type="curve" smooth="yes"/>
			<point x="759" y="130.093"/>
			<point x="617.76" y="-21"/>
			<point x="419" y="-21" type="curve" smooth="yes"/>
			<point x="219.755" y="-21"/>
			<point x="79" y="130.368"/>
			<point x="79" y="331" type="curve" smooth="yes"/>
			<point x="79" y="531.224"/>
			<point x="219.206" y="685"/>
			<point x="419" y="685" type="curve" smooth="yes"/>
			<point x="618.252" y="685"/>
			<point x="759" y="532.176"/>
		</contour>
	</outline>
</glyph>
<glyph name="ordfeminine" format="2">
	<unicode hex="00AA"/>
	<advance width="641"/>
	<outline>
		<contour>
			<point x="101" y="188" type="line"/>
			<point x="502" y="188" type="line"/>
			<point x="502" y="259" type="line"/>
			<point x="101" y="259" type="line"/>
		</contour>
		<contour>
			<point x="381" y="306" type="line"/>
			<point x="462" y="306" type="line"/>
			<point x="462" y="588" type="line" smooth="yes"/>
			<point x="462" y="668.006"/>
			<point x="395.084" y="726"/>
			<point x="311" y="726" type="curve" smooth="yes"/>
			<point x="229.002" y="726"/>
			<point x="156" y="679.944"/>
			<point x="156" y="601" type="curve"/>
			<point x="246" y="601" type="line"/>
			<point x="246" y="641.594"/>
			<point x="269.2" y="656"/>
			<point x="311" y="656" type="curve" smooth="yes"/>
			<point x="357.887" y="656"/>
			<point x="381" y="629.675"/>
			<point x="381" y="585" type="curve" smooth="yes"/>
			<point x="381" y="560" type="line"/>
			<point x="261.448" y="560"/>
			<point x="147" y="527.094"/>
			<point x="147" y="408" type="curve" smooth="yes"/>
			<point x="147" y="341.031"/>
			<point x="198.794" y="297"/>
			<point x="264" y="297" type="curve" smooth="yes"/>
			<point x="321.246" y="297"/>
			<point x="351.87" y="317.87"/>
			<point x="381" y="347" type="curve"/>
		</contour>
		<contour>
			<point x="381" y="460" type="line" smooth="yes"/>
			<point x="381" y="408.936"/>
			<point x="340.122" y="367"/>
			<point x="290" y="367" type="curve" smooth="yes"/>
			<point x="256.271" y="367"/>
			<point x="232" y="380.505"/>
			<point x="232" y="417" type="curve" smooth="yes"/>
			<point x="232" y="487.28"/>
			<point x="310.036" y="497"/>
			<point x="381" y="497" type="curve"/>
		</contour>
	</outline>
</glyph>
<glyph name="guillemotleft" format="2">
	<unicode hex="00AB"/>
	<advance width="986"/>
	<outline>
		<contour>
			<point x="213" y="342" type="line"/>
			<point x="791" y="739" type="line"/>
			<point x="767" y="767" type="line"/>
			<point x="142" y="342" type="line"/>
			<point x="767" y="-83" type="line"/>
			<point x="791" y="-55" type="line"/>
		</contour>
		<contour>
			<point x="409" y="342" type="line"/>
			<point x="885" y="672" type="line"/>
			<point x="861" y="700" type="line"/>
			<point x="338" y="342" type="line"/>
			<point x="861" y="-17" type="line"/>
			<point x="884" y="13" type="line"/>
		</contour>
	</outline>
</glyph>
<glyph name="uni00AD" format="2">
  <advance width="367"/>
  <unicode hex="00AD"/>
  <outline>
    <contour>
      <point x="331" y="385" type="line"/>
      <point x="35" y="385" type="line"/>
      <point x="35" y="299" type="line"/>
      <point x="331" y="299" type="line"/>
    </contour>
  </outline>
</glyph>
<glyph name="registered" format="2">
	<unicode hex="00AE"/>
	<advance width="838"/>
	<outline>
		<contour>
			<point x="759" y="331" type="curve" smooth="yes"/>
			<point x="759" y="279"/>
			<point x="750" y="232"/>
			<point x="732" y="190" type="curve" smooth="yes"/>
			<point x="713" y="147"/>
			<point x="688" y="110"/>
			<point x="658" y="79" type="curve" smooth="yes"/>
			<point x="627" y="48"/>
			<point x="591" y="24"/>
			<point x="550" y="6" type="curve" smooth="yes"/>
			<point x="508" y="-12"/>
			<point x="465" y="-21"/>
			<point x="419" y="-21" type="curve" smooth="yes"/>
			<point x="373" y="-21"/>
			<point x="329" y="-12"/>
			<point x="288" y="6" type="curve" smooth="yes"/>
			<point x="246" y="24"/>
			<point x="210" y="48"/>
			<point x="180" y="79" type="curve" smooth="yes"/>
			<point x="149" y="110"/>
			<point x="125" y="147"/>
			<point x="107" y="190" type="curve" smooth="yes"/>
			<point x="88" y="232"/>
			<point x="79" y="279"/>
			<point x="79" y="331" type="curve" smooth="yes"/>
			<point x="79" y="383"/>
			<point x="88" y="431"/>
			<point x="107" y="474" type="curve" smooth="yes"/>
			<point x="125" y="516"/>
			<point x="149" y="552"/>
			<point x="180" y="584" type="curve" smooth="yes"/>
			<point x="210" y="614"/>
			<point x="246" y="639"/>
			<point x="288" y="658" type="curve" smooth="yes"/>
			<point x="329" y="676"/>
			<point x="373" y="685"/>
			<point x="419" y="685" type="curve" smooth="yes"/>
			<point x="465" y="685"/>
			<point x="508" y="676"/>
			<point x="550" y="658" type="curve" smooth="yes"/>
			<point x="591" y="639"/>
			<point x="627" y="614"/>
			<point x="658" y="584" type="curve" smooth="yes"/>
			<point x="688" y="552"/>
			<point x="713" y="516"/>
			<point x="732" y="474" type="curve" smooth="yes"/>
			<point x="750" y="431"/>
			<point x="759" y="383"/>
		</contour>
		<contour>
			<point x="823" y="331" type="curve" smooth="yes"/>
			<point x="823" y="391"/>
			<point x="812" y="446"/>
			<point x="791" y="496" type="curve" smooth="yes"/>
			<point x="769" y="545"/>
			<point x="740" y="588"/>
			<point x="704" y="625" type="curve" smooth="yes"/>
			<point x="667" y="661"/>
			<point x="624" y="691"/>
			<point x="576" y="713" type="curve" smooth="yes"/>
			<point x="527" y="734"/>
			<point x="475" y="745"/>
			<point x="419" y="745" type="curve" smooth="yes"/>
			<point x="363" y="745"/>
			<point x="310" y="734"/>
			<point x="262" y="713" type="curve" smooth="yes"/>
			<point x="213" y="691"/>
			<point x="170" y="661"/>
			<point x="134" y="625" type="curve" smooth="yes"/>
			<point x="97" y="588"/>
			<point x="68" y="545"/>
			<point x="47" y="496" type="curve" smooth="yes"/>
			<point x="25" y="446"/>
			<point x="15" y="391"/>
			<point x="15" y="331" type="curve" smooth="yes"/>
			<point x="15" y="271"/>
			<point x="25" y="216"/>
			<point x="47" y="167" type="curve" smooth="yes"/>
			<point x="68" y="117"/>
			<point x="97" y="74"/>
			<point x="134" y="38" type="curve" smooth="yes"/>
			<point x="170" y="1"/>
			<point x="213" y="-27"/>
			<point x="262" y="-49" type="curve" smooth="yes"/>
			<point x="310" y="-70"/>
			<point x="363" y="-81"/>
			<point x="419" y="-81" type="curve" smooth="yes"/>
			<point x="475" y="-81"/>
			<point x="527" y="-70"/>
			<point x="576" y="-49" type="curve" smooth="yes"/>
			<point x="624" y="-27"/>
			<point x="667" y="1"/>
			<point x="704" y="38" type="curve" smooth="yes"/>
			<point x="740" y="74"/>
			<point x="769" y="117"/>
			<point x="791" y="167" type="curve" smooth="yes"/>
			<point x="812" y="216"/>
			<point x="823" y="271"/>
		</contour>
		<contour>
			<point x="597" y="449" type="curve" smooth="yes"/>
			<point x="597" y="479"/>
			<point x="591" y="504"/>
			<point x="581" y="524" type="curve" smooth="yes"/>
			<point x="569" y="543"/>
			<point x="555" y="559"/>
			<point x="537" y="573" type="curve" smooth="yes"/>
			<point x="519" y="583"/>
			<point x="500" y="592"/>
			<point x="479" y="598" type="curve" smooth="yes"/>
			<point x="457" y="604"/>
			<point x="435" y="607"/>
			<point x="413" y="607" type="curve" smooth="yes"/>
			<point x="273" y="607" type="line"/>
			<point x="273" y="66" type="line"/>
			<point x="348" y="66" type="line"/>
			<point x="348" y="290" type="line"/>
			<point x="364" y="290" type="line"/>
			<point x="408" y="290" type="line" smooth="yes"/>
			<point x="436" y="290"/>
			<point x="461" y="274"/>
			<point x="483" y="243" type="curve" smooth="yes"/>
			<point x="503" y="214"/>
			<point x="519" y="155"/>
			<point x="533" y="66" type="curve"/>
			<point x="610" y="66" type="line"/>
			<point x="599" y="132"/>
			<point x="585" y="190"/>
			<point x="569" y="238" type="curve" smooth="yes"/>
			<point x="552" y="282"/>
			<point x="534" y="309"/>
			<point x="514" y="319" type="curve"/>
			<point x="515" y="319"/>
			<point x="523" y="324"/>
			<point x="539" y="334" type="curve" smooth="yes"/>
			<point x="555" y="345"/>
			<point x="569" y="361"/>
			<point x="581" y="382" type="curve" smooth="yes"/>
			<point x="591" y="402"/>
			<point x="597" y="424"/>
		</contour>
		<contour>
			<point x="348" y="360" type="line"/>
			<point x="348" y="540" type="line"/>
			<point x="414" y="540" type="line" smooth="yes"/>
			<point x="426" y="540"/>
			<point x="439" y="538"/>
			<point x="452" y="535" type="curve" smooth="yes"/>
			<point x="464" y="531"/>
			<point x="476" y="526"/>
			<point x="487" y="520" type="curve" smooth="yes"/>
			<point x="496" y="513"/>
			<point x="504" y="504"/>
			<point x="512" y="493" type="curve" smooth="yes"/>
			<point x="518" y="481"/>
			<point x="522" y="466"/>
			<point x="522" y="449" type="curve" smooth="yes"/>
			<point x="522" y="433"/>
			<point x="518" y="419"/>
			<point x="512" y="407" type="curve" smooth="yes"/>
			<point x="504" y="394"/>
			<point x="496" y="385"/>
			<point x="488" y="379" type="curve" smooth="yes"/>
			<point x="477" y="371"/>
			<point x="465" y="366"/>
			<point x="453" y="364" type="curve" smooth="yes"/>
			<point x="440" y="361"/>
			<point x="426" y="360"/>
			<point x="410" y="360" type="curve" smooth="yes"/>
			<point x="364" y="360" type="line"/>
		</contour>
	</outline>
</glyph>
<glyph name="degree" format="2">
	<unicode hex="00B0"/>
	<advance width="255"/>
	<outline>
		<contour>
			<point x="164" y="670" type="curve" smooth="yes"/>
			<point x="164" y="659"/>
			<point x="160" y="650"/>
			<point x="154" y="644" type="curve" smooth="yes"/>
			<point x="146" y="636"/>
			<point x="138" y="633"/>
			<point x="128" y="633" type="curve" smooth="yes"/>
			<point x="118" y="633"/>
			<point x="109" y="636"/>
			<point x="103" y="644" type="curve" smooth="yes"/>
			<point x="95" y="650"/>
			<point x="92" y="659"/>
			<point x="92" y="670" type="curve" smooth="yes"/>
			<point x="92" y="680"/>
			<point x="95" y="689"/>
			<point x="103" y="697" type="curve" smooth="yes"/>
			<point x="109" y="703"/>
			<point x="118" y="707"/>
			<point x="128" y="707" type="curve" smooth="yes"/>
			<point x="138" y="707"/>
			<point x="146" y="703"/>
			<point x="154" y="697" type="curve" smooth="yes"/>
			<point x="160" y="689"/>
			<point x="164" y="680"/>
		</contour>
		<contour>
			<point x="234" y="670" type="curve" smooth="yes"/>
			<point x="234" y="698"/>
			<point x="223" y="723"/>
			<point x="203" y="744" type="curve" smooth="yes"/>
			<point x="182" y="764"/>
			<point x="157" y="775"/>
			<point x="128" y="775" type="curve" smooth="yes"/>
			<point x="98" y="775"/>
			<point x="73" y="764"/>
			<point x="53" y="744" type="curve" smooth="yes"/>
			<point x="32" y="723"/>
			<point x="22" y="698"/>
			<point x="22" y="670" type="curve" smooth="yes"/>
			<point x="22" y="641"/>
			<point x="32" y="616"/>
			<point x="53" y="596" type="curve" smooth="yes"/>
			<point x="73" y="575"/>
			<point x="98" y="565"/>
			<point x="128" y="565" type="curve" smooth="yes"/>
			<point x="157" y="565"/>
			<point x="182" y="575"/>
			<point x="203" y="596" type="curve" smooth="yes"/>
			<point x="223" y="616"/>
			<point x="234" y="641"/>
		</contour>
	</outline>
</glyph>
<glyph name="plusminus" format="2">
	<unicode hex="00B1"/>
	<advance width="619"/>
	<outline>
		<contour>
			<point x="551" y="376" type="line"/>
			<point x="551" y="453" type="line"/>
			<point x="338" y="453" type="line"/>
			<point x="338" y="642" type="line"/>
			<point x="254" y="642" type="line"/>
			<point x="254" y="453" type="line"/>
			<point x="41" y="453" type="line"/>
			<point x="41" y="376" type="line"/>
			<point x="254" y="376" type="line"/>
			<point x="254" y="183" type="line"/>
			<point x="338" y="183" type="line"/>
			<point x="338" y="376" type="line"/>
		</contour>
		<contour>
			<point x="551" y="48" type="line"/>
			<point x="551" y="124" type="line"/>
			<point x="41" y="124" type="line"/>
			<point x="41" y="48" type="line"/>
		</contour>
	</outline>
</glyph>
<glyph name="uni00B2" format="2">
	<unicode hex="00B2"/>
	<advance width="348"/>
	<outline>
		<contour>
			<point x="62" y="391" type="curve" smooth="yes"/>
			<point x="62" y="330" type="line"/>
			<point x="291" y="330" type="line"/>
			<point x="291" y="399" type="line"/>
			<point x="160" y="399" type="line"/>
			<point x="184" y="426"/>
			<point x="206" y="453"/>
			<point x="226" y="481" type="curve" smooth="yes"/>
			<point x="246" y="507"/>
			<point x="262" y="536"/>
			<point x="274" y="568" type="curve" smooth="yes"/>
			<point x="277" y="578"/>
			<point x="280" y="589"/>
			<point x="282" y="603" type="curve" smooth="yes"/>
			<point x="283" y="615"/>
			<point x="284" y="626"/>
			<point x="284" y="635" type="curve" smooth="yes"/>
			<point x="284" y="671"/>
			<point x="273" y="700"/>
			<point x="252" y="723" type="curve" smooth="yes"/>
			<point x="230" y="745"/>
			<point x="203" y="756"/>
			<point x="171" y="756" type="curve" smooth="yes"/>
			<point x="149" y="756"/>
			<point x="131" y="751"/>
			<point x="117" y="743" type="curve" smooth="yes"/>
			<point x="102" y="733"/>
			<point x="90" y="722"/>
			<point x="82" y="710" type="curve" smooth="yes"/>
			<point x="73" y="697"/>
			<point x="67" y="684"/>
			<point x="64" y="671" type="curve" smooth="yes"/>
			<point x="60" y="657"/>
			<point x="59" y="642"/>
			<point x="59" y="628" type="curve"/>
			<point x="132" y="628" type="line"/>
			<point x="130" y="649"/>
			<point x="133" y="665"/>
			<point x="141" y="676" type="curve" smooth="yes"/>
			<point x="147" y="686"/>
			<point x="157" y="691"/>
			<point x="171" y="691" type="curve" smooth="yes"/>
			<point x="186" y="691"/>
			<point x="197" y="684"/>
			<point x="204" y="672" type="curve" smooth="yes"/>
			<point x="210" y="659"/>
			<point x="213" y="648"/>
			<point x="213" y="639" type="curve" smooth="yes"/>
			<point x="213" y="631"/>
			<point x="212" y="623"/>
			<point x="211" y="613" type="curve" smooth="yes"/>
			<point x="209" y="602"/>
			<point x="208" y="594"/>
			<point x="206" y="589" type="curve" smooth="yes"/>
			<point x="192" y="553"/>
			<point x="169" y="514"/>
			<point x="136" y="474" type="curve" smooth="yes"/>
			<point x="102" y="433"/>
			<point x="82" y="410"/>
			<point x="76" y="404" type="curve" smooth="yes"/>
			<point x="74" y="402"/>
			<point x="72" y="400"/>
			<point x="70" y="399" type="curve" smooth="yes"/>
			<point x="68" y="397"/>
			<point x="65" y="394"/>
		</contour>
	</outline>
</glyph>
<glyph name="uni00B3" format="2">
	<unicode hex="00B3"/>
	<advance width="348"/>
	<outline>
		<contour>
			<point x="245" y="548" type="curve"/>
			<point x="252" y="552"/>
			<point x="261" y="561"/>
			<point x="271" y="576" type="curve" smooth="yes"/>
			<point x="280" y="590"/>
			<point x="285" y="610"/>
			<point x="285" y="638" type="curve" smooth="yes"/>
			<point x="285" y="656"/>
			<point x="282" y="672"/>
			<point x="276" y="687" type="curve" smooth="yes"/>
			<point x="269" y="701"/>
			<point x="260" y="714"/>
			<point x="250" y="724" type="curve" smooth="yes"/>
			<point x="239" y="734"/>
			<point x="227" y="742"/>
			<point x="213" y="748" type="curve" smooth="yes"/>
			<point x="198" y="752"/>
			<point x="184" y="755"/>
			<point x="170" y="755" type="curve" smooth="yes"/>
			<point x="150" y="755"/>
			<point x="134" y="751"/>
			<point x="120" y="745" type="curve" smooth="yes"/>
			<point x="105" y="737"/>
			<point x="93" y="728"/>
			<point x="85" y="718" type="curve" smooth="yes"/>
			<point x="76" y="708"/>
			<point x="70" y="698"/>
			<point x="66" y="686" type="curve" smooth="yes"/>
			<point x="61" y="673"/>
			<point x="59" y="659"/>
			<point x="59" y="644" type="curve"/>
			<point x="125" y="644" type="line"/>
			<point x="127" y="660"/>
			<point x="132" y="672"/>
			<point x="140" y="680" type="curve" smooth="yes"/>
			<point x="146" y="687"/>
			<point x="157" y="691"/>
			<point x="173" y="691" type="curve" smooth="yes"/>
			<point x="185" y="691"/>
			<point x="195" y="686"/>
			<point x="203" y="677" type="curve" smooth="yes"/>
			<point x="210" y="667"/>
			<point x="214" y="654"/>
			<point x="214" y="638" type="curve" smooth="yes"/>
			<point x="214" y="626"/>
			<point x="212" y="617"/>
			<point x="210" y="609" type="curve" smooth="yes"/>
			<point x="206" y="601"/>
			<point x="202" y="594"/>
			<point x="197" y="590" type="curve" smooth="yes"/>
			<point x="194" y="587"/>
			<point x="189" y="585"/>
			<point x="182" y="584" type="curve" smooth="yes"/>
			<point x="174" y="582"/>
			<point x="160" y="582"/>
			<point x="140" y="582" type="curve"/>
			<point x="140" y="518" type="line"/>
			<point x="164" y="518"/>
			<point x="184" y="514"/>
			<point x="198" y="506" type="curve" smooth="yes"/>
			<point x="212" y="498"/>
			<point x="219" y="480"/>
			<point x="219" y="453" type="curve" smooth="yes"/>
			<point x="219" y="433"/>
			<point x="215" y="417"/>
			<point x="207" y="406" type="curve" smooth="yes"/>
			<point x="198" y="394"/>
			<point x="185" y="388"/>
			<point x="169" y="388" type="curve" smooth="yes"/>
			<point x="153" y="388"/>
			<point x="142" y="392"/>
			<point x="136" y="401" type="curve" smooth="yes"/>
			<point x="129" y="409"/>
			<point x="125" y="421"/>
			<point x="125" y="436" type="curve"/>
			<point x="50" y="436" type="line"/>
			<point x="53" y="402"/>
			<point x="65" y="375"/>
			<point x="85" y="355" type="curve" smooth="yes"/>
			<point x="104" y="333"/>
			<point x="133" y="323"/>
			<point x="171" y="323" type="curve" smooth="yes"/>
			<point x="209" y="323"/>
			<point x="239" y="336"/>
			<point x="260" y="362" type="curve" smooth="yes"/>
			<point x="280" y="387"/>
			<point x="291" y="417"/>
			<point x="291" y="453" type="curve" smooth="yes"/>
			<point x="291" y="483"/>
			<point x="284" y="507"/>
			<point x="272" y="523" type="curve" smooth="yes"/>
			<point x="258" y="539"/>
			<point x="249" y="547"/>
		</contour>
	</outline>
</glyph>
<glyph name="acute" format="2">
	<unicode hex="00B4"/>
	<advance width="838"/>
	<outline>
		<contour>
			<point x="501" y="734" type="line"/>
			<point x="401" y="734" type="line"/>
			<point x="340" y="554" type="line"/>
			<point x="417" y="554" type="line"/>
		</contour>
	</outline>
</glyph>
<glyph name="paragraph" format="2">
	<unicode hex="00B6"/>
	<advance width="871"/>
	<outline>
		<contour>
			<point x="357" y="716" type="line" smooth="yes"/>
			<point x="259.881" y="716"/>
			<point x="185" y="622.396"/>
			<point x="185" y="523" type="curve" smooth="yes"/>
			<point x="185" y="413.922"/>
			<point x="253.401" y="326"/>
			<point x="362" y="326" type="curve"/>
			<point x="362" y="-151" type="line"/>
			<point x="416" y="-151" type="line"/>
			<point x="416" y="665" type="line"/>
			<point x="489" y="665" type="line"/>
			<point x="489" y="-151" type="line"/>
			<point x="544" y="-151" type="line"/>
			<point x="544" y="716" type="line"/>
		</contour>
	</outline>
</glyph>
<glyph name="periodcentered" format="2">
	<unicode hex="00B7"/>
	<advance width="269"/>
	<outline>
		<contour>
			<point x="184" y="396" type="line"/>
			<point x="76" y="396" type="line"/>
			<point x="76" y="284" type="line"/>
			<point x="184" y="284" type="line"/>
		</contour>
	</outline>
</glyph>
<glyph name="cedilla" format="2">
	<unicode hex="00B8"/>
	<advance width="280"/>
	<outline>
		<contour>
			<point x="252" y="38" type="line"/>
			<point x="165" y="38" type="line"/>
			<point x="165" y="-73" type="line" smooth="yes"/>
			<point x="163" y="-87"/>
			<point x="157" y="-97"/>
			<point x="148" y="-103" type="curve" smooth="yes"/>
			<point x="138" y="-107"/>
			<point x="126" y="-110"/>
			<point x="111" y="-110" type="curve" smooth="yes"/>
			<point x="99" y="-110"/>
			<point x="88" y="-108"/>
			<point x="78" y="-104" type="curve" smooth="yes"/>
			<point x="67" y="-100"/>
			<point x="55" y="-94"/>
			<point x="41" y="-86" type="curve"/>
			<point x="21" y="-124" type="line"/>
			<point x="38" y="-135"/>
			<point x="56" y="-144"/>
			<point x="76" y="-151" type="curve" smooth="yes"/>
			<point x="94" y="-157"/>
			<point x="115" y="-160"/>
			<point x="137" y="-160" type="curve" smooth="yes"/>
			<point x="169" y="-160"/>
			<point x="196" y="-151"/>
			<point x="219" y="-135" type="curve" smooth="yes"/>
			<point x="241" y="-118"/>
			<point x="252" y="-96"/>
			<point x="252" y="-68" type="curve" smooth="yes"/>
		</contour>
	</outline>
</glyph>
<glyph name="uni00B9" format="2">
	<unicode hex="00B9"/>
	<advance width="348"/>
	<outline>
		<contour>
			<point x="146" y="663" type="line"/>
			<point x="146" y="328" type="line"/>
			<point x="215" y="328" type="line"/>
			<point x="215" y="753" type="line"/>
			<point x="161" y="753" type="line"/>
			<point x="86" y="700" type="line"/>
			<point x="86" y="620" type="line"/>
		</contour>
	</outline>
</glyph>
<glyph name="ordmasculine" format="2">
	<unicode hex="00BA"/>
	<advance width="611"/>
	<outline>
		<contour>
			<point x="101" y="185" type="line"/>
			<point x="502" y="185" type="line"/>
			<point x="502" y="256" type="line"/>
			<point x="101" y="256" type="line"/>
		</contour>
		<contour>
			<point x="303" y="301" type="curve" smooth="yes"/>
			<point x="358" y="301"/>
			<point x="401" y="320"/>
			<point x="433" y="360" type="curve" smooth="yes"/>
			<point x="463" y="398"/>
			<point x="479" y="449"/>
			<point x="479" y="512" type="curve" smooth="yes"/>
			<point x="479" y="575"/>
			<point x="463" y="627"/>
			<point x="432" y="667" type="curve" smooth="yes"/>
			<point x="400" y="706"/>
			<point x="357" y="726"/>
			<point x="301" y="726" type="curve" smooth="yes"/>
			<point x="271" y="726"/>
			<point x="246" y="720"/>
			<point x="224" y="708" type="curve" smooth="yes"/>
			<point x="202" y="696"/>
			<point x="183" y="680"/>
			<point x="169" y="660" type="curve" smooth="yes"/>
			<point x="154" y="640"/>
			<point x="143" y="617"/>
			<point x="137" y="592" type="curve" smooth="yes"/>
			<point x="129" y="566"/>
			<point x="126" y="539"/>
			<point x="126" y="511" type="curve" smooth="yes"/>
			<point x="126" y="445"/>
			<point x="142" y="393"/>
			<point x="175" y="357" type="curve" smooth="yes"/>
			<point x="207" y="319"/>
			<point x="250" y="301"/>
		</contour>
		<contour>
			<point x="212" y="511" type="curve" smooth="yes"/>
			<point x="212" y="531"/>
			<point x="213" y="549"/>
			<point x="217" y="567" type="curve" smooth="yes"/>
			<point x="219" y="584"/>
			<point x="224" y="599"/>
			<point x="232" y="613" type="curve" smooth="yes"/>
			<point x="238" y="626"/>
			<point x="247" y="637"/>
			<point x="259" y="645" type="curve" smooth="yes"/>
			<point x="269" y="652"/>
			<point x="283" y="656"/>
			<point x="300" y="656" type="curve" smooth="yes"/>
			<point x="332" y="656"/>
			<point x="356" y="642"/>
			<point x="371" y="614" type="curve" smooth="yes"/>
			<point x="385" y="585"/>
			<point x="392" y="551"/>
			<point x="392" y="512" type="curve" smooth="yes"/>
			<point x="392" y="472"/>
			<point x="385" y="438"/>
			<point x="371" y="412" type="curve" smooth="yes"/>
			<point x="357" y="384"/>
			<point x="334" y="371"/>
			<point x="303" y="371" type="curve" smooth="yes"/>
			<point x="271" y="371"/>
			<point x="248" y="384"/>
			<point x="234" y="412" type="curve" smooth="yes"/>
			<point x="219" y="438"/>
			<point x="212" y="471"/>
		</contour>
	</outline>
</glyph>
<glyph name="guillemotright" format="2">
  <advance width="940"/>
  <unicode hex="00BB"/>
  <outline>
    <contour>
      <point x="709" y="342" type="line"/>
      <point x="131" y="-55" type="line"/>
      <point x="155" y="-83" type="line"/>
      <point x="780" y="342" type="line"/>
      <point x="155" y="767" type="line"/>
      <point x="131" y="739" type="line"/>
    </contour>
    <contour>
      <point x="513" y="342" type="line"/>
      <point x="38" y="13" type="line"/>
      <point x="61" y="-17" type="line"/>
      <point x="584" y="342" type="line"/>
      <point x="61" y="700" type="line"/>
      <point x="37" y="672" type="line"/>
    </contour>
  </outline>
</glyph>
<glyph name="onequarter" format="2">
	<unicode hex="00BC"/>
	<advance width="879"/>
	<outline>
		<contour>
			<point x="132" y="-70" type="line"/>
			<point x="735" y="712" type="line"/>
			<point x="678" y="756" type="line"/>
			<point x="75" y="-26" type="line"/>
		</contour>
		<contour>
			<point x="189" y="653" type="line"/>
			<point x="189" y="318" type="line"/>
			<point x="264" y="318" type="line"/>
			<point x="264" y="743" type="line"/>
			<point x="206" y="743" type="line"/>
			<point x="129" y="690" type="line"/>
			<point x="129" y="610" type="line"/>
		</contour>
		<contour>
			<point x="602" y="37" type="line"/>
			<point x="602" y="-69" type="line"/>
			<point x="675" y="-69" type="line"/>
			<point x="675" y="37" type="line"/>
			<point x="731" y="37" type="line"/>
			<point x="731" y="106" type="line"/>
			<point x="675" y="106" type="line"/>
			<point x="675" y="356" type="line"/>
			<point x="606" y="356" type="line"/>
			<point x="464" y="91" type="line"/>
			<point x="464" y="37" type="line"/>
		</contour>
		<contour>
			<point x="602" y="220" type="line"/>
			<point x="602" y="106" type="line"/>
			<point x="543" y="106" type="line"/>
		</contour>
	</outline>
</glyph>
<glyph name="onehalf" format="2">
	<unicode hex="00BD"/>
	<advance width="838"/>
	<outline>
		<contour>
			<point x="132" y="-70" type="line"/>
			<point x="735" y="712" type="line"/>
			<point x="678" y="756" type="line"/>
			<point x="75" y="-26" type="line"/>
		</contour>
		<contour>
			<point x="189" y="653" type="line"/>
			<point x="189" y="318" type="line"/>
			<point x="264" y="318" type="line"/>
			<point x="264" y="743" type="line"/>
			<point x="206" y="743" type="line"/>
			<point x="129" y="690" type="line"/>
			<point x="129" y="610" type="line"/>
		</contour>
		<contour>
			<point x="484" y="-9" type="curve"/>
			<point x="484" y="-70" type="line"/>
			<point x="719" y="-70" type="line"/>
			<point x="719" y="-1" type="line"/>
			<point x="586" y="-1" type="line"/>
			<point x="600" y="13"/>
			<point x="618" y="36"/>
			<point x="641" y="66" type="curve" smooth="yes"/>
			<point x="665" y="96"/>
			<point x="685" y="131"/>
			<point x="701" y="171" type="curve" smooth="yes"/>
			<point x="704" y="181"/>
			<point x="707" y="192"/>
			<point x="709" y="204" type="curve" smooth="yes"/>
			<point x="711" y="216"/>
			<point x="712" y="226"/>
			<point x="712" y="235" type="curve" smooth="yes"/>
			<point x="712" y="271"/>
			<point x="700" y="300"/>
			<point x="677" y="323" type="curve" smooth="yes"/>
			<point x="653" y="345"/>
			<point x="625" y="356"/>
			<point x="595" y="356" type="curve" smooth="yes"/>
			<point x="572" y="356"/>
			<point x="553" y="351"/>
			<point x="539" y="343" type="curve" smooth="yes"/>
			<point x="524" y="333"/>
			<point x="512" y="322"/>
			<point x="503" y="310" type="curve" smooth="yes"/>
			<point x="495" y="297"/>
			<point x="489" y="284"/>
			<point x="486" y="271" type="curve" smooth="yes"/>
			<point x="482" y="257"/>
			<point x="481" y="242"/>
			<point x="481" y="228" type="curve"/>
			<point x="560" y="228" type="line"/>
			<point x="558" y="250"/>
			<point x="561" y="266"/>
			<point x="568" y="276" type="curve" smooth="yes"/>
			<point x="574" y="286"/>
			<point x="583" y="291"/>
			<point x="595" y="291" type="curve" smooth="yes"/>
			<point x="609" y="291"/>
			<point x="620" y="285"/>
			<point x="626" y="275" type="curve" smooth="yes"/>
			<point x="632" y="263"/>
			<point x="635" y="251"/>
			<point x="635" y="239" type="curve" smooth="yes"/>
			<point x="635" y="231"/>
			<point x="634" y="222"/>
			<point x="633" y="212" type="curve" smooth="yes"/>
			<point x="631" y="200"/>
			<point x="629" y="192"/>
			<point x="627" y="188" type="curve" smooth="yes"/>
			<point x="616" y="156"/>
			<point x="597" y="124"/>
			<point x="571" y="90" type="curve" smooth="yes"/>
			<point x="535" y="44"/>
			<point x="506" y="11"/>
		</contour>
	</outline>
</glyph>
<glyph name="threequarters" format="2">
	<unicode hex="00BE"/>
	<advance width="871"/>
	<outline>
		<contour>
			<point x="132" y="-70" type="line"/>
			<point x="735" y="712" type="line"/>
			<point x="678" y="756" type="line"/>
			<point x="75" y="-26" type="line"/>
		</contour>
		<contour>
			<point x="602" y="37" type="line"/>
			<point x="602" y="-69" type="line"/>
			<point x="675" y="-69" type="line"/>
			<point x="675" y="37" type="line"/>
			<point x="731" y="37" type="line"/>
			<point x="731" y="106" type="line"/>
			<point x="675" y="106" type="line"/>
			<point x="675" y="356" type="line"/>
			<point x="606" y="356" type="line"/>
			<point x="464" y="91" type="line"/>
			<point x="464" y="37" type="line"/>
		</contour>
		<contour>
			<point x="602" y="220" type="line"/>
			<point x="602" y="106" type="line"/>
			<point x="543" y="106" type="line"/>
		</contour>
		<contour>
			<point x="264" y="550" type="curve"/>
			<point x="287.358" y="563.348"/>
			<point x="308" y="592.886"/>
			<point x="308" y="638" type="curve" smooth="yes"/>
			<point x="308" y="706.021"/>
			<point x="256.697" y="755"/>
			<point x="190" y="755" type="curve" smooth="yes"/>
			<point x="120.535" y="755"/>
			<point x="76" y="711.214"/>
			<point x="76" y="644" type="curve"/>
			<point x="148" y="644" type="line"/>
			<point x="151.447" y="671.574"/>
			<point x="162.557" y="691"/>
			<point x="193" y="691" type="curve" smooth="yes"/>
			<point x="218.15" y="691"/>
			<point x="232" y="665.665"/>
			<point x="232" y="638" type="curve" smooth="yes"/>
			<point x="232" y="592.631"/>
			<point x="205.013" y="582"/>
			<point x="158" y="582" type="curve"/>
			<point x="158" y="518" type="line"/>
			<point x="209.658" y="518"/>
			<point x="236" y="506.638"/>
			<point x="236" y="453" type="curve" smooth="yes"/>
			<point x="236" y="417.151"/>
			<point x="222.127" y="388"/>
			<point x="189" y="388" type="curve" smooth="yes"/>
			<point x="160.982" y="388"/>
			<point x="148" y="407.798"/>
			<point x="148" y="436" type="curve"/>
			<point x="67" y="436" type="line"/>
			<point x="75.1304" y="366.892"/>
			<point x="112.892" y="323"/>
			<point x="191" y="323" type="curve" smooth="yes"/>
			<point x="267.027" y="323"/>
			<point x="315" y="377.623"/>
			<point x="315" y="453" type="curve" smooth="yes"/>
			<point x="315" y="502.6"/>
			<point x="289.223" y="533.185"/>
		</contour>
	</outline>
</glyph>
<glyph name="questiondown" format="2">
  <advance width="838"/>
  <unicode hex="00BF"/>
  <outline>
    <contour>
      <point x="201" y="109" type="curve" smooth="yes"/>
      <point x="201" y="78"/>
      <point x="207" y="52"/>
      <point x="221" y="30" type="curve" smooth="yes"/>
      <point x="233" y="8"/>
      <point x="249" y="-10"/>
      <point x="269" y="-25" type="curve" smooth="yes"/>
      <point x="288" y="-39"/>
      <point x="310" y="-49"/>
      <point x="334" y="-57" type="curve" smooth="yes"/>
      <point x="358" y="-63"/>
      <point x="381" y="-67"/>
      <point x="403" y="-67" type="curve" smooth="yes"/>
      <point x="419" y="-67"/>
      <point x="434" y="-66"/>
      <point x="449" y="-64" type="curve" smooth="yes"/>
      <point x="463" y="-62"/>
      <point x="476" y="-59"/>
      <point x="488" y="-57" type="curve" smooth="yes"/>
      <point x="500" y="-54"/>
      <point x="511" y="-51"/>
      <point x="521" y="-49" type="curve" smooth="yes"/>
      <point x="530" y="-46"/>
      <point x="540" y="-43"/>
      <point x="552" y="-39" type="curve"/>
      <point x="552" y="50" type="line"/>
      <point x="536" y="44"/>
      <point x="523" y="39"/>
      <point x="514" y="35" type="curve" smooth="yes"/>
      <point x="504" y="31"/>
      <point x="493" y="27"/>
      <point x="481" y="24" type="curve" smooth="yes"/>
      <point x="467" y="20"/>
      <point x="455" y="17"/>
      <point x="443" y="15" type="curve" smooth="yes"/>
      <point x="430" y="12"/>
      <point x="417" y="11"/>
      <point x="405" y="11" type="curve" smooth="yes"/>
      <point x="391" y="11"/>
      <point x="378" y="14"/>
      <point x="366" y="20" type="curve" smooth="yes"/>
      <point x="352" y="25"/>
      <point x="340" y="32"/>
      <point x="330" y="41" type="curve" smooth="yes"/>
      <point x="320" y="49"/>
      <point x="311" y="60"/>
      <point x="305" y="73" type="curve" smooth="yes"/>
      <point x="298" y="85"/>
      <point x="295" y="98"/>
      <point x="295" y="112" type="curve" smooth="yes"/>
      <point x="295" y="127"/>
      <point x="298" y="143"/>
      <point x="306" y="160" type="curve" smooth="yes"/>
      <point x="313" y="176"/>
      <point x="322" y="191"/>
      <point x="333" y="205" type="curve" smooth="yes"/>
      <point x="344" y="219"/>
      <point x="356" y="233"/>
      <point x="369" y="247" type="curve" smooth="yes"/>
      <point x="381" y="260"/>
      <point x="392" y="272"/>
      <point x="402" y="282" type="curve" smooth="yes"/>
      <point x="421" y="304"/>
      <point x="436" y="328"/>
      <point x="448" y="352" type="curve" smooth="yes"/>
      <point x="459" y="376"/>
      <point x="465" y="409"/>
      <point x="465" y="451" type="curve" smooth="yes"/>
      <point x="465" y="527" type="line"/>
      <point x="378" y="527" type="line"/>
      <point x="378" y="472" type="line" smooth="yes"/>
      <point x="378" y="448"/>
      <point x="377" y="430"/>
      <point x="375" y="417" type="curve" smooth="yes"/>
      <point x="372" y="403"/>
      <point x="368" y="390"/>
      <point x="364" y="380" type="curve" smooth="yes"/>
      <point x="359" y="370"/>
      <point x="353" y="361"/>
      <point x="347" y="352" type="curve" smooth="yes"/>
      <point x="340" y="342"/>
      <point x="333" y="333"/>
      <point x="325" y="324" type="curve" smooth="yes"/>
      <point x="318" y="316"/>
      <point x="308" y="305"/>
      <point x="295" y="291" type="curve" smooth="yes"/>
      <point x="281" y="276"/>
      <point x="268" y="260"/>
      <point x="254" y="242" type="curve" smooth="yes"/>
      <point x="240" y="224"/>
      <point x="228" y="204"/>
      <point x="218" y="181" type="curve" smooth="yes"/>
      <point x="206" y="157"/>
      <point x="201" y="133"/>
    </contour>
    <contour>
      <point x="364" y="739" type="line"/>
      <point x="364" y="627" type="line"/>
      <point x="475" y="627" type="line"/>
      <point x="475" y="739" type="line"/>
    </contour>
  </outline>
</glyph>
<glyph name="AE" format="2">
	<unicode hex="00C6"/>
	<advance width="788"/>
	<outline>
		<contour>
			<point x="-2" y="0" type="line"/>
			<point x="82" y="0" type="line"/>
			<point x="163" y="215" type="line"/>
			<point x="353" y="215" type="line"/>
			<point x="353" y="0" type="line"/>
			<point x="712" y="0" type="line"/>
			<point x="712" y="79" type="line"/>
			<point x="438" y="79" type="line"/>
			<point x="438" y="334" type="line"/>
			<point x="694" y="334" type="line"/>
			<point x="694" y="412" type="line"/>
			<point x="438" y="412" type="line"/>
			<point x="438" y="634" type="line"/>
			<point x="704" y="634" type="line"/>
			<point x="704" y="713" type="line"/>
			<point x="266" y="713" type="line"/>
		</contour>
		<contour>
			<point x="313" y="616" type="line"/>
			<point x="353" y="616" type="line"/>
			<point x="353" y="293" type="line"/>
			<point x="193" y="293" type="line"/>
		</contour>
	</outline>
</glyph>
<glyph name="Eth" format="2">
	<unicode hex="00D0"/>
	<advance width="627"/>
	<outline>
		<contour>
			<point x="119" y="331" type="line"/>
			<point x="119" y="0" type="line"/>
			<point x="270" y="0" type="line" smooth="yes"/>
			<point x="310" y="0"/>
			<point x="350" y="4"/>
			<point x="389" y="14" type="curve" smooth="yes"/>
			<point x="417" y="21"/>
			<point x="443" y="34"/>
			<point x="467" y="54" type="curve" smooth="yes"/>
			<point x="491" y="72"/>
			<point x="512" y="96"/>
			<point x="530" y="125" type="curve" smooth="yes"/>
			<point x="549" y="153"/>
			<point x="564" y="187"/>
			<point x="575" y="225" type="curve" smooth="yes"/>
			<point x="585" y="262"/>
			<point x="591" y="307"/>
			<point x="591" y="359" type="curve" smooth="yes"/>
			<point x="591" y="447"/>
			<point x="576" y="518"/>
			<point x="546" y="571" type="curve" smooth="yes"/>
			<point x="515" y="623"/>
			<point x="476" y="660"/>
			<point x="428" y="684" type="curve" smooth="yes"/>
			<point x="388" y="703"/>
			<point x="339" y="713"/>
			<point x="280" y="713" type="curve" smooth="yes"/>
			<point x="119" y="713" type="line"/>
			<point x="119" y="399" type="line"/>
			<point x="17" y="399" type="line"/>
			<point x="17" y="331" type="line"/>
		</contour>
		<contour>
			<point x="203" y="331" type="line"/>
			<point x="397" y="331" type="line"/>
			<point x="397" y="399" type="line"/>
			<point x="203" y="399" type="line"/>
			<point x="203" y="634" type="line"/>
			<point x="263" y="634" type="line" smooth="yes"/>
			<point x="301" y="633"/>
			<point x="334" y="630"/>
			<point x="360" y="625" type="curve" smooth="yes"/>
			<point x="378" y="621"/>
			<point x="395" y="613"/>
			<point x="413" y="601" type="curve" smooth="yes"/>
			<point x="430" y="589"/>
			<point x="445" y="572"/>
			<point x="459" y="551" type="curve" smooth="yes"/>
			<point x="472" y="529"/>
			<point x="483" y="503"/>
			<point x="493" y="473" type="curve" smooth="yes"/>
			<point x="501" y="441"/>
			<point x="506" y="403"/>
			<point x="507" y="358" type="curve" smooth="yes"/>
			<point x="507" y="314"/>
			<point x="502" y="276"/>
			<point x="493" y="246" type="curve" smooth="yes"/>
			<point x="483" y="215"/>
			<point x="472" y="189"/>
			<point x="459" y="167" type="curve" smooth="yes"/>
			<point x="446" y="147"/>
			<point x="431" y="130"/>
			<point x="414" y="116" type="curve" smooth="yes"/>
			<point x="396" y="100"/>
			<point x="380" y="91"/>
			<point x="366" y="89" type="curve" smooth="yes"/>
			<point x="334" y="81"/>
			<point x="303" y="78"/>
			<point x="272" y="79" type="curve" smooth="yes"/>
			<point x="203" y="79" type="line"/>
		</contour>
	</outline>
</glyph>
<glyph name="multiply" format="2">
	<unicode hex="00D7"/>
	<advance width="619"/>
	<outline>
		<contour>
			<point x="477" y="603" type="line"/>
			<point x="294" y="395" type="line"/>
			<point x="111" y="603" type="line"/>
			<point x="53" y="550" type="line"/>
			<point x="241" y="336" type="line"/>
			<point x="53" y="122" type="line"/>
			<point x="111" y="68" type="line"/>
			<point x="294" y="276" type="line"/>
			<point x="477" y="68" type="line"/>
			<point x="535" y="122" type="line"/>
			<point x="347" y="336" type="line"/>
			<point x="535" y="550" type="line"/>
		</contour>
	</outline>
</glyph>
<glyph name="Oslash" format="2">
  <advance width="676"/>
  <unicode hex="00D8"/>
  <outline>
    <contour>
      <point x="534" y="357" type="curve" smooth="yes"/>
      <point x="534" y="317"/>
      <point x="529" y="278"/>
      <point x="520" y="241" type="curve" smooth="yes"/>
      <point x="510" y="203"/>
      <point x="496" y="171"/>
      <point x="478" y="145" type="curve" smooth="yes"/>
      <point x="460" y="119"/>
      <point x="438" y="99"/>
      <point x="413" y="85" type="curve" smooth="yes"/>
      <point x="387" y="71"/>
      <point x="360" y="64"/>
      <point x="334" y="64" type="curve" smooth="yes"/>
      <point x="307" y="64"/>
      <point x="281" y="71"/>
      <point x="256" y="85" type="curve" smooth="yes"/>
      <point x="244" y="91"/>
      <point x="234" y="98"/>
      <point x="224" y="107" type="curve"/>
      <point x="504" y="520" type="line"/>
      <point x="510" y="505"/>
      <point x="515" y="489"/>
      <point x="520" y="473" type="curve" smooth="yes"/>
      <point x="529" y="435"/>
      <point x="534" y="397"/>
    </contour>
    <contour>
      <point x="468" y="582" type="curve"/>
      <point x="182" y="158" type="line"/>
      <point x="168" y="182"/>
      <point x="157" y="209"/>
      <point x="149" y="241" type="curve" smooth="yes"/>
      <point x="139" y="278"/>
      <point x="134" y="317"/>
      <point x="134" y="357" type="curve" smooth="yes"/>
      <point x="134" y="397"/>
      <point x="139" y="435"/>
      <point x="149" y="473" type="curve" smooth="yes"/>
      <point x="158" y="510"/>
      <point x="172" y="542"/>
      <point x="190" y="569" type="curve" smooth="yes"/>
      <point x="208" y="595"/>
      <point x="230" y="615"/>
      <point x="256" y="629" type="curve" smooth="yes"/>
      <point x="281" y="643"/>
      <point x="307" y="650"/>
      <point x="334" y="650" type="curve" smooth="yes"/>
      <point x="360" y="650"/>
      <point x="387" y="643"/>
      <point x="413" y="629" type="curve" smooth="yes"/>
      <point x="433" y="617"/>
      <point x="452" y="602"/>
    </contour>
    <contour>
      <point x="622" y="357" type="curve" smooth="yes"/>
      <point x="622" y="407"/>
      <point x="615" y="455"/>
      <point x="601" y="501" type="curve" smooth="yes"/>
      <point x="589" y="537"/>
      <point x="575" y="569"/>
      <point x="557" y="598" type="curve"/>
      <point x="611" y="678" type="line"/>
      <point x="559" y="716" type="line"/>
      <point x="515" y="650" type="line"/>
      <point x="495" y="669"/>
      <point x="473" y="685"/>
      <point x="449" y="698" type="curve" smooth="yes"/>
      <point x="412" y="716"/>
      <point x="374" y="725"/>
      <point x="334" y="725" type="curve" smooth="yes"/>
      <point x="294" y="725"/>
      <point x="256" y="716"/>
      <point x="220" y="698" type="curve" smooth="yes"/>
      <point x="183" y="679"/>
      <point x="152" y="653"/>
      <point x="126" y="620" type="curve" smooth="yes"/>
      <point x="100" y="586"/>
      <point x="81" y="546"/>
      <point x="67" y="501" type="curve" smooth="yes"/>
      <point x="53" y="455"/>
      <point x="46" y="407"/>
      <point x="46" y="357" type="curve" smooth="yes"/>
      <point x="46" y="306"/>
      <point x="53" y="258"/>
      <point x="67" y="213" type="curve" smooth="yes"/>
      <point x="81" y="167"/>
      <point x="100" y="127"/>
      <point x="126" y="94" type="curve" smooth="yes"/>
      <point x="128" y="91"/>
      <point x="130" y="88"/>
      <point x="133" y="85" type="curve"/>
      <point x="80" y="7" type="line"/>
      <point x="134" y="-27" type="line"/>
      <point x="180" y="40" type="line"/>
      <point x="192" y="30"/>
      <point x="205" y="22"/>
      <point x="220" y="16" type="curve" smooth="yes"/>
      <point x="256" y="-2"/>
      <point x="294" y="-11"/>
      <point x="334" y="-11" type="curve" smooth="yes"/>
      <point x="374" y="-11"/>
      <point x="412" y="-2"/>
      <point x="449" y="16" type="curve" smooth="yes"/>
      <point x="485" y="34"/>
      <point x="516" y="60"/>
      <point x="542" y="94" type="curve" smooth="yes"/>
      <point x="567" y="127"/>
      <point x="587" y="167"/>
      <point x="601" y="213" type="curve" smooth="yes"/>
      <point x="615" y="258"/>
      <point x="622" y="306"/>
    </contour>
  </outline>
</glyph>
<glyph name="Thorn" format="2">
  <advance width="525"/>
  <unicode hex="00DE"/>
  <outline>
    <contour>
      <point x="152" y="713" type="line"/>
      <point x="67" y="713" type="line"/>
      <point x="67" y="0" type="line"/>
      <point x="152" y="0" type="line"/>
      <point x="152" y="130" type="line"/>
      <point x="266" y="130" type="line" smooth="yes"/>
      <point x="291" y="130"/>
      <point x="317" y="133"/>
      <point x="345" y="141" type="curve" smooth="yes"/>
      <point x="371" y="147"/>
      <point x="395" y="159"/>
      <point x="417" y="175" type="curve" smooth="yes"/>
      <point x="438" y="191"/>
      <point x="456" y="212"/>
      <point x="470" y="239" type="curve" smooth="yes"/>
      <point x="483" y="265"/>
      <point x="490" y="297"/>
      <point x="490" y="335" type="curve" smooth="yes"/>
      <point x="490" y="370"/>
      <point x="483" y="401"/>
      <point x="470" y="428" type="curve" smooth="yes"/>
      <point x="456" y="454"/>
      <point x="437" y="476"/>
      <point x="415" y="493" type="curve" smooth="yes"/>
      <point x="390" y="510"/>
      <point x="362" y="523"/>
      <point x="332" y="532" type="curve" smooth="yes"/>
      <point x="300" y="540"/>
      <point x="268" y="545"/>
      <point x="234" y="545" type="curve" smooth="yes"/>
      <point x="152" y="545" type="line"/>
    </contour>
    <contour>
      <point x="152" y="469" type="line"/>
      <point x="259" y="469" type="line" smooth="yes"/>
      <point x="276" y="469"/>
      <point x="293" y="466"/>
      <point x="311" y="462" type="curve" smooth="yes"/>
      <point x="327" y="456"/>
      <point x="342" y="448"/>
      <point x="356" y="438" type="curve" smooth="yes"/>
      <point x="369" y="427"/>
      <point x="380" y="413"/>
      <point x="390" y="397" type="curve" smooth="yes"/>
      <point x="398" y="380"/>
      <point x="403" y="360"/>
      <point x="403" y="337" type="curve" smooth="yes"/>
      <point x="401" y="288"/>
      <point x="386" y="254"/>
      <point x="359" y="236" type="curve" smooth="yes"/>
      <point x="331" y="216"/>
      <point x="295" y="207"/>
      <point x="252" y="207" type="curve" smooth="yes"/>
      <point x="152" y="207" type="line"/>
    </contour>
  </outline>
</glyph>
